<svg width="1432" height="803" viewBox="0 0 1432 803" fill="none" xmlns="http://www.w3.org/2000/svg">
<path d="M296.909 765.517C282.838 746.932 280.748 720.559 289.167 688.667C297.583 656.782 316.482 619.471 344.249 579.119C399.78 498.419 490.709 405.656 603.88 319.973C717.051 234.291 831.003 171.937 923.741 140.382C970.112 124.603 1011.15 116.534 1044.12 117.083C1077.1 117.633 1101.92 126.799 1115.99 145.384C1130.06 163.969 1132.15 190.342 1123.73 222.234C1115.32 254.118 1096.42 291.43 1068.65 331.782C1013.12 412.481 922.192 505.245 809.021 590.927C695.85 676.61 581.898 738.963 489.16 770.519C442.788 786.298 401.749 794.366 368.777 793.817C335.797 793.268 310.98 784.102 296.909 765.517Z" stroke="white" stroke-opacity="0.08"/>
<path d="M237.9 624.467C229.515 601.932 234.522 575.554 250.905 547.09C267.285 518.628 295.003 488.149 331.902 457.474C405.695 396.127 516.118 334.069 645.68 285.862C775.243 237.654 899.374 212.439 995.32 210.63C1043.3 209.725 1084.19 214.673 1115.2 225.505C1146.2 236.338 1167.23 253.028 1175.62 275.562C1184 298.097 1178.99 324.475 1162.61 352.939C1146.23 381.401 1118.51 411.88 1081.61 442.555C1007.82 503.902 897.398 565.959 767.836 614.167C638.273 662.375 514.142 687.59 418.196 689.399C370.221 690.304 329.321 685.356 298.32 674.524C267.316 663.691 246.284 647.001 237.9 624.467Z" stroke="white" stroke-opacity="0.08"/>
<path d="M220.857 469.468C219.591 444.724 231.891 420.398 255.355 397.584C278.818 374.77 313.401 353.514 356.571 334.929C442.907 297.761 563.488 271.324 697.845 264.446C832.202 257.568 954.852 271.555 1044.53 299.712C1089.37 313.792 1125.95 331.406 1151.62 351.704C1177.29 372.003 1192.01 394.946 1193.27 419.69C1194.54 444.434 1182.24 468.759 1158.78 491.574C1135.31 514.388 1100.73 535.644 1057.56 554.229C971.225 591.396 850.644 617.834 716.287 624.712C581.93 631.59 459.28 617.603 369.599 589.446C324.758 575.366 288.185 557.752 262.515 537.454C236.844 517.154 222.124 494.212 220.857 469.468Z" stroke="white" stroke-opacity="0.08"/>
<path d="M250.282 315.846C256.925 291.218 275.978 271.133 304.855 255.923C333.734 240.712 372.393 230.404 418.144 225.319C509.643 215.15 629.397 225.886 755.707 259.957C882.018 294.028 990.926 344.972 1064.9 399.776C1101.89 427.179 1130.12 455.53 1147.43 483.2C1164.74 510.869 1171.11 537.811 1164.46 562.44C1157.82 587.068 1138.77 607.153 1109.89 622.363C1081.01 637.574 1042.35 647.882 996.603 652.967C905.104 663.136 785.35 652.4 659.04 618.329C532.729 584.258 423.821 533.314 349.848 478.51C312.86 451.107 284.629 422.756 267.317 395.086C250.006 367.417 243.639 340.475 250.282 315.846Z" stroke="white" stroke-opacity="0.08"/>
<path d="M323.9 180.087C338.367 158.195 362.852 144.358 394.827 138.128C426.805 131.896 466.232 133.283 510.501 141.807C599.036 158.854 706.83 204.432 812.882 274.516C918.934 344.6 1003.13 425.896 1053.52 500.658C1078.72 538.041 1095.45 573.769 1102.25 605.629C1109.06 637.487 1105.93 665.437 1091.46 687.328C1076.99 709.22 1052.51 723.057 1020.53 729.287C988.557 735.519 949.13 734.133 904.861 725.609C816.326 708.561 708.532 662.983 602.48 592.899C496.428 522.815 412.237 441.519 361.843 366.757C336.646 329.374 319.913 293.646 313.108 261.786C306.304 229.928 309.433 201.979 323.9 180.087Z" stroke="white" stroke-opacity="0.08"/>
<path d="M432.725 76.594C453.963 59.9701 481.89 53.8995 514.262 57.2137C546.637 60.5283 583.426 73.2283 622.327 94.1043C700.128 135.856 786.293 210.264 862.358 307.444C938.423 404.624 989.956 506.139 1011.8 591.691C1022.72 634.468 1026.21 673.23 1021.65 705.454C1017.09 737.674 1004.49 763.325 983.253 779.949C962.015 796.573 934.088 802.644 901.716 799.329C869.341 796.015 832.552 783.315 793.651 762.439C715.85 720.688 629.685 646.279 553.62 549.099C477.555 451.919 426.022 350.404 404.18 264.852C393.259 222.075 389.768 183.313 394.327 151.089C398.885 118.869 411.486 93.2179 432.725 76.594Z" stroke="white" stroke-opacity="0.08"/>
<path d="M562.711 14.8542C614.891 -3.76587 678.508 24.8061 739.241 86.4204C799.942 148.002 857.615 242.458 897.845 355.197C938.075 467.935 953.228 577.564 945.226 663.662C937.219 749.806 906.062 812.197 853.882 830.817C801.702 849.437 738.085 820.865 677.352 759.251C616.651 697.669 558.978 603.213 518.748 490.475C478.518 377.736 463.365 268.108 471.367 182.009C479.374 95.8658 510.531 33.4743 562.711 14.8542Z" stroke="white" stroke-opacity="0.08"/>
<path d="M697.578 -2.21773C754.418 -3.71129 807.246 41.7274 846.66 116.72C886.057 191.681 911.963 296.024 915.009 411.976C918.056 527.929 897.666 633.488 862.26 710.414C826.839 787.374 776.47 835.524 719.63 837.018C662.79 838.511 609.963 793.072 570.549 718.08C531.151 643.118 505.246 538.776 502.199 422.824C499.152 306.871 519.542 201.312 554.948 124.385C590.37 47.4262 640.738 -0.724166 697.578 -2.21773Z" stroke="white" stroke-opacity="0.08"/>
<path d="M821.972 21.6638C877.986 37.8895 916.202 96.153 932.587 177.488C948.967 258.796 943.492 363.017 912.251 470.866C881.009 578.716 829.931 669.727 772.628 729.691C715.306 789.675 651.865 818.491 595.852 802.265C539.838 786.039 501.622 727.776 485.236 646.441C468.856 565.133 474.332 460.912 505.573 353.062C536.814 245.212 587.893 154.201 645.195 94.2376C702.517 34.254 765.958 5.43801 821.972 21.6638Z" stroke="white" stroke-opacity="0.08"/>
<path d="M924.117 77.572C974.159 110.263 995.572 176.626 989.579 257.67C983.587 338.694 950.203 434.267 890.823 525.165C831.442 616.062 757.335 685.032 685.545 723.072C613.738 761.122 544.363 768.176 494.322 735.485C444.28 702.795 422.867 636.432 428.86 555.387C434.852 474.363 468.236 378.79 527.617 287.893C586.997 196.995 661.104 128.026 732.894 89.9853C804.701 51.9358 874.076 44.8812 924.117 77.572Z" stroke="white" stroke-opacity="0.08"/>
<path d="M997.332 153.709C1037.24 200.143 1041.31 269.865 1015.45 345.161C989.598 420.444 933.854 501.198 854.329 569.554C774.805 637.91 686.595 680.892 608.282 695.147C529.957 709.403 461.636 694.911 421.723 648.477C381.811 602.043 377.744 532.321 403.603 457.025C429.457 381.742 485.201 300.988 564.726 232.632C644.25 164.276 732.46 121.293 810.773 107.039C889.098 92.7827 957.419 107.275 997.332 153.709Z" stroke="white" stroke-opacity="0.08"/>
<path d="M1040.21 237.93C1067.22 294.5 1054.81 363.397 1012.76 429.108C970.718 494.811 899.076 557.255 807.791 600.836C716.506 644.417 622.904 660.863 545.377 652.245C467.842 643.627 406.466 609.955 379.458 553.385C352.451 496.814 364.858 427.917 406.908 362.207C448.953 296.503 520.594 234.059 611.879 190.478C703.164 146.897 796.766 130.451 874.293 139.069C951.828 147.688 1013.2 181.359 1040.21 237.93Z" stroke="white" stroke-opacity="0.08"/>
<path d="M1055.72 319.799C1068.53 382.65 1041.53 447.479 987.406 501.497C933.281 555.511 852.067 598.664 756.585 618.122C661.103 637.579 569.478 629.648 498.533 601.121C427.583 572.592 377.373 523.496 364.565 460.644C351.757 397.793 378.751 332.964 432.879 278.946C487.004 224.932 568.219 181.779 663.7 162.321C759.182 142.863 850.807 150.795 921.752 179.322C992.702 207.851 1042.91 256.947 1055.72 319.799Z" stroke="white" stroke-opacity="0.08"/>
<path d="M1049.64 391.8C1048.28 457.385 1009.16 516.028 946.885 557.809C884.617 599.59 799.246 624.479 705.533 622.541C611.82 620.603 527.552 592.206 467.064 547.886C406.575 503.566 369.903 443.356 371.259 377.771C372.616 312.186 411.745 253.543 474.015 211.762C536.284 169.981 621.654 145.092 715.367 147.03C809.08 148.968 893.349 177.365 953.837 221.685C1014.33 266.005 1051 326.215 1049.64 391.8Z" stroke="white" stroke-opacity="0.08"/>
<path d="M1028.93 449.658C1014.46 515.133 965.791 566.589 898.723 596.829C831.656 627.07 746.22 636.077 658.32 616.653C570.419 597.229 496.734 553.06 448.654 497.375C400.574 441.69 378.118 374.517 392.586 309.042C407.055 243.567 455.725 192.111 522.792 161.871C589.86 131.63 675.295 122.623 763.196 142.047C851.096 161.471 924.781 205.64 972.861 261.325C1020.94 317.01 1043.4 384.183 1028.93 449.658Z" stroke="white" stroke-opacity="0.08"/>
<path d="M1000.34 491.95C948.582 618.799 777.145 668.997 617.278 603.765C457.41 538.533 370.03 382.729 421.79 255.879C473.549 129.029 644.986 78.8316 804.853 144.063C964.721 209.295 1052.1 365.1 1000.34 491.95Z" stroke="white" stroke-opacity="0.08"/>
<path d="M969.546 519.33C898.961 640.134 726.153 670.682 583.499 587.329C440.844 503.975 382.614 338.431 453.2 217.627C523.786 96.8238 696.594 66.2751 839.248 149.629C981.903 232.982 1040.13 398.526 969.546 519.33Z" stroke="white" stroke-opacity="0.08"/>
<path d="M940.718 533.653C855.397 648.194 683.676 664.757 557.144 570.503C430.612 476.249 397.322 306.973 482.644 192.432C567.965 77.8916 739.686 61.3285 866.218 155.582C992.75 249.836 1026.04 419.112 940.718 533.653Z" stroke="white" stroke-opacity="0.08"/>
<path d="M916.506 537.205C820.339 646.715 650.809 655.111 537.847 555.912C424.884 456.713 411.305 287.519 507.472 178.009C603.639 68.4993 773.169 60.1034 886.131 159.302C999.094 258.501 1012.67 427.695 916.506 537.205Z" stroke="white" stroke-opacity="0.08"/>
<path d="M898.217 532.151C794.82 638.961 627.772 644.931 525.104 545.543C422.436 446.156 422.979 279.002 526.376 172.192C629.772 65.3822 796.821 59.4124 899.489 158.8C1002.16 258.187 1001.61 425.341 898.217 532.151Z" stroke="white" stroke-opacity="0.08"/>
<path d="M886.091 520.223C778.91 627.404 614.383 636.513 518.604 540.735C422.826 444.957 431.936 280.429 539.117 173.248C646.298 66.067 810.825 56.9576 906.604 152.736C1002.38 248.514 993.272 413.042 886.091 520.223Z" stroke="white" stroke-opacity="0.08"/>
</svg>
