<svg width="106" height="106" viewBox="0 0 106 106" fill="none" xmlns="http://www.w3.org/2000/svg">
<path d="M76.3334 44.0447V44.215C76.3334 46.2217 76.3334 47.2274 75.8504 48.0487C75.3674 48.87 74.4877 49.3577 72.7331 50.3354L70.8827 51.362C72.1567 47.05 72.5837 42.416 72.7401 38.454L72.7634 37.9384L72.7681 37.817C74.2871 38.3443 75.1411 38.7387 75.6731 39.476C76.3334 40.393 76.3334 41.611 76.3334 44.0447ZM29.6667 44.0447V44.215C29.6667 46.2217 29.6667 47.2274 30.1497 48.0487C30.6327 48.87 31.5124 49.3577 33.2671 50.3354L35.1197 51.362C33.8434 47.05 33.4164 42.416 33.2601 38.454L33.2367 37.9384L33.2344 37.817C31.7131 38.3443 30.8591 38.7387 30.3271 39.476C29.6667 40.393 29.6667 41.6133 29.6667 44.0447Z" fill="white"/>
<path fill-rule="evenodd" clip-rule="evenodd" d="M53.0001 29.6667C57.1628 29.6667 60.5904 30.033 63.2131 30.4764C65.8708 30.9244 67.1984 31.1484 68.3091 32.5157C69.4198 33.883 69.3591 35.36 69.2424 38.314C68.8411 48.4617 66.6524 61.134 54.7501 62.254V70.5H58.0868C58.626 70.5003 59.1484 70.6874 59.5653 71.0294C59.9822 71.3714 60.2677 71.8473 60.3734 72.376L60.8168 74.5834H67.0001C67.4642 74.5834 67.9093 74.7677 68.2375 75.0959C68.5657 75.4241 68.7501 75.8692 68.7501 76.3334C68.7501 76.7975 68.5657 77.2426 68.2375 77.5708C67.9093 77.899 67.4642 78.0834 67.0001 78.0834H39.0001C38.536 78.0834 38.0909 77.899 37.7627 77.5708C37.4345 77.2426 37.2501 76.7975 37.2501 76.3334C37.2501 75.8692 37.4345 75.4241 37.7627 75.0959C38.0909 74.7677 38.536 74.5834 39.0001 74.5834H45.1834L45.6268 72.376C45.7325 71.8473 46.018 71.3714 46.4349 71.0294C46.8518 70.6874 47.3742 70.5003 47.9134 70.5H51.2501V62.254C39.3501 61.134 37.1614 48.4594 36.7601 38.314C36.6411 35.36 36.5828 33.8807 37.6934 32.5157C38.8018 31.1484 40.1294 30.9244 42.7871 30.4764C46.163 29.9231 49.5792 29.6522 53.0001 29.6667ZM55.2214 39.4644L54.9928 39.0537C54.1061 37.46 53.6628 36.6667 53.0001 36.6667C52.3374 36.6667 51.8941 37.46 51.0074 39.0537L50.7788 39.4644C50.5268 39.917 50.4008 40.141 50.2048 40.2904C50.0064 40.4397 49.7614 40.4957 49.2714 40.6054L48.8281 40.708C47.1061 41.0977 46.2451 41.2914 46.0398 41.9494C45.8344 42.6097 46.4224 43.2957 47.5961 44.6677L47.8994 45.0224C48.2331 45.412 48.4011 45.6057 48.4758 45.8484C48.5504 46.091 48.5248 46.35 48.4758 46.8704L48.4291 47.344C48.2518 49.1757 48.1631 50.0927 48.6974 50.4987C49.2341 50.9047 50.0414 50.5337 51.6538 49.7917L52.0691 49.6004C52.5288 49.3904 52.7574 49.2854 53.0001 49.2854C53.2428 49.2854 53.4714 49.3904 53.9311 49.6004L54.3464 49.7917C55.9588 50.536 56.7661 50.9047 57.3028 50.4987C57.8394 50.0927 57.7484 49.1757 57.5711 47.344L57.5244 46.8704C57.4754 46.35 57.4498 46.091 57.5244 45.8484C57.5991 45.608 57.7671 45.412 58.1008 45.0224L58.4041 44.6677C59.5778 43.2957 60.1658 42.6097 59.9604 41.9494C59.7551 41.2914 58.8941 41.0977 57.1721 40.708L56.7288 40.6054C56.2388 40.4957 55.9938 40.442 55.7954 40.2904C55.5994 40.141 55.4734 39.917 55.2214 39.4644Z" fill="white"/>
<circle cx="53" cy="53" r="52" stroke="white" stroke-width="2"/>
</svg>
