<svg width="345" height="85" viewBox="0 0 345 85" fill="none" xmlns="http://www.w3.org/2000/svg">
<g filter="url(#filter0_b_1249_128931)">
<mask id="path-1-inside-1_1249_128931" fill="white">
<path fill-rule="evenodd" clip-rule="evenodd" d="M0.0431133 24.9756C0.832945 11.0494 12.3761 0 26.5 0C36.6152 0 45.4068 5.66737 49.8725 14H328C334.627 14 340 19.3726 340 26V29.5998C334.482 34.4562 331 41.5715 331 49.5C331 57.4285 334.482 64.5438 340 69.4002V73C340 79.6274 334.627 85 328 85H92.4002C87.5438 79.4819 80.4285 76 72.5 76C64.5715 76 57.4562 79.4819 52.5998 85H12C5.37258 85 0 79.6274 0 73V26C0 25.6549 0.0145648 25.3133 0.0431133 24.9756Z"/>
</mask>
<path fill-rule="evenodd" clip-rule="evenodd" d="M0.0431133 24.9756C0.832945 11.0494 12.3761 0 26.5 0C36.6152 0 45.4068 5.66737 49.8725 14H328C334.627 14 340 19.3726 340 26V29.5998C334.482 34.4562 331 41.5715 331 49.5C331 57.4285 334.482 64.5438 340 69.4002V73C340 79.6274 334.627 85 328 85H92.4002C87.5438 79.4819 80.4285 76 72.5 76C64.5715 76 57.4562 79.4819 52.5998 85H12C5.37258 85 0 79.6274 0 73V26C0 25.6549 0.0145648 25.3133 0.0431133 24.9756Z" fill="url(#paint0_linear_1249_128931)"/>
<path d="M0.0431133 24.9756L1.03956 25.0598L1.04072 25.046L1.04151 25.0322L0.0431133 24.9756ZM49.8725 14L48.9911 14.4724L49.2739 15H49.8725V14ZM340 29.5998L340.661 30.3505L341 30.0518V29.5998H340ZM340 69.4002H341V68.9482L340.661 68.6495L340 69.4002ZM92.4002 85L91.6495 85.6607L91.9482 86H92.4002V85ZM52.5998 85V86H53.0518L53.3505 85.6607L52.5998 85ZM26.5 -1C11.8428 -1 -0.135595 10.4664 -0.955282 24.919L1.04151 25.0322C1.80149 11.6324 12.9094 1 26.5 1V-1ZM50.7539 13.5276C46.121 4.8831 36.9983 -1 26.5 -1V1C36.2321 1 44.6925 6.45163 48.9911 14.4724L50.7539 13.5276ZM328 13H49.8725V15H328V13ZM341 26C341 18.8203 335.18 13 328 13V15C334.075 15 339 19.9249 339 26H341ZM341 29.5998V26H339V29.5998H341ZM332 49.5C332 41.8708 335.349 35.0251 340.661 30.3505L339.339 28.8491C333.615 33.8873 330 41.2721 330 49.5H332ZM340.661 68.6495C335.349 63.9749 332 57.1292 332 49.5H330C330 57.7279 333.615 65.1127 339.339 70.1509L340.661 68.6495ZM341 73V69.4002H339V73H341ZM328 86C335.18 86 341 80.1797 341 73H339C339 79.0751 334.075 84 328 84V86ZM92.4002 86H328V84H92.4002V86ZM72.5 77C80.1292 77 86.9749 80.3491 91.6495 85.6607L93.1509 84.3393C88.1127 78.6147 80.7279 75 72.5 75V77ZM53.3505 85.6607C58.0251 80.3491 64.8708 77 72.5 77V75C64.2721 75 56.8873 78.6147 51.8491 84.3393L53.3505 85.6607ZM12 86H52.5998V84H12V86ZM-1 73C-1 80.1797 4.82029 86 12 86V84C5.92486 84 1 79.0751 1 73H-1ZM-1 26V73H1V26H-1ZM-0.953332 24.8913C-0.984246 25.257 -1 25.6268 -1 26H1C1 25.6831 1.01338 25.3695 1.03956 25.0598L-0.953332 24.8913Z" fill="#70D0B5" mask="url(#path-1-inside-1_1249_128931)"/>
</g>
<path d="M8.54134 32.0177L8.54153 32.0177L8.54231 32.0039C8.93001 25.168 11.9601 19.0209 15.5358 14.579C17.3226 12.3593 19.2361 10.5777 21.0059 9.35549C22.7929 8.12139 24.3717 7.5 25.5 7.5C35.4237 7.5 44.0496 13.0595 48.4318 21.2362L48.5732 21.5H48.8725H322C326.731 21.5 330.796 24.3571 332.561 28.4417C326.982 33.7266 323.5 41.2071 323.5 49.5C323.5 57.7929 326.982 65.2734 332.561 70.5583C330.796 74.6429 326.731 77.5 322 77.5H94.4095C89.0931 71.3747 81.2488 67.5 72.5 67.5C63.7512 67.5 55.9069 71.3747 50.5905 77.5H20C13.6487 77.5 8.5 72.3513 8.5 66V33C8.5 32.669 8.51397 32.3414 8.54134 32.0177Z" fill="url(#paint1_linear_1249_128931)" stroke="#70D0B5"/>
<mask id="mask0_1249_128931" style="mask-type:alpha" maskUnits="userSpaceOnUse" x="8" y="7" width="326" height="71">
<path d="M8.54134 32.0177L8.54153 32.0177L8.54231 32.0039C8.93001 25.168 11.9601 19.0209 15.5358 14.579C17.3226 12.3593 19.2361 10.5777 21.0059 9.35549C22.7929 8.12139 24.3717 7.5 25.5 7.5C35.4237 7.5 44.0496 13.0595 48.4318 21.2362L48.5732 21.5H48.8725H322C326.731 21.5 330.796 24.3571 332.561 28.4417C326.982 33.7266 323.5 41.2071 323.5 49.5C323.5 57.7929 326.982 65.2734 332.561 70.5583C330.796 74.6429 326.731 77.5 322 77.5H94.4095C89.0931 71.3747 81.2488 67.5 72.5 67.5C63.7512 67.5 55.9069 71.3747 50.5905 77.5H20C13.6487 77.5 8.5 72.3513 8.5 66V33C8.5 32.669 8.51397 32.3414 8.54134 32.0177Z" fill="url(#paint2_linear_1249_128931)" stroke="#70D0B5"/>
</mask>
<g mask="url(#mask0_1249_128931)">
<path d="M3.07159 189.818C-1.37777 184.916 -1.80833 176.604 1.50178 165.55C4.80167 154.531 11.7723 140.956 21.8429 125.721C41.9798 95.2566 74.4462 58.2522 114.473 21.9398C154.499 -14.3725 194.482 -43.0945 226.759 -60.1808C242.901 -68.7259 257.091 -74.347 268.38 -76.5629C279.704 -78.7856 287.936 -77.5517 292.386 -72.6489C296.835 -67.7461 297.266 -59.4345 293.955 -48.3809C290.656 -37.3616 283.685 -23.7863 273.614 -8.55102C253.478 21.9129 221.011 58.9173 180.985 95.2296C140.958 131.542 100.975 160.264 68.6979 177.35C52.5558 185.895 38.3665 191.516 27.0774 193.732C15.7532 195.955 7.52095 194.721 3.07159 189.818Z" stroke="white" stroke-opacity="0.13"/>
<path d="M-11.4497 159.923C-14.9172 154.226 -13.9564 146.056 -8.96614 136.008C-3.989 125.986 4.92922 114.241 17.095 101.523C41.4212 76.0921 78.6504 46.8587 123.018 19.8632C167.386 -7.13235 210.461 -26.7603 244.23 -36.6775C261.118 -41.6372 275.65 -44.1596 286.84 -43.9746C298.059 -43.7891 305.758 -40.8882 309.225 -35.1913C312.693 -29.4945 311.732 -21.3244 306.742 -11.2765C301.764 -1.25481 292.846 10.491 280.68 23.209C256.354 48.6396 219.125 77.8729 174.757 104.868C130.39 131.864 87.314 151.492 53.5454 161.409C36.6575 166.369 22.1254 168.891 10.9358 168.706C-0.283089 168.521 -7.98229 165.62 -11.4497 159.923Z" stroke="white" stroke-opacity="0.13"/>
<path d="M-19.4104 127C-21.6815 120.678 -19.3009 112.9 -12.7758 104.164C-6.26462 95.4454 4.29094 85.8888 18.1004 76.0791C45.7134 56.464 86.2398 35.9048 133.134 19.0648C180.028 2.22473 224.376 -7.69525 258.162 -10.1287C275.058 -11.3457 289.283 -10.6879 299.854 -8.10418C310.448 -5.51486 317.234 -1.02892 319.505 5.29331C321.776 11.6156 319.396 19.3933 312.87 28.1302C306.359 36.8484 295.804 46.405 281.994 56.2146C254.381 75.8297 213.855 96.389 166.961 113.229C120.067 130.069 75.7182 139.989 41.933 142.422C25.0368 143.639 10.8119 142.982 0.240765 140.398C-10.3531 137.809 -17.1392 133.323 -19.4104 127Z" stroke="white" stroke-opacity="0.13"/>
<path d="M-19.6717 92.9256C-20.5746 86.2193 -16.8194 79.1036 -9.00059 71.952C-1.19511 64.8125 10.5692 57.7255 25.4381 51.094C55.1695 37.8339 97.2056 26.4429 144.496 20.0786C191.786 13.7142 235.338 13.5867 267.518 18.5147C283.612 20.9792 296.832 24.7038 306.247 29.5257C315.679 34.3557 321.183 40.2254 322.085 46.9316C322.988 53.6378 319.233 60.7535 311.414 67.9052C303.609 75.0446 291.845 82.1317 276.976 88.7631C247.244 102.023 205.208 113.414 157.918 119.779C110.628 126.143 67.0755 126.271 34.8954 121.343C18.802 118.878 5.58213 115.153 -3.83366 110.332C-13.2655 105.502 -18.7689 99.6318 -19.6717 92.9256Z" stroke="white" stroke-opacity="0.13"/>
<path d="M-11.8381 59.9141C-11.2673 53.1221 -6.25967 46.932 2.53173 41.5768C11.3119 36.2284 23.7731 31.7735 39.0353 28.4267C69.5535 21.7343 111.156 19.4966 156.601 23.3146C202.047 27.1326 242.692 36.28 271.666 47.9705C286.155 53.8168 297.698 60.2884 305.462 67.0267C313.237 73.7736 317.141 80.7124 316.57 87.5044C315.999 94.2964 310.992 100.486 302.2 105.842C293.42 111.19 280.959 115.645 265.697 118.992C235.179 125.684 193.577 127.922 148.131 124.104C102.685 120.286 62.0399 111.138 33.0666 99.4481C18.577 93.6017 7.03404 87.1301 -0.730324 80.3918C-8.50465 73.6449 -12.4089 66.7061 -11.8381 59.9141Z" stroke="white" stroke-opacity="0.13"/>
<path d="M3.65757 30.2307C5.72297 23.6832 11.79 18.6505 21.18 15.2154C30.5617 11.7833 43.1717 9.98203 58.1431 9.84147C88.08 9.56041 127.342 15.9199 168.822 29.0006C210.303 42.0813 246.11 59.3942 270.468 76.7971C282.65 85.5002 291.944 94.2089 297.659 102.402C303.379 110.601 305.46 118.204 303.395 124.751C301.329 131.299 295.262 136.331 285.872 139.766C276.49 143.199 263.88 145 248.909 145.14C218.972 145.421 179.71 139.062 138.23 125.981C96.749 112.901 60.9425 95.5875 36.584 78.1847C24.4024 69.4816 15.1078 60.7729 9.39312 52.5802C3.67341 44.3803 1.59217 36.7781 3.65757 30.2307Z" stroke="white" stroke-opacity="0.13"/>
<path d="M25.594 5.8638C29.0829 -0.106748 35.9596 -3.80477 45.555 -5.29661C55.1453 -6.78766 67.3714 -6.05932 81.4162 -3.25225C109.501 2.36088 144.745 16.2627 180.477 37.1357C216.209 58.0086 245.627 81.8791 264.309 103.584C273.651 114.439 280.289 124.73 283.699 133.815C287.111 142.905 287.266 150.71 283.777 156.681C280.288 162.652 273.411 166.35 263.816 167.841C254.225 169.333 241.999 168.604 227.954 165.797C199.87 160.184 164.626 146.282 128.894 125.409C93.1619 104.536 63.7434 80.6658 45.0621 58.9607C35.7198 48.1062 29.0817 37.815 25.6717 28.7298C22.2598 19.6398 22.1051 11.8344 25.594 5.8638Z" stroke="white" stroke-opacity="0.13"/>
<path d="M52.1401 -11.7448C56.8936 -16.8357 64.2955 -19.0914 73.7188 -18.717C83.14 -18.3427 94.514 -15.3394 107.104 -9.99533C132.279 0.691085 162.213 20.693 190.92 47.488C219.627 74.2831 241.64 102.768 254.031 127.146C260.228 139.337 264.005 150.477 265.026 159.848C266.046 169.222 264.303 176.76 259.55 181.851C254.796 186.942 247.394 189.197 237.971 188.823C228.55 188.449 217.176 185.445 204.586 180.101C179.411 169.415 149.477 149.413 120.77 122.618C92.0629 95.823 70.0499 67.3381 57.6587 42.9598C51.4622 30.7686 47.6846 19.6295 46.6644 10.2578C45.644 0.884125 47.3867 -6.65394 52.1401 -11.7448Z" stroke="white" stroke-opacity="0.13"/>
<path d="M81.1182 -21.8729C86.905 -25.8382 94.538 -26.6203 103.459 -24.5444C112.381 -22.4684 122.537 -17.544 133.293 -10.1783C154.802 4.55114 178.619 28.9813 199.627 59.6286C220.635 90.276 234.829 121.3 240.808 146.672C243.797 159.359 244.726 170.606 243.444 179.674C242.161 188.742 238.677 195.577 232.891 199.543C227.104 203.508 219.471 204.29 210.55 202.214C201.628 200.138 191.472 195.214 180.716 187.848C159.207 173.119 135.389 148.689 114.382 118.041C93.3741 87.3939 79.1797 56.3695 73.2011 30.9982C70.2114 18.3109 69.2825 7.06371 70.5651 -2.00447C71.8476 -11.0722 75.3313 -17.9076 81.1182 -21.8729Z" stroke="white" stroke-opacity="0.13"/>
<path d="M110.312 -24.5713C116.853 -27.2413 124.438 -26.5924 132.598 -23.0449C140.76 -19.4965 149.458 -13.0631 158.171 -4.23881C175.595 13.4079 193.007 40.542 206.255 72.9846C219.502 105.427 226.059 136.993 225.966 161.79C225.92 174.189 224.211 184.871 220.865 193.117C217.52 201.361 212.556 207.132 206.015 209.802C199.474 212.472 191.889 211.823 183.729 208.276C175.567 204.727 166.869 198.294 158.156 189.469C140.732 171.823 123.32 144.689 110.072 112.246C96.8248 79.8033 90.2681 48.238 90.3607 23.4411C90.407 11.0413 92.1159 0.360024 95.462 -7.88599C98.8072 -16.1299 103.771 -21.9013 110.312 -24.5713Z" stroke="white" stroke-opacity="0.13"/>
<path d="M137.748 -20.572C144.745 -21.8621 152.041 -19.8874 159.265 -15.1361C166.493 -10.383 173.621 -2.86693 180.249 6.86192C193.504 26.3184 204.702 54.5446 210.675 86.9285C216.648 119.312 216.257 149.675 210.815 172.579C208.094 184.032 204.116 193.596 199.06 200.614C194.006 207.629 187.895 212.076 180.898 213.366C173.901 214.656 166.605 212.681 159.381 207.93C152.154 203.177 145.025 195.661 138.397 185.932C125.143 166.476 113.945 138.249 107.972 105.865C101.998 73.4815 102.39 43.1185 107.831 20.2147C110.552 8.76203 114.53 -0.801916 119.586 -7.81991C124.64 -14.8351 130.752 -19.2818 137.748 -20.572Z" stroke="white" stroke-opacity="0.13"/>
<path d="M161.905 -11.1187C176.231 -10.9357 189.195 1.50191 198.505 21.8128C207.798 42.0853 213.363 70.0338 212.969 100.848C212.575 131.663 206.298 159.46 196.491 179.489C186.664 199.555 173.387 211.658 159.061 211.475C144.735 211.292 131.771 198.854 122.461 178.543C113.168 158.271 107.603 130.322 107.997 99.5076C108.391 68.693 114.668 40.8957 124.476 20.8671C134.302 0.800716 147.579 -11.3017 161.905 -11.1187Z" stroke="white" stroke-opacity="0.13"/>
<path d="M181.816 2.26968C195.963 5.07521 206.669 18.8659 212.438 39.1699C218.199 59.445 218.983 86.0676 213.397 114.223C207.812 142.378 196.924 166.685 183.86 183.227C170.777 199.793 155.616 208.454 141.469 205.648C127.322 202.843 116.616 189.052 110.847 168.748C105.087 148.473 104.302 121.85 109.888 93.6954C115.473 65.5404 126.361 41.2325 139.425 24.6906C152.508 8.1251 167.669 -0.535849 181.816 2.26968Z" stroke="white" stroke-opacity="0.13"/>
<path d="M197.075 18.0276C210.638 23.2073 219.227 37.8531 222.031 57.5493C224.833 77.2262 221.836 101.823 212.347 126.662C202.858 151.5 188.692 171.832 173.483 184.631C158.26 197.442 142.093 202.634 128.53 197.454C114.966 192.275 106.378 177.629 103.573 157.933C100.771 138.256 103.768 113.659 113.257 88.8202C122.746 63.9816 136.912 43.6501 152.121 30.8512C167.344 18.0397 183.511 12.8479 197.075 18.0276Z" stroke="white" stroke-opacity="0.13"/>
<path d="M207.756 34.7288C220.453 41.9675 227.17 57.067 227.656 75.7701C228.142 94.4624 222.395 116.663 210.27 137.922C198.146 159.182 181.964 175.434 165.628 184.536C149.281 193.643 132.864 195.553 120.166 188.314C107.469 181.076 100.752 165.976 100.265 147.273C99.7794 128.581 105.527 106.38 117.652 85.1207C129.776 63.8608 145.957 47.6087 162.294 38.5071C178.64 29.4003 195.058 27.4901 207.756 34.7288Z" stroke="white" stroke-opacity="0.13"/>
<path d="M214.286 51.222C225.961 60.1764 231.124 75.4313 229.944 92.9483C228.765 110.461 221.244 130.172 207.635 147.91C194.026 165.648 176.933 178.018 160.322 183.695C143.706 189.372 127.631 188.339 115.956 179.385C104.281 170.43 99.118 155.175 100.298 137.659C101.477 120.146 108.999 100.435 122.608 82.697C136.216 64.9592 153.309 52.5888 169.921 46.9123C186.537 41.2343 202.611 42.2676 214.286 51.222Z" stroke="white" stroke-opacity="0.13"/>
<path d="M217.296 66.6819C227.911 77.0124 231.877 92.221 229.647 108.512C227.416 124.803 218.988 142.14 204.871 156.641C190.754 171.142 173.648 180.033 157.42 182.702C141.193 185.371 125.88 181.818 115.265 171.487C104.65 161.157 100.684 145.948 102.914 129.657C105.145 113.366 113.573 96.0288 127.69 81.528C141.807 67.0272 158.913 58.1365 175.141 55.4672C191.368 52.7979 206.681 56.3515 217.296 66.6819Z" stroke="white" stroke-opacity="0.13"/>
<path d="M217.494 80.6187C236.722 103.393 230.069 140.826 202.355 164.218C174.64 187.61 136.614 187.886 117.386 165.112C98.1575 142.338 104.81 104.904 132.525 81.5123C160.24 58.1204 198.265 57.8446 217.494 80.6187Z" stroke="white" stroke-opacity="0.13"/>
<path d="M215.561 92.8411C233.099 117.196 226.345 152.099 200.385 170.787C174.425 189.474 139.176 184.808 121.638 160.453C104.1 136.098 110.854 101.195 136.814 82.5074C162.774 63.8198 198.023 68.4865 215.561 92.8411Z" stroke="white" stroke-opacity="0.13"/>
<path d="M212.091 103.394C228.366 128.87 222.535 161.586 199.189 176.495C175.842 191.405 143.702 182.938 127.427 157.462C111.152 131.986 116.982 99.2701 140.329 84.3604C163.676 69.4507 195.816 77.9174 212.091 103.394Z" stroke="white" stroke-opacity="0.13"/>
<path d="M207.564 112.503C223.094 138.714 219.068 169.541 198.923 181.473C178.779 193.405 149.803 182.126 134.273 155.915C118.742 129.705 122.769 98.8771 142.913 86.9452C163.057 75.0134 192.034 86.2929 207.564 112.503Z" stroke="white" stroke-opacity="0.13"/>
<path d="M202.351 120.515C210.004 133.768 213.501 147.72 212.99 159.549C212.479 171.386 207.967 181.023 199.687 185.802C191.407 190.582 180.803 189.671 170.295 184.195C159.794 178.722 149.457 168.719 141.805 155.466C134.152 142.213 130.655 128.261 131.166 116.432C131.677 104.595 136.189 94.9585 144.469 90.1789C152.749 85.3993 163.352 86.3102 173.86 91.7861C184.362 97.2587 194.699 107.262 202.351 120.515Z" stroke="white" stroke-opacity="0.13"/>
</g>
<circle cx="340.5" cy="49.5" r="4" stroke="#70D0B4"/>
<defs>
<filter id="filter0_b_1249_128931" x="-30" y="-30" width="400" height="145" filterUnits="userSpaceOnUse" color-interpolation-filters="sRGB">
<feFlood flood-opacity="0" result="BackgroundImageFix"/>
<feGaussianBlur in="BackgroundImageFix" stdDeviation="15"/>
<feComposite in2="SourceAlpha" operator="in" result="effect1_backgroundBlur_1249_128931"/>
<feBlend mode="normal" in="SourceGraphic" in2="effect1_backgroundBlur_1249_128931" result="shape"/>
</filter>
<linearGradient id="paint0_linear_1249_128931" x1="11.7978" y1="18.5649" x2="89.3321" y2="193.486" gradientUnits="userSpaceOnUse">
<stop stop-color="white" stop-opacity="0.2"/>
<stop offset="1" stop-color="white" stop-opacity="0"/>
</linearGradient>
<linearGradient id="paint1_linear_1249_128931" x1="170.578" y1="7" x2="170.578" y2="78" gradientUnits="userSpaceOnUse">
<stop stop-color="#70D0B4" stop-opacity="0.85"/>
<stop offset="1" stop-color="#1B3C32" stop-opacity="0.56"/>
</linearGradient>
<linearGradient id="paint2_linear_1249_128931" x1="170.578" y1="7" x2="170.578" y2="78" gradientUnits="userSpaceOnUse">
<stop stop-color="#70D0B4" stop-opacity="0.44"/>
<stop offset="1" stop-color="#1F2826" stop-opacity="0.27"/>
</linearGradient>
</defs>
</svg>
