<svg width="21" height="24" viewBox="0 0 21 24" fill="none" xmlns="http://www.w3.org/2000/svg">
<path fill-rule="evenodd" clip-rule="evenodd" d="M20.5191 5.47721C20.3588 5.31329 12.5038 0.559653 11.5419 0.231816C11.2213 0.0678978 10.4198 -0.0960214 9.93885 0.0678971C9.45793 0.231816 1.122 5.14937 0.801383 5.47721C0.641077 5.64113 0.48077 5.96896 0.320463 6.13288C0.160157 6.46072 0.160156 6.62464 0.160156 12.3618V18.2629L1.2823 18.9185C1.92353 19.2464 2.40445 19.5742 2.40445 19.5742C2.56475 19.5742 10.0992 7.28031 10.0992 7.11639C10.0992 6.95248 8.33579 6.95248 7.85487 7.11639C7.21364 7.28031 6.73272 7.60815 6.41211 7.93599C6.2518 8.09991 5.28996 9.73909 4.00751 11.5422C2.88537 13.3453 1.92353 14.9845 1.92353 14.9845C1.92353 14.9845 1.92353 13.3453 1.92353 11.0504V6.95247L2.08384 6.78856C2.40445 6.46072 10.5801 1.70708 10.9007 1.70708C11.061 1.70708 11.2213 1.70708 13.145 2.85451C13.7862 3.18235 15.5496 4.16586 16.9923 5.14937C18.4351 5.96896 19.7175 6.78856 19.8779 6.95247L20.0382 7.11639V15.6402L16.0305 9.24734C15.8702 8.9195 15.7099 8.59166 15.5496 8.42774C15.5496 8.42774 15.3893 8.75558 14.4274 10.3948C14.2671 10.5587 14.1068 10.8865 14.1068 11.0504L13.9465 11.3783L14.1068 11.5422L14.2671 11.7061C14.2671 11.7061 14.2671 11.87 14.4274 11.87L14.748 12.3618C14.748 12.3618 14.748 12.5257 14.9084 12.5257C15.0687 12.6896 15.229 13.0175 15.229 13.1814C15.229 13.1814 15.229 13.1814 15.229 13.3453L18.5954 18.9185L18.2748 19.0824C18.1145 19.2464 17.9542 19.2464 17.7939 19.2464L13.6259 12.6896L13.4656 12.5257L13.145 13.1814L11.5419 15.8041L14.748 21.0495C14.2671 21.3773 11.5419 23.3443 11.3816 23.3443C11.2213 23.3443 7.53426 20.8855 7.69456 20.7216C7.69456 20.7216 8.81671 18.7546 10.0992 16.4598C11.2213 14.4927 12.6641 12.0339 13.6259 10.3948C14.748 8.42774 15.229 7.44423 15.229 7.44423C15.229 7.44423 14.4274 7.44423 13.4656 7.44423H11.8625L8.17548 13.6731C6.89303 15.968 5.61058 18.0989 4.96935 19.2464C3.84721 19.4103 3.52659 19.7381 3.52659 19.7381L3.36629 20.066L6.2518 21.7051C7.85487 22.6887 9.29762 23.5082 9.61824 23.6722C10.0992 24 10.9007 24 11.2213 24C11.5419 23.8361 19.8779 18.9185 20.3588 18.5907C20.5191 18.4268 20.6794 18.2629 20.8397 17.935L21 17.4433V12.0339V6.62464L20.8397 6.2968C20.8397 5.96896 20.5191 5.64113 20.5191 5.47721Z" fill="white"/>
<path d="M14.4275 6.9541H11.0611L3.20605 20.0676L5.93127 21.7068L14.4275 6.9541Z" fill="white"/>
<path d="M5.93134 8.26192C6.73287 6.95057 8.97716 6.95057 9.939 7.11449L2.24429 19.7362C1.92368 19.5723 1.28245 19.2445 0.801532 18.9166C0.160306 18.5888 0 18.5888 0 18.097V17.4414C1.76337 14.8187 5.12981 9.57327 5.93134 8.26192Z" fill="white"/>
</svg>
