<svg width="29" height="24" viewBox="0 0 29 24" fill="none" xmlns="http://www.w3.org/2000/svg">
<rect x="7.18408" y="19.7646" width="1.67423" height="3.93936" transform="rotate(-135 7.18408 19.7646)" fill="#AAB2CC"/>
<path d="M8.15876 12.6616L10.2479 14.3329L10.7702 14.8552L11.4318 15.5167L12.9638 17.4666L12.4764 17.9541L10.5265 16.422L9.86491 15.7605L9.34262 15.2382L7.67129 13.149L8.15876 12.6616Z" fill="#AAB2CC"/>
<rect x="22.022" y="18.5806" width="1.67423" height="3.93936" transform="rotate(135 22.022 18.5806)" fill="#AAB2CC"/>
<rect x="6.49268" y="5.14062" width="1.28029" height="13.6893" transform="rotate(-45 6.49268 5.14062)" fill="#AAB2CC"/>
<path fill-rule="evenodd" clip-rule="evenodd" d="M12.5791 12.2803L10.9443 13.9151L11.8496 14.8204L13.4844 13.1856L12.5791 12.2803ZM15.4343 11.2358L16.6895 9.98052L21.0768 5.59329C21.3268 5.34329 21.3268 4.93798 21.0768 4.68798C20.8268 4.43799 20.4214 4.43799 20.1715 4.68798L15.7842 9.07522L14.529 10.3305L15.4343 11.2358Z" fill="#AAB2CC"/>
<path d="M14.9189 17.6059L16.5902 15.5167L17.1125 14.9944L17.7741 14.3329L19.7239 12.8008L20.2114 13.2883L18.6794 15.2382L18.0178 15.8997L17.4955 16.422L15.4063 18.0934L14.9189 17.6059Z" fill="#AAB2CC"/>
</svg>
