<svg width="21" height="21" viewBox="0 0 21 21" fill="none" xmlns="http://www.w3.org/2000/svg">
<g filter="url(#filter0_b_1301_4372)">
<circle cx="10.5" cy="10.5" r="10.5" fill="white" fill-opacity="0.2"/>
<circle cx="10.5" cy="10.5" r="10" stroke="white" stroke-opacity="0.6"/>
</g>
<path d="M5.60934 16.2969C5.33146 16.5748 4.88094 16.5748 4.60306 16.2969V16.2969C4.32519 16.019 4.32519 15.5685 4.60306 15.2906L6.46764 13.4261L7.47392 14.4323L5.60934 16.2969Z" fill="white"/>
<path d="M5.93497 10.7623L7.71076 12.1829L8.1547 12.6269L8.71703 13.1892L10.0193 14.8466L9.60493 15.261L7.94753 13.9587L7.3852 13.3964L6.94125 12.9524L5.52062 11.1766L5.93497 10.7623Z" fill="white"/>
<path d="M17.2154 15.2906C17.4932 15.5684 17.4932 16.019 17.2154 16.2968V16.2968C16.9375 16.5747 16.487 16.5747 16.2091 16.2968L14.3445 14.4323L15.3508 13.426L17.2154 15.2906Z" fill="white"/>
<path d="M4.90331 4.75438C4.69082 4.54189 4.69081 4.19737 4.90331 3.98488V3.98488C5.1158 3.77238 5.46032 3.77238 5.67282 3.98488L13.5159 11.8279L12.7464 12.5974L4.90331 4.75438Z" fill="white"/>
<path fill-rule="evenodd" clip-rule="evenodd" d="M9.69228 10.4381L8.30273 11.8276L9.07224 12.5971L10.4618 11.2076L9.69228 10.4381ZM12.1192 9.55018L13.1861 8.48322L16.9153 4.75407C17.1278 4.54158 17.1278 4.19706 16.9153 3.98457C16.7028 3.77207 16.3583 3.77207 16.1458 3.98457L12.4166 7.71371L11.3497 8.78067L12.1192 9.55018Z" fill="white"/>
<path d="M11.681 14.9649L13.1016 13.1891L13.5456 12.7452L14.1079 12.1829L15.7653 10.8806L16.1797 11.295L14.8774 12.9524L14.3151 13.5147L13.8711 13.9587L12.0953 15.3793L11.681 14.9649Z" fill="white"/>
<defs>
<filter id="filter0_b_1301_4372" x="-4" y="-4" width="29" height="29" filterUnits="userSpaceOnUse" color-interpolation-filters="sRGB">
<feFlood flood-opacity="0" result="BackgroundImageFix"/>
<feGaussianBlur in="BackgroundImageFix" stdDeviation="2"/>
<feComposite in2="SourceAlpha" operator="in" result="effect1_backgroundBlur_1301_4372"/>
<feBlend mode="normal" in="SourceGraphic" in2="effect1_backgroundBlur_1301_4372" result="shape"/>
</filter>
</defs>
</svg>
