<svg width="24" height="21" viewBox="0 0 24 21" fill="none" xmlns="http://www.w3.org/2000/svg">
<path d="M0.569248 10.2L5.84816 0.5H17.9927L23.4269 10.2L17.9927 19.9H5.84816L0.569248 10.2Z" fill="url(#paint0_linear_601_93665)" stroke="#AAB2CC"/>
<rect x="6.1062" y="16.7998" width="1.42309" height="3.34845" transform="rotate(-135 6.1062 16.7998)" fill="#AAB2CC"/>
<path d="M6.93497 10.7621L8.71076 12.1827L9.1547 12.6266L9.71703 13.189L11.0193 14.8464L10.6049 15.2607L8.94753 13.9585L8.3852 13.3961L7.94125 12.9522L6.52062 11.1764L6.93497 10.7621Z" fill="#AAB2CC"/>
<rect x="18.7185" y="15.7935" width="1.42309" height="3.34845" transform="rotate(135 18.7185 15.7935)" fill="#AAB2CC"/>
<rect x="5.51855" y="4.36963" width="1.08825" height="11.6359" transform="rotate(-45 5.51855 4.36963)" fill="#AAB2CC"/>
<path fill-rule="evenodd" clip-rule="evenodd" d="M10.6923 10.4381L9.30273 11.8276L10.0722 12.5971L11.4618 11.2076L10.6923 10.4381ZM13.1192 9.55017L14.1861 8.48322L17.9153 4.75407C18.1278 4.54158 18.1278 4.19706 17.9153 3.98457C17.7028 3.77207 17.3583 3.77207 17.1458 3.98457L13.4166 7.71371L12.3497 8.78067L13.1192 9.55017Z" fill="#AAB2CC"/>
<path d="M12.681 14.9647L14.1016 13.1889L14.5456 12.745L15.1079 12.1826L16.7653 10.8804L17.1797 11.2947L15.8774 12.9521L15.3151 13.5145L14.8711 13.9584L13.0953 15.379L12.681 14.9647Z" fill="#AAB2CC"/>
<defs>
<linearGradient id="paint0_linear_601_93665" x1="12.0816" y1="-8.58095" x2="12.0014" y2="20.4" gradientUnits="userSpaceOnUse">
<stop stop-color="#747B8A"/>
<stop offset="1" stop-color="#1E1E1E"/>
</linearGradient>
</defs>
</svg>
