<svg width="24" height="21" viewBox="0 0 24 21" fill="none" xmlns="http://www.w3.org/2000/svg">
<path d="M0.569248 10.2L5.84816 0.5H17.9927L23.4269 10.2L17.9927 19.9H5.84816L0.569248 10.2Z" fill="url(#paint0_linear_601_93641)" stroke="#F9D667"/>
<path d="M6.60934 16.2967C6.33146 16.5745 5.88094 16.5745 5.60306 16.2967C5.32519 16.0188 5.32519 15.5683 5.60306 15.2904L7.46764 13.4258L8.47392 14.4321L6.60934 16.2967Z" fill="#F9D667"/>
<path d="M6.93497 10.7621L8.71076 12.1827L9.1547 12.6266L9.71703 13.189L11.0193 14.8464L10.6049 15.2607L8.94753 13.9585L8.3852 13.3961L7.94125 12.9522L6.52062 11.1764L6.93497 10.7621Z" fill="#F9D667"/>
<path d="M18.2154 15.2903C18.4932 15.5682 18.4932 16.0187 18.2154 16.2966C17.9375 16.5745 17.487 16.5745 17.2091 16.2966L15.3445 14.432L16.3508 13.4257L18.2154 15.2903Z" fill="#F9D667"/>
<path d="M5.90331 4.75438C5.69082 4.54189 5.69081 4.19737 5.90331 3.98488C6.1158 3.77238 6.46032 3.77238 6.67282 3.98488L14.5159 11.8279L13.7464 12.5974L5.90331 4.75438Z" fill="#F9D667"/>
<path fill-rule="evenodd" clip-rule="evenodd" d="M10.6923 10.4381L9.30273 11.8276L10.0722 12.5971L11.4618 11.2076L10.6923 10.4381ZM13.1192 9.55017L14.1861 8.48322L17.9153 4.75407C18.1278 4.54158 18.1278 4.19706 17.9153 3.98457C17.7028 3.77207 17.3583 3.77207 17.1458 3.98457L13.4166 7.71371L12.3497 8.78067L13.1192 9.55017Z" fill="#F9D667"/>
<path d="M12.681 14.9647L14.1016 13.1889L14.5456 12.745L15.1079 12.1826L16.7653 10.8804L17.1797 11.2947L15.8774 12.9521L15.3151 13.5145L14.8711 13.9584L13.0953 15.379L12.681 14.9647Z" fill="#F9D667"/>
<defs>
<linearGradient id="paint0_linear_601_93641" x1="12.0816" y1="-8.58095" x2="12.0014" y2="20.4" gradientUnits="userSpaceOnUse">
<stop stop-color="#A27B00"/>
<stop offset="1" stop-color="#1E1E1E"/>
</linearGradient>
</defs>
</svg>
