<svg width="20" height="17" viewBox="0 0 20 17" fill="none" xmlns="http://www.w3.org/2000/svg">
<path d="M0.569248 8.5L4.92299 0.5H14.9451L19.4269 8.5L14.9451 16.5H4.92299L0.569248 8.5Z" fill="url(#paint0_linear_660_77867)" stroke="#F9D667"/>
<path d="M9.3833 6.75279L10.6121 5.52396L12.9727 7.88457C13.0888 8.00066 13.0896 8.18806 12.9745 8.30319L11.9541 9.32358L9.3833 6.75279Z" fill="#F9D667"/>
<path d="M7.0376 11.6694L9.29888 9.40813L10.1621 10.2713L8.37336 12.06L7.0376 11.6694Z" fill="#F9D667"/>
<path d="M12.1692 3.9669L9.83414 6.302C9.69005 6.4461 9.69102 6.68068 9.83631 6.82597L10.2693 7.25896C10.4146 7.40425 10.6492 7.40523 10.7933 7.26113L13.1284 4.92603C13.2725 4.78194 13.2715 4.54735 13.1262 4.40206L12.6932 3.96907C12.5479 3.82378 12.3133 3.82281 12.1692 3.9669Z" fill="#F9D667"/>
<path d="M7.43377 7.9045L7.4333 7.90497C7.22717 8.11111 7.22856 8.44671 7.43641 8.65456L7.43688 8.65503C7.64473 8.86288 7.98033 8.86427 8.18647 8.65814L8.18693 8.65767C8.39307 8.45153 8.39168 8.11593 8.18383 7.90808L8.18336 7.90761C7.97551 7.69976 7.63991 7.69837 7.43377 7.9045Z" fill="#F9D667"/>
<path d="M9.40301 5.93521L9.40254 5.93568C9.1964 6.14181 9.19779 6.47742 9.40565 6.68527L9.40611 6.68574C9.61397 6.89359 9.94957 6.89498 10.1557 6.68884L10.1562 6.68838C10.3623 6.48224 10.3609 6.14664 10.1531 5.93879L10.1526 5.93832C9.94475 5.73047 9.60914 5.72908 9.40301 5.93521Z" fill="#F9D667"/>
<path d="M11.6792 6.09428L11.3858 6.38768C11.2876 6.48588 11.2883 6.64575 11.3873 6.74476C11.4863 6.84378 11.6462 6.84444 11.7444 6.74624L12.0378 6.45285C12.136 6.35465 12.1353 6.19478 12.0363 6.09576C11.9373 5.99675 11.7774 5.99609 11.6792 6.09428Z" fill="#F9D667"/>
<path d="M6.64818 9.43071L6.3252 9.10772C6.30928 9.09181 6.28411 9.0917 6.26832 9.10749L5.57793 9.32978L4.02832 10.8794C4.01253 10.8952 4.01264 10.9204 4.02855 10.9363L5.06539 11.9731C5.0813 11.989 5.10648 11.9891 5.12226 11.9733L6.37384 10.7218C6.55628 10.5393 6.85369 10.5405 7.03766 10.7245L7.12519 10.812C7.27966 10.9665 7.28069 11.2154 7.1275 11.3686L6.92973 11.5664C6.87217 11.624 6.87256 11.7181 6.9306 11.7762C6.98864 11.8342 7.08281 11.8346 7.14038 11.7771L7.58697 11.3305C7.60275 11.3147 7.62793 11.3148 7.64384 11.3307L7.69252 11.3794C7.70844 11.3953 7.73361 11.3954 7.7494 11.3796L11.2702 7.85886C11.2859 7.84307 11.2858 7.8179 11.2699 7.80199L9.83052 6.36259C9.8146 6.34667 9.78943 6.34657 9.77365 6.36235L6.70459 9.43141C6.68881 9.44719 6.66363 9.44709 6.64772 9.43117L6.64818 9.43071Z" fill="#F9D667"/>
<path d="M9.50977 9.61923L10.0897 10.1992C10.3626 10.4721 10.8036 10.4739 11.0743 10.2033L11.954 9.32356L10.8797 8.24928L9.50977 9.61923ZM11.3793 8.99487C11.5754 9.191 11.5767 9.50799 11.3822 9.70251L10.9635 10.1212C10.7689 10.3158 10.452 10.3144 10.2558 10.1183L10.0854 9.94793C9.8893 9.75179 9.88799 9.4348 10.0825 9.24029L10.5012 8.82155C10.6958 8.62703 11.0127 8.62835 11.2089 8.82448L11.3793 8.99487Z" fill="#F9D667"/>
<path d="M10.1852 14.9055L10.441 14.6497C10.6411 14.4496 10.6929 14.145 10.5716 13.8871L9.2962 11.1856C9.09586 10.7615 8.53745 10.6608 8.20785 10.9904C8.20785 10.9904 7.88863 11.2404 8.03998 11.6545L9.0596 14.6118C9.20475 15.1051 9.82401 15.2667 10.1852 14.9055Z" fill="#F9D667"/>
<path d="M12.5513 4.08363L11.9636 4.67135C11.7887 4.84621 11.7899 5.13089 11.9662 5.3072L12.4034 5.7444C12.5797 5.92072 12.8644 5.9219 13.0393 5.74704L13.627 5.15932C13.8018 4.98446 13.8007 4.69978 13.6244 4.52347L13.1872 4.08627C13.0108 3.90995 12.7262 3.90877 12.5513 4.08363Z" fill="#F9D667"/>
<path d="M13.6445 4.66619L14.9533 3.73184C15.1629 3.58214 15.1864 3.27876 15.0029 3.09527L14.6186 2.71096C14.4337 2.52607 14.1284 2.55137 13.9797 2.76379L13.0552 4.08245C12.9388 4.24839 12.9594 4.47502 13.104 4.61966C13.2496 4.76524 13.4781 4.78484 13.6445 4.66619Z" fill="#F9D667"/>
<defs>
<linearGradient id="paint0_linear_660_77867" x1="10.068" y1="-7.15079" x2="10.0011" y2="17" gradientUnits="userSpaceOnUse">
<stop stop-color="#A27B00"/>
<stop offset="1" stop-color="#1E1E1E"/>
</linearGradient>
</defs>
</svg>
