<svg width="92" height="92" viewBox="0 0 92 92" fill="none" xmlns="http://www.w3.org/2000/svg">
<path d="M73.1583 63.8417L46 91L18.8417 63.8417M83.8857 53.1143L91 46L46 1L1 46L7.01317 52.0132" stroke="#70D0B5"/>
<path d="M45.342 49.8887L46.1874 53.1289L47.227 49.7188C47.6356 48.3718 48.7156 47.3362 50.0789 46.9843L53.1248 46.1915L49.7633 45.164C48.5417 44.7918 47.583 43.8331 47.2108 42.6115L46.1834 39.25L45.3258 42.5508C45.0103 43.7563 44.0961 44.7109 42.9068 45.075L39.25 46.1915L42.4902 47.0369C43.8857 47.401 44.9779 48.4932 45.342 49.8887Z" fill="#70D0B5"/>
<path d="M45.342 49.8887L46.1874 53.1289L47.227 49.7188C47.6356 48.3718 48.7156 47.3362 50.0789 46.9843L53.1248 46.1915L49.7633 45.164C48.5417 44.7918 47.583 43.8331 47.2108 42.6115L46.1834 39.25L45.3258 42.5508C45.0103 43.7563 44.0961 44.7109 42.9068 45.075L39.25 46.1915L42.4902 47.0369C43.8857 47.401 44.9779 48.4932 45.342 49.8887Z" fill="#70D0B5"/>
<path d="M11.6322 60.6797L12.2732 63.1364L13.0614 60.5508C13.3712 59.5295 14.1901 58.7443 15.2237 58.4775L17.5332 57.8764L14.9845 57.0973C14.0582 56.8152 13.3313 56.0883 13.0492 55.162L12.2701 52.6133L11.6199 55.116C11.3807 56.03 10.6875 56.7538 9.78581 57.0298L7.01318 57.8764L9.4699 58.5174C10.528 58.7934 11.3561 59.6215 11.6322 60.6797Z" fill="#70D0B5"/>
<path d="M11.6322 60.6797L12.2732 63.1364L13.0614 60.5508C13.3712 59.5295 14.1901 58.7443 15.2237 58.4775L17.5332 57.8764L14.9845 57.0973C14.0582 56.8152 13.3313 56.0883 13.0492 55.162L12.2701 52.6133L11.6199 55.116C11.3807 56.03 10.6875 56.7538 9.78581 57.0298L7.01318 57.8764L9.4699 58.5174C10.528 58.7934 11.3561 59.6215 11.6322 60.6797Z" fill="#70D0B5"/>
<path d="M77.7772 60.6797L78.4182 63.1364L79.2064 60.5508C79.5162 59.5295 80.3351 58.7443 81.3687 58.4775L83.6782 57.8764L81.1295 57.0973C80.2032 56.8152 79.4763 56.0883 79.1942 55.162L78.4151 52.6133L77.7649 55.116C77.5257 56.03 76.8325 56.7538 75.9308 57.0298L73.1582 57.8764L75.6149 58.5174C76.6731 58.7934 77.5012 59.6215 77.7772 60.6797Z" fill="#70D0B5"/>
<path d="M77.7772 60.6797L78.4182 63.1364L79.2064 60.5508C79.5162 59.5295 80.3351 58.7443 81.3687 58.4775L83.6782 57.8764L81.1295 57.0973C80.2032 56.8152 79.4763 56.0883 79.1942 55.162L78.4151 52.6133L77.7649 55.116C77.5257 56.03 76.8325 56.7538 75.9308 57.0298L73.1582 57.8764L75.6149 58.5174C76.6731 58.7934 77.5012 59.6215 77.7772 60.6797Z" fill="#70D0B5"/>
<path d="M25.7214 74.3984H65.2206L67.7526 79.6412H23.1895L25.7214 74.3984Z" fill="#70D0B5"/>
<path fill-rule="evenodd" clip-rule="evenodd" d="M40.5254 23.0888V19.9565L46.0002 14.5L46.1135 14.6133L46.2181 14.5007L51.9414 19.9553L51.9414 23.0896L46.9476 18.3302L46.3016 17.6345L46.2594 17.6743L46.2181 17.635L45.6271 18.2714L40.5254 23.0888ZM40.5254 27.1183V30.2537L46.3052 24.9799L51.9414 30.4764L51.9414 27.1191L46.9476 22.3598L46.3015 21.664L46.2594 21.7038L46.2181 21.6645L45.6271 22.3009L40.5254 27.1183Z" fill="#70D0B5"/>
<path fill-rule="evenodd" clip-rule="evenodd" d="M55.5957 20.1068L60.358 48.0712L54.4038 52.0682V19.2129L55.5957 20.1068ZM57.6783 21.6688L62.1424 47.8819L66.5526 49.9697L58.8809 22.5707L57.6783 21.6688ZM66.3392 51.85L62.0431 49.8163L58.9172 70.4753H61.1194C62.6919 65.395 63.2839 63.1252 63.9904 60.4167C64.5365 58.3233 65.1509 55.9678 66.3392 51.85ZM57.1059 70.4753L60.1483 50.3689L54.4038 54.2251V70.4753H57.1059Z" fill="#70D0B5"/>
<path fill-rule="evenodd" clip-rule="evenodd" d="M36.7073 20.1066L31.945 48.0712L37.8989 52.068V19.2129L36.7073 20.1066ZM34.6247 21.6685L30.1606 47.8819L25.7501 49.9699L33.4219 22.5707L34.6247 21.6685ZM25.9636 51.8502L30.2599 49.8163L33.3859 70.4753H31.1833C29.6109 65.395 29.0188 63.1252 28.3123 60.4167C27.7662 58.3233 27.1518 55.9678 25.9636 51.8502ZM35.1971 70.4753L32.1547 50.3689L37.8989 54.2249V70.4753H35.1971Z" fill="#70D0B5"/>
</svg>
