<svg width="24" height="24" viewBox="0 0 24 24" fill="none" xmlns="http://www.w3.org/2000/svg">
<path fill-rule="evenodd" clip-rule="evenodd" d="M21.8824 3.88235C21.8824 6.02652 20.1442 7.76471 18 7.76471C16.9113 7.76471 15.9273 7.31662 15.2224 6.59481L9.82689 9.13956C9.86342 9.38184 9.88235 9.62988 9.88235 9.88235C9.88235 10.2993 9.83071 10.7042 9.73346 11.091L13.8217 13.6939C14.9021 12.6455 16.3756 12 18 12C21.3137 12 24 14.6863 24 18C24 21.3137 21.3137 24 18 24C14.6863 24 12 21.3137 12 18C12 17.3929 12.0902 16.8069 12.2578 16.2547L8.15044 13.6396C7.28705 14.3778 6.16617 14.8235 4.94118 14.8235C2.21224 14.8235 0 12.6113 0 9.88235C0 7.15342 2.21224 4.94118 4.94118 4.94118C6.33687 4.94118 7.59742 5.51984 8.49598 6.45035L14.1185 3.79849C14.1632 1.69305 15.8839 0 18 0C20.1442 0 21.8824 1.73819 21.8824 3.88235Z" fill="#F9D667"/>
</svg>
