<svg width="93" height="90" viewBox="0 0 93 90" fill="none" xmlns="http://www.w3.org/2000/svg">
<circle cx="46.5001" cy="45.0001" r="39.7647" stroke="#F9D667" stroke-width="2"/>
<rect x="1.44141" y="48.6475" width="90.1176" height="5.41176" fill="black" stroke="#F9D667" stroke-width="2"/>
<rect x="3.61768" y="44.4707" width="85.7647" height="2.11765" fill="#F9D667"/>
<rect x="3.61768" y="56.1172" width="85.7647" height="2.11765" fill="#F9D667"/>
<rect x="44.353" y="49.2061" width="4.29412" height="4.29412" fill="#F9D667" stroke="black"/>
<rect x="32.7061" y="49.2061" width="4.29412" height="4.29412" fill="#F9D667" stroke="black"/>
<rect x="56" y="49.2061" width="4.29412" height="4.29412" fill="#F9D667" stroke="black"/>
<mask id="path-8-inside-1_635_110648" fill="white">
<path fill-rule="evenodd" clip-rule="evenodd" d="M76.1535 62.4702H16.8467C22.8334 72.6098 33.8725 79.4114 46.5001 79.4114C59.1277 79.4114 70.1668 72.6098 76.1535 62.4702ZM80.5847 40.235H12.4155C14.7356 23.4849 29.1117 10.5879 46.5001 10.5879C63.8885 10.5879 78.2646 23.4849 80.5847 40.235Z"/>
</mask>
<path d="M76.1535 62.4702L77.0146 62.9787L77.9052 61.4702H76.1535V62.4702ZM16.8467 62.4702V61.4702H15.095L15.9856 62.9787L16.8467 62.4702ZM12.4155 40.235L11.425 40.0978L11.2675 41.235H12.4155V40.235ZM80.5847 40.235V41.235H81.7327L81.5752 40.0978L80.5847 40.235ZM76.1535 61.4702H16.8467V63.4702H76.1535V61.4702ZM46.5001 78.4114C34.2406 78.4114 23.5221 71.8093 17.7078 61.9618L15.9856 62.9787C22.1448 73.4103 33.5043 80.4114 46.5001 80.4114V78.4114ZM75.2924 61.9618C69.4781 71.8093 58.7595 78.4114 46.5001 78.4114V80.4114C59.4959 80.4114 70.8554 73.4103 77.0146 62.9787L75.2924 61.9618ZM12.4155 41.235H80.5847V39.235H12.4155V41.235ZM13.4061 40.3721C15.6585 24.1098 29.6178 11.5879 46.5001 11.5879V9.58789C28.6056 9.58789 13.8126 22.86 11.425 40.0978L13.4061 40.3721ZM46.5001 11.5879C63.3824 11.5879 77.3416 24.1098 79.5941 40.3721L81.5752 40.0978C79.1876 22.86 64.3946 9.58789 46.5001 9.58789V11.5879Z" fill="#F9D667" mask="url(#path-8-inside-1_635_110648)"/>
<mask id="mask0_635_110648" style="mask-type:alpha" maskUnits="userSpaceOnUse" x="5" y="3" width="83" height="84">
<path fill-rule="evenodd" clip-rule="evenodd" d="M82.1103 65.6469H10.89C18.0159 77.9104 31.2951 86.1559 46.5002 86.1559C61.7053 86.1559 74.9845 77.9104 82.1103 65.6469ZM87.2475 39.1763H5.75293C8.58173 19.2043 25.7471 3.84375 46.5002 3.84375C67.2532 3.84375 84.4187 19.2043 87.2475 39.1763Z" fill="#D9D9D9"/>
</mask>
<g mask="url(#mask0_635_110648)">
<path d="M62.9998 36.2001C62.9998 46.8364 55.652 45.4729 46.588 45.4729C37.5241 45.4729 30.1763 46.8364 30.1763 36.2001C30.1763 25.5638 37.5241 16.9414 46.588 16.9414C55.652 16.9414 62.9998 25.5638 62.9998 36.2001Z" fill="white"/>
<path d="M32.2941 38.3304C32.2941 30.8456 38.6938 31.8051 46.5882 31.8051C54.4826 31.8051 60.8823 30.8456 60.8823 38.3304C60.8823 45.8152 54.4826 51.8828 46.5882 51.8828C38.6938 51.8828 32.2941 45.8152 32.2941 38.3304Z" fill="white"/>
<path fill-rule="evenodd" clip-rule="evenodd" d="M36.6511 28.5618C36.15 27.7632 34.0956 25.9743 29.8865 25.2076C25.6775 24.441 15.2718 25.6868 10.595 26.4055C9.63155 26.5536 9.91033 27.046 10.5755 27.5626C19.4264 26.4731 25.5132 26.8656 29.685 27.9808C32.9557 28.8551 35.0766 30.1834 36.4062 31.6058L36.6511 28.5618ZM36.2088 34.0598L35.8629 34.2429C35.1205 32.8398 33.3263 31.0245 29.1684 29.9129C26.0339 29.075 21.5874 28.648 15.3264 29.1021C16.0565 29.2467 16.7205 29.4926 17.109 29.9993C17.8381 30.95 18.4094 31.8169 18.9342 32.6132C19.6825 33.7488 20.3363 34.7409 21.2184 35.6282L23.5813 34.6287L22.1581 36.4585C22.6444 36.835 23.2004 37.1922 23.8567 37.5338L25.5773 34.7378V38.3718C27.948 39.0186 33.1994 38.3811 35.8995 37.9054L36.2088 34.0598Z" fill="white"/>
<path fill-rule="evenodd" clip-rule="evenodd" d="M57.4959 28.5618C57.9969 27.7632 60.0514 25.9743 64.2604 25.2076C68.4695 24.441 78.8752 25.6868 83.5519 26.4055C84.5154 26.5536 84.2366 27.046 83.5715 27.5626C74.7206 26.4731 68.6338 26.8656 64.462 27.9808C61.1913 28.8551 59.0704 30.1834 57.7407 31.6058L57.4959 28.5618ZM57.9381 34.0598L58.284 34.2429C59.0265 32.8398 60.8206 31.0245 64.9785 29.9129C68.113 29.075 72.5596 28.648 78.8206 29.1021C78.0904 29.2467 77.4265 29.4926 77.0379 29.9993C76.3088 30.95 75.7376 31.8169 75.2128 32.6132C74.4645 33.7488 73.8107 34.7409 72.9286 35.6282L70.5657 34.6287L71.9889 36.4585C71.5025 36.835 70.9466 37.1922 70.2903 37.5338L68.5697 34.7378V38.3718C66.1989 39.0186 60.9476 38.3811 58.2475 37.9054L57.9381 34.0598Z" fill="white"/>
<path d="M50.2939 34.9413C50.2939 32.6023 52.1902 30.7061 54.5292 30.7061V30.7061C56.8683 30.7061 58.7645 32.6023 58.7645 34.9413V34.9413H50.2939V34.9413Z" fill="#1E1E1E"/>
<path d="M42.8823 34.9415C42.8823 37.2806 40.9861 39.1768 38.647 39.1768V39.1768C36.3079 39.1768 34.4117 37.2806 34.4117 34.9415V34.9415H42.8823V34.9415Z" fill="#1E1E1E"/>
<path d="M34.4116 34.9413C34.4116 32.6023 36.3078 30.7061 38.6469 30.7061V30.7061C40.986 30.7061 42.8822 32.6023 42.8822 34.9413V34.9413H34.4116V34.9413Z" fill="#1E1E1E"/>
<path d="M58.7646 34.9415C58.7646 37.2806 56.8684 39.1768 54.5294 39.1768V39.1768C52.1903 39.1768 50.2941 37.2806 50.2941 34.9415V34.9415H58.7646V34.9415Z" fill="#1E1E1E"/>
<ellipse cx="48.0881" cy="39.177" rx="1.05882" ry="1.05882" fill="#1E1E1E"/>
<ellipse cx="44.9118" cy="39.177" rx="1.05882" ry="1.05882" fill="#1E1E1E"/>
<path fill-rule="evenodd" clip-rule="evenodd" d="M42.8109 44.0088C42.8868 43.5903 43.203 43.333 43.5171 43.4341C44.7057 43.8167 45.6069 43.9796 46.4956 43.9701C47.3879 43.9605 48.2938 43.7769 49.4972 43.4299C49.813 43.3389 50.1245 43.6062 50.1928 44.027C50.2612 44.4479 50.0606 44.8629 49.7447 44.9539C48.5108 45.3097 47.5147 45.5185 46.505 45.5293C45.4918 45.5402 44.4911 45.3517 43.2423 44.9498C42.9282 44.8487 42.735 44.4274 42.8109 44.0088Z" fill="#1E1E1E"/>
<path fill-rule="evenodd" clip-rule="evenodd" d="M52.4116 26.9999C52.4116 27.2923 52.1049 27.5293 51.7265 27.5293L41.4497 27.5293C41.0713 27.5293 40.7646 27.2923 40.7646 26.9999C40.7646 26.7075 41.0713 26.4705 41.4497 26.4705L51.7265 26.4705C52.1049 26.4705 52.4116 26.7075 52.4116 26.9999Z" fill="#1E1E1E"/>
<path fill-rule="evenodd" clip-rule="evenodd" d="M49.2354 23.8241C49.2354 24.1165 48.8967 24.3535 48.479 24.3535L44.6975 24.3535C44.2798 24.3535 43.9412 24.1165 43.9412 23.8241C43.9412 23.5317 44.2798 23.2947 44.6975 23.2947L48.479 23.2947C48.8967 23.2947 49.2354 23.5317 49.2354 23.8241Z" fill="#1E1E1E"/>
<ellipse cx="54.9706" cy="34.4125" rx="1.58824" ry="1.58824" fill="white"/>
<ellipse cx="38.0296" cy="34.4125" rx="1.58823" ry="1.58824" fill="white"/>
<circle cx="40.1471" cy="36.5294" r="0.529411" fill="white"/>
<circle cx="52.8531" cy="36.5294" r="0.529411" fill="white"/>
</g>
</svg>
