<svg width="35" height="38" viewBox="0 0 35 38" fill="none" xmlns="http://www.w3.org/2000/svg">
<path d="M23.3769 7.80908C20.632 7.21171 17.8716 6.97209 15.0737 7.33912C11.7408 7.77702 8.54462 8.71019 5.42707 9.93277C5.15702 10.0391 4.88184 10.1344 4.58786 10.2424C5.77403 4.65434 11.3203 0.0407729 17.7571 0.000273437C24.5015 -0.0419135 30.0034 4.80368 31.1289 10.2348C30.9862 10.1859 30.8563 10.1454 30.7298 10.0965C28.3361 9.15484 25.8971 8.35835 23.3761 7.80992L23.3769 7.80908Z" fill="white"/>
<path d="M1.16931 29.85C0.551437 29.1202 0.581348 28.2537 0.905239 27.485C1.52995 26.0017 2.1444 24.5083 2.91096 23.0875C3.15538 22.6344 3.28186 22.1551 3.37416 21.6573C3.66899 20.0728 3.7818 18.4655 4.00912 16.8725C4.07577 16.4084 4.21849 16.0026 4.65433 15.7427C3.72368 15.3605 3.69291 15.3149 3.7271 14.2906C3.76214 13.2351 4.02108 12.2184 4.25951 11.1967C4.32019 10.9359 4.50991 10.8794 4.70134 10.7993C6.64126 9.98589 8.62391 9.29318 10.6604 8.75572C13.2396 8.07482 15.8503 7.59474 18.5346 7.70864C22.9631 7.89679 27.1156 9.18181 31.1655 10.86C31.3261 10.9267 31.4107 11.0203 31.4535 11.1857C31.7526 12.3534 32.0235 13.5254 32.0038 14.7412C31.997 15.1791 31.8218 15.4964 31.3672 15.6187C31.2697 15.6448 31.1774 15.6904 31.0356 15.7444C31.4851 15.9663 31.644 16.335 31.697 16.7274C31.8714 18.0174 31.9996 19.3134 32.1747 20.6027C32.2705 21.3072 32.3149 22.037 32.6268 22.685C33.296 24.0746 33.9343 25.4769 34.5539 26.8894C35.0094 27.9255 35.2923 28.9067 34.5078 29.9015C34.483 29.9336 34.4753 29.9791 34.4591 30.0179C34.5189 30.1167 34.6727 30.1631 34.6325 30.3183C34.624 30.6035 34.5283 30.8608 34.4052 31.119C33.8976 32.1821 33.4182 33.2587 32.8994 34.3159C32.5721 34.9825 32.4012 35.7326 31.909 36.3089C30.0793 38.4511 28.0445 38.3937 25.6576 37.0454C24.2535 36.2515 22.8956 35.3867 21.3719 34.8332C19.7567 34.2468 18.1013 33.9194 16.3742 34.2687C14.089 34.7311 12.0602 35.7495 10.1306 37.0142C9.09735 37.6909 7.90434 38.0942 6.66775 37.9491C5.06283 37.7609 3.91511 36.8514 3.27588 35.3504C2.65544 33.8932 1.97006 32.4639 1.26331 31.0448C1.11718 30.9773 1.11803 30.8254 1.05394 30.7073C0.879601 30.3867 1.21717 30.1453 1.1676 29.85H1.16931ZM2.83918 25.266C2.65544 25.3757 2.60246 25.601 2.70159 25.7857C2.7973 25.9655 3.05539 26.0245 3.22802 25.9216C3.30664 25.8743 3.38868 25.833 3.47243 25.7959C3.62028 25.7385 3.77325 25.6972 3.92964 25.6718C4.0433 25.6592 4.15696 25.6541 4.27148 25.6583C4.48683 25.6668 4.64664 25.4778 4.65604 25.2787C4.66544 25.0677 4.47231 24.9066 4.27148 24.899C3.77239 24.8796 3.26562 25.0104 2.83918 25.266ZM3.64933 28.2942C3.68181 28.2798 3.71514 28.2655 3.74846 28.2512C3.7553 28.2486 3.80401 28.2284 3.80914 28.2267C3.88264 28.1972 3.95784 28.1693 4.03219 28.1423C4.17661 28.0908 4.32275 28.0444 4.47059 28.0031C4.61844 27.9618 4.76799 27.9263 4.9184 27.8951C4.99617 27.8791 5.07479 27.8647 5.15341 27.8521C5.18674 27.8462 5.22093 27.8411 5.25426 27.836C5.27306 27.8335 5.291 27.831 5.3098 27.8284L5.32092 27.8268C5.53542 27.7998 5.69522 27.674 5.70548 27.4471C5.71403 27.2598 5.52089 27.0421 5.32092 27.0674C4.60306 27.1577 3.92109 27.345 3.26135 27.6386C3.06565 27.7255 3.03488 27.9921 3.12376 28.1583C3.22802 28.3524 3.4673 28.376 3.65019 28.2942H3.64933ZM3.67839 29.4332C3.77923 29.6214 4.02621 29.6602 4.20482 29.5691C4.37061 29.4847 4.53896 29.4045 4.70988 29.3303C4.74663 29.3143 4.78337 29.2982 4.82012 29.283C4.83123 29.2788 4.89362 29.2535 4.90302 29.2493C4.98677 29.2164 5.07052 29.1835 5.15512 29.1531C5.49952 29.0274 5.85161 28.9219 6.20798 28.8367C6.41735 28.7861 6.52161 28.565 6.47632 28.3693C6.42932 28.1651 6.19858 28.0571 6.00288 28.1043C5.244 28.2866 4.5099 28.5616 3.81598 28.9135C3.62455 29.0105 3.58524 29.2594 3.67839 29.4332ZM3.32459 27.0556C3.35877 27.0387 3.39381 27.0227 3.42885 27.0066C3.43996 27.0016 3.49636 26.9695 3.50747 26.972C3.45961 26.9915 3.45534 26.9931 3.49551 26.9771C3.51345 26.9704 3.5314 26.9628 3.54935 26.956C3.57584 26.9459 3.60319 26.9358 3.63053 26.9256C3.75188 26.8818 3.8758 26.8438 4.00142 26.8117C4.12705 26.7797 4.25353 26.7535 4.38172 26.7333C4.39539 26.7307 4.40907 26.729 4.42274 26.7274C4.45094 26.724 4.48 26.7206 4.5082 26.7181C4.57486 26.7113 4.64237 26.7071 4.70903 26.7029C4.92438 26.6919 5.08419 26.5384 5.09359 26.3232C5.10214 26.1258 4.90985 25.9326 4.70903 25.9435C4.08945 25.9764 3.4938 26.1308 2.9366 26.3991C2.74347 26.492 2.70757 26.7476 2.79902 26.9189C2.90071 27.1096 3.14427 27.1425 3.32544 27.0547L3.32459 27.0556ZM30.216 14.3311C29.017 13.2765 27.6736 12.4386 26.2242 11.7687C23.9314 10.709 21.5744 9.86524 19.0038 9.7893C18.6201 9.77833 18.2355 9.78761 17.8509 9.78761C13.2994 9.77918 9.3392 11.3865 5.77128 14.0831C5.26964 14.4628 5.1423 14.8931 5.29186 15.4736C5.52943 16.3966 5.66702 17.3543 6.27977 18.1381C6.30113 18.1651 6.31566 18.1904 6.32591 18.2157C6.37548 18.268 6.42505 18.3203 6.47461 18.3718C6.68057 18.5836 6.89678 18.792 7.15743 18.9371C7.51209 19.1346 7.90862 19.1497 8.30258 19.0924C10.3545 18.0849 11.9961 16.589 13.4071 14.8281C14.1215 13.9363 14.8043 13.0225 15.6709 12.2631C16.3024 11.7097 16.981 11.2658 17.7723 11.3097C18.7414 11.3131 19.4413 11.67 20.231 12.4277C20.9164 13.0858 21.512 13.8114 22.0948 14.5573C23.3613 16.1772 24.8082 17.5829 26.5567 18.6292C26.5994 18.6477 26.6413 18.6671 26.6831 18.6874C26.8617 18.7743 27.0241 18.8848 27.1925 18.9877C27.2831 19.0358 27.3762 19.0814 27.4685 19.1278C27.7941 19.2291 28.1607 19.1042 28.4496 18.9464C28.8888 18.7068 29.276 18.3473 29.5614 17.9415C29.5691 17.9305 29.5785 17.9213 29.5879 17.9137C30.1707 17.0176 30.3271 15.9815 30.4929 14.953C30.5348 14.6931 30.4092 14.5016 30.2143 14.3303L30.216 14.3311ZM31.2646 21.3629C30.6809 20.4483 30.1109 19.5235 29.5221 18.6123C29.4922 18.5659 29.4683 18.522 29.4503 18.4798C29.252 18.6916 29.0281 18.8814 28.7863 19.0417C28.5564 19.1945 28.2923 19.3269 28.0163 19.3851C28.0659 19.4071 28.1146 19.4307 28.165 19.4518C28.5 19.5944 28.7914 19.953 28.8957 20.3462C29.1589 21.3367 29.3862 22.3365 29.6417 23.3288C29.7058 23.5785 29.6725 23.7869 29.5443 24.008C28.847 25.2044 27.9693 26.2734 27.125 27.3644C26.7814 27.8082 26.255 27.8158 25.8644 27.4167C25.0637 26.5983 24.2826 25.7596 23.4656 24.9564C21.9641 23.4798 20.6651 21.8126 19.0713 20.4229C18.2552 19.7108 17.6604 19.6357 16.8442 20.2761C16.3674 20.6499 15.8956 21.0389 15.4906 21.4953C13.6788 23.5355 11.7534 25.4702 9.8511 27.426C9.46654 27.8208 8.93669 27.8023 8.59058 27.3534C7.74795 26.2599 6.86516 25.1951 6.17551 23.9936C6.05672 23.7861 6.0157 23.592 6.07723 23.3558C6.29515 22.5272 6.51307 21.697 6.69766 20.8608C6.80021 20.3968 6.9848 20.0044 7.30869 19.6433C7.42748 19.5109 7.56507 19.4282 7.70779 19.3615C7.51465 19.343 7.32493 19.2974 7.14119 19.2122C6.86858 19.0865 6.63442 18.8865 6.42248 18.6789C6.36693 18.6241 6.31224 18.5692 6.2584 18.5127C6.24131 18.538 6.22336 18.5633 6.20712 18.5887C5.71146 19.3759 5.21751 20.1648 4.71074 20.9452C4.44496 21.3536 4.22789 21.74 4.37574 22.2716C4.48683 22.6707 4.5082 23.1077 4.49282 23.5245C4.46205 24.3565 4.99446 24.9015 5.47388 25.4533C6.23191 26.3257 6.90704 27.2631 7.67531 28.1246C8.74868 29.3261 9.07428 29.2029 10.1852 28.3052C11.715 27.0699 12.9917 25.5622 14.4257 24.2231C15.3359 23.3727 16.2306 22.4842 17.4279 21.972C18.0013 21.7265 18.3953 22.0092 18.8047 22.2277C19.7627 22.7382 20.5378 23.4967 21.312 24.2341C22.7324 25.5892 24.0544 27.0438 25.544 28.3288C25.7764 28.5296 26.055 28.6831 26.3251 28.8376C26.6934 29.0485 27.0429 29.0147 27.3899 28.7523C27.9984 28.2933 28.4325 27.6833 28.8863 27.0935C29.564 26.2127 30.3519 25.4196 30.9834 24.5024C31.0843 24.3556 31.1356 24.2215 31.1527 24.0476C31.2219 23.3499 31.3031 22.6538 31.3954 21.9585C31.4253 21.7358 31.386 21.5502 31.2646 21.3612V21.3629ZM32.5773 27.0075C32.6123 27.0235 32.6465 27.0395 32.6815 27.0564C32.8618 27.1433 33.1054 27.1104 33.2079 26.9206C33.2994 26.7501 33.2626 26.4945 33.0704 26.4008C32.5132 26.1325 31.9175 25.9773 31.2979 25.9452C31.0971 25.9342 30.9048 26.1275 30.9134 26.3249C30.9228 26.5401 31.0826 26.6936 31.2979 26.7046C31.3654 26.708 31.4321 26.713 31.4988 26.7198C31.527 26.7223 31.556 26.7257 31.5842 26.729C31.5979 26.7307 31.6116 26.7333 31.6252 26.735C31.7534 26.7552 31.8799 26.7814 32.0055 26.8134C32.1312 26.8455 32.2551 26.8835 32.3764 26.9273C32.4038 26.9375 32.4303 26.9467 32.4576 26.9577C32.4756 26.9645 32.4935 26.9712 32.5115 26.9788C32.5508 26.9948 32.5473 26.9931 32.4995 26.9737C32.5106 26.9712 32.5679 27.0033 32.5781 27.0083L32.5773 27.0075ZM32.7448 27.6394C32.0842 27.3458 31.403 27.1585 30.6852 27.0682C30.4852 27.0429 30.2921 27.2606 30.3006 27.4479C30.3109 27.6749 30.4707 27.8006 30.6852 27.8276L30.6963 27.8293C30.7151 27.8318 30.733 27.8343 30.7518 27.8369C30.7852 27.8419 30.8194 27.847 30.8527 27.8529C30.9313 27.8656 31.0099 27.8808 31.0877 27.8959C31.2381 27.9263 31.3877 27.9626 31.5355 28.0039C31.6834 28.0453 31.8295 28.0917 31.9739 28.1432C32.0491 28.1702 32.1235 28.198 32.197 28.2275C32.2021 28.2292 32.2508 28.2495 32.2576 28.252C32.291 28.2663 32.3234 28.2807 32.3568 28.295C32.5397 28.376 32.7789 28.3532 32.8832 28.1592C32.9721 27.993 32.9413 27.7272 32.7456 27.6394H32.7448ZM32.1893 28.9143C31.4953 28.5616 30.7604 28.2874 30.0024 28.1052C29.8075 28.0579 29.5768 28.1659 29.5289 28.3701C29.4836 28.5659 29.5887 28.7869 29.7973 28.8376C30.1545 28.9236 30.5057 29.0282 30.8501 29.154C30.9347 29.1852 31.0185 29.2172 31.1022 29.2501C31.1116 29.2535 31.174 29.2797 31.1851 29.2839C31.2219 29.2991 31.2586 29.3151 31.2954 29.3311C31.4663 29.4054 31.6346 29.4855 31.8004 29.5699C31.979 29.661 32.226 29.6214 32.3269 29.4341C32.42 29.2603 32.3798 29.0114 32.1893 28.9143ZM33.1669 25.2668C32.7405 25.012 32.2329 24.8804 31.7346 24.8998C31.5338 24.9074 31.3407 25.0686 31.3501 25.2795C31.3595 25.4786 31.5193 25.6676 31.7346 25.6592C31.8491 25.655 31.9628 25.66 32.0765 25.6727C32.2329 25.698 32.3858 25.7393 32.5337 25.7967C32.6174 25.8338 32.6995 25.8752 32.7781 25.9224C32.9507 26.0254 33.2079 25.9655 33.3045 25.7866C33.4028 25.6027 33.3507 25.3774 33.1669 25.2668ZM3.25879 34.1987C3.60319 34.7125 4.59707 34.9083 5.29186 34.634C5.48414 34.5581 5.67044 34.472 5.85418 34.3801C6.21311 34.7412 6.71304 34.9648 7.26596 34.9648C8.35899 34.9648 9.2452 34.0898 9.2452 33.0107C9.2452 32.7736 9.20247 32.5458 9.12385 32.3357C10.8305 31.2211 12.5379 30.1074 14.3428 29.1472C15.3863 28.592 16.4674 28.1322 17.6134 27.8259C17.8065 27.7744 17.9954 27.8048 18.1962 27.8563C20.0413 28.3288 21.6761 29.2442 23.269 30.2289C25.2466 31.4515 27.1916 32.7263 29.1563 33.9683C29.5144 34.1945 29.893 34.3961 30.2801 34.5699C31.2902 35.0247 32.2576 34.6965 32.7482 33.7236C33.0627 33.0993 33.3327 32.4521 33.6224 31.816C33.3558 31.5603 33.6822 31.3595 33.6874 31.1291C33.2071 31.654 32.8755 32.2758 32.5379 32.89C32.361 33.2115 32.1611 33.5144 31.944 33.8072C31.6227 34.2409 31.1766 34.3716 30.6672 34.1641C30.0998 33.9329 29.5811 33.6081 29.0657 33.2841C26.8096 31.8666 24.6253 30.3369 22.2905 29.0417C21.1616 28.4157 20.0199 27.8166 18.7602 27.4682C18.1518 27.3003 17.5621 27.2994 16.9545 27.4724C15.253 27.9575 13.7361 28.8241 12.2499 29.7336C11.1133 30.4288 9.99211 31.1477 8.87174 31.8674C8.51196 31.3764 7.92742 31.0557 7.26682 31.0557C6.1738 31.0557 5.28758 31.9307 5.28758 33.0098C5.28758 33.3448 5.37304 33.6604 5.52345 33.9363C5.42945 33.9852 5.33629 34.0341 5.24144 34.0814C4.56802 34.4164 4.11594 34.3067 3.70488 33.6907C3.29211 33.0723 2.92208 32.426 2.53495 31.7906C2.41103 31.5865 2.28626 31.384 2.10594 31.2211C2.07688 31.3089 2.10509 31.4177 2.01963 31.4852C2.01535 31.4911 2.00937 31.4962 1.99997 31.5004C2.3871 32.415 2.70159 33.3651 3.25964 34.1987H3.25879Z" fill="white"/>
</svg>
