<svg width="32" height="32" viewBox="0 0 32 32" fill="none" xmlns="http://www.w3.org/2000/svg">
<path d="M23.2739 21.7115L30.3895 17.6035C30.7659 17.386 31 16.9809 31 16.5459V8.32854C31 7.89414 30.7659 7.48844 30.3895 7.27092L23.2739 3.1629C22.8975 2.94538 22.4293 2.94602 22.0529 3.1629L14.9373 7.27092C14.5609 7.48844 14.3268 7.8935 14.3268 8.32854V23.0122L9.33723 25.8922L4.34765 23.0122V17.2501L9.33723 14.37L12.6287 16.2697V12.4047L9.94769 10.8572C9.7627 10.7506 9.55156 10.6945 9.33723 10.6945C9.1229 10.6945 8.91176 10.7506 8.72677 10.8572L1.61046 14.9658C1.23411 15.1833 1 15.5884 1 16.0234V24.2401C1 24.6745 1.23411 25.0802 1.61046 25.2977L8.72613 29.4064C9.10249 29.6233 9.57006 29.6233 9.94705 29.4064L17.0627 25.2984C17.4391 25.0808 17.6732 24.6751 17.6732 24.2407V9.55713L17.7631 9.50546L22.6628 6.67704L27.6523 9.55777V15.3192L22.6628 18.1999L19.3764 16.3028V20.1678L22.0523 21.7134C22.4287 21.9303 22.8969 21.9303 23.2732 21.7134L23.2739 21.7115Z" fill="white"/>
</svg>
