<svg width="31" height="38" viewBox="0 0 31 38" fill="none" xmlns="http://www.w3.org/2000/svg">
<path fill-rule="evenodd" clip-rule="evenodd" d="M15.0212 16.625C14.2601 16.625 13.5305 16.7592 12.8545 17.0053V4.7714H17.1878V17.0053C16.5119 16.7592 15.7822 16.625 15.0212 16.625ZM9.08368 0H10.8545V18.1885C9.71376 19.1859 8.93398 20.5858 8.73685 22.1667H0C0.216317 17.995 2.13233 14.2729 5.06876 11.6798L9.08368 0ZM19.1878 18.1885C20.2273 19.0973 20.9671 20.3404 21.2394 21.75H30.015C29.9257 20.6261 29.7128 19.537 29.39 18.4963C29.8027 18.1299 30.0628 17.5953 30.0628 17V13.0833C30.0628 11.9788 29.1674 11.0833 28.0628 11.0833H24.7686L20.9587 0H19.1878V18.1885ZM30.0424 23.75C29.8536 27.3913 28.3698 30.69 26.0428 33.1945L19.568 27.3672C20.5008 26.4053 21.1311 25.1485 21.3055 23.75H30.0424ZM15.0212 38C18.6525 38 21.9832 36.7132 24.5823 34.5708L17.9314 28.5849C17.06 29.0365 16.0704 29.2917 15.0212 29.2917C13.972 29.2917 12.9823 29.0365 12.111 28.5849L5.46003 34.5708C8.05914 36.7132 11.3899 38 15.0212 38ZM3.99959 33.1944C1.76167 30.7859 0.303654 27.6427 0.027353 24.1667L8.80298 24.1667C9.04081 25.3978 9.63518 26.5019 10.4744 27.3671L3.99959 33.1944ZM15.0212 25.2917C16.3098 25.2917 17.3545 24.247 17.3545 22.9583C17.3545 21.6697 16.3098 20.625 15.0212 20.625C13.7325 20.625 12.6878 21.6697 12.6878 22.9583C12.6878 24.247 13.7325 25.2917 15.0212 25.2917ZM10.2712 34.8333C11.1456 34.8333 11.8545 34.1245 11.8545 33.25C11.8545 32.3756 11.1456 31.6667 10.2712 31.6667C9.39673 31.6667 8.68785 32.3756 8.68785 33.25C8.68785 34.1245 9.39673 34.8333 10.2712 34.8333ZM16.6045 34.8333C16.6045 35.7078 15.8956 36.4167 15.0212 36.4167C14.1467 36.4167 13.4378 35.7078 13.4378 34.8333C13.4378 33.9589 14.1467 33.25 15.0212 33.25C15.8956 33.25 16.6045 33.9589 16.6045 34.8333ZM19.7712 34.8333C20.6456 34.8333 21.3545 34.1245 21.3545 33.25C21.3545 32.3756 20.6456 31.6667 19.7712 31.6667C18.8967 31.6667 18.1878 32.3756 18.1878 33.25C18.1878 34.1245 18.8967 34.8333 19.7712 34.8333Z" fill="white"/>
</svg>
