<svg width="20" height="20" viewBox="0 0 20 20" fill="none" xmlns="http://www.w3.org/2000/svg">
<path d="M13 2.64571V18.1543C12.9999 18.2752 12.9648 18.3937 12.8987 18.4962C12.8326 18.5988 12.7382 18.6813 12.6261 18.7344C12.514 18.7875 12.3888 18.809 12.2647 18.7966C12.1406 18.7841 12.0227 18.7382 11.9242 18.664L6.10417 14.2771H2.33333C1.97971 14.2771 1.64057 14.141 1.39052 13.8986C1.14048 13.6562 1 13.3275 1 12.9848V7.81524C1 7.47247 1.14048 7.14375 1.39052 6.90138C1.64057 6.65901 1.97971 6.52285 2.33333 6.52285H6.10417L11.9242 2.13602C12.0227 2.06181 12.1406 2.01587 12.2647 2.00343C12.3888 1.99099 12.514 2.01254 12.6261 2.06564C12.7382 2.11873 12.8326 2.20124 12.8987 2.30379C12.9648 2.40633 12.9999 2.52479 13 2.64571ZM15.6667 7.81524C15.4899 7.81524 15.3203 7.88332 15.1953 8.0045C15.0702 8.12568 15 8.29005 15 8.46143V12.3386C15 12.51 15.0702 12.6743 15.1953 12.7955C15.3203 12.9167 15.4899 12.9848 15.6667 12.9848C15.8435 12.9848 16.013 12.9167 16.1381 12.7955C16.2631 12.6743 16.3333 12.51 16.3333 12.3386V8.46143C16.3333 8.29005 16.2631 8.12568 16.1381 8.0045C16.013 7.88332 15.8435 7.81524 15.6667 7.81524ZM18.3333 6.52285C18.1565 6.52285 17.987 6.59093 17.8619 6.71212C17.7369 6.8333 17.6667 6.99766 17.6667 7.16904V13.631C17.6667 13.8023 17.7369 13.9667 17.8619 14.0879C17.987 14.2091 18.1565 14.2771 18.3333 14.2771C18.5101 14.2771 18.6797 14.2091 18.8047 14.0879C18.9298 13.9667 19 13.8023 19 13.631V7.16904C19 6.99766 18.9298 6.8333 18.8047 6.71212C18.6797 6.59093 18.5101 6.52285 18.3333 6.52285Z" fill="white" fill-opacity="0.6"/>
</svg>
