<svg width="24" height="24" viewBox="0 0 24 24" fill="none" xmlns="http://www.w3.org/2000/svg">
<path d="M3 3.81877V20.1812C2.99978 20.3431 3.08274 20.5014 3.23838 20.6361C3.39402 20.7708 3.61534 20.8757 3.87433 20.9377C4.13331 20.9997 4.41831 21.0159 4.69324 20.9842C4.96818 20.9526 5.22069 20.8746 5.4188 20.7601L19.5845 12.5788C19.7162 12.5028 19.8207 12.4126 19.892 12.3133C19.9633 12.214 20 12.1075 20 12C20 11.8925 19.9633 11.786 19.892 11.6867C19.8207 11.5874 19.7162 11.4972 19.5845 11.4212L5.4188 3.23995C5.22069 3.1254 4.96818 3.04738 4.69324 3.01576C4.41831 2.98413 4.13331 3.00034 3.87433 3.06231C3.61534 3.12429 3.39402 3.22925 3.23838 3.36391C3.08274 3.49856 2.99978 3.65686 3 3.81877Z" fill="white" fill-opacity="0.8"/>
</svg>
