<svg width="20" height="20" viewBox="0 0 20 20" fill="none" xmlns="http://www.w3.org/2000/svg">
<path d="M15.25 12.214V8.3369C15.25 8.16552 15.3202 8.00116 15.4453 7.87997C15.5703 7.75879 15.7399 7.69071 15.9167 7.69071C16.0935 7.69071 16.263 7.75879 16.3881 7.87997C16.5131 8.00116 16.5833 8.16552 16.5833 8.3369V12.214C16.5833 12.3854 16.5131 12.5498 16.3881 12.671C16.263 12.7922 16.0935 12.8602 15.9167 12.8602C15.7399 12.8602 15.5703 12.7922 15.4453 12.671C15.3202 12.5498 15.25 12.3854 15.25 12.214ZM18.5833 6.39833C18.4065 6.39833 18.237 6.46641 18.1119 6.58759C17.9869 6.70878 17.9167 6.87314 17.9167 7.04452V13.5064C17.9167 13.6778 17.9869 13.8422 18.1119 13.9634C18.237 14.0845 18.4065 14.1526 18.5833 14.1526C18.7601 14.1526 18.9297 14.0845 19.0547 13.9634C19.1798 13.8422 19.25 13.6778 19.25 13.5064V7.04452C19.25 6.87314 19.1798 6.70878 19.0547 6.58759C18.9297 6.46641 18.7601 6.39833 18.5833 6.39833ZM4.41 2.73281C4.35145 2.66884 4.28039 2.61677 4.20093 2.57962C4.12147 2.54247 4.0352 2.52097 3.9471 2.51638C3.85901 2.51179 3.77085 2.52418 3.68774 2.55286C3.60463 2.58153 3.52821 2.62591 3.46293 2.68342C3.39764 2.74093 3.34478 2.81043 3.3074 2.88789C3.27003 2.96535 3.24889 3.04923 3.24521 3.13466C3.24152 3.2201 3.25537 3.30539 3.28595 3.3856C3.31653 3.46582 3.36322 3.53935 3.42333 3.60193L6.04583 6.39833H2.58333C2.22971 6.39833 1.89057 6.53449 1.64052 6.77686C1.39048 7.01922 1.25 7.34795 1.25 7.69071V12.8602C1.25 13.203 1.39048 13.5317 1.64052 13.7741C1.89057 14.0165 2.22971 14.1526 2.58333 14.1526H6.35417L12.1742 18.5394C12.2727 18.6137 12.3906 18.6596 12.5147 18.672C12.6388 18.6845 12.764 18.6629 12.8761 18.6098C12.9882 18.5567 13.0826 18.4742 13.1487 18.3717C13.2148 18.2691 13.2499 18.1507 13.25 18.0298V14.0791L16.7567 17.8181C16.8152 17.8821 16.8863 17.9342 16.9657 17.9713C17.0452 18.0085 17.1315 18.03 17.2196 18.0346C17.3077 18.0392 17.3958 18.0268 17.4789 17.9981C17.562 17.9694 17.6385 17.925 17.7037 17.8675C17.769 17.81 17.8219 17.7405 17.8593 17.6631C17.8966 17.5856 17.9178 17.5017 17.9215 17.4163C17.9251 17.3308 17.9113 17.2456 17.8807 17.1653C17.8501 17.0851 17.8034 17.0116 17.7433 16.949L4.41 2.73281ZM12.09 9.00005C12.1805 9.09657 12.299 9.16428 12.43 9.19428C12.5609 9.22428 12.6982 9.21518 12.8237 9.16816C12.9492 9.12114 13.0571 9.03841 13.1332 8.93085C13.2093 8.82328 13.25 8.69591 13.25 8.56549V2.52118C13.2499 2.40027 13.2148 2.2818 13.1487 2.17926C13.0826 2.07672 12.9882 1.99421 12.8761 1.94111C12.764 1.88801 12.6388 1.86646 12.5147 1.8789C12.3906 1.89135 12.2727 1.93729 12.1742 2.0115L8.85333 4.51549C8.78082 4.5702 8.72077 4.63885 8.67693 4.71713C8.6331 4.7954 8.60643 4.88162 8.5986 4.97036C8.59078 5.05911 8.60196 5.14846 8.63146 5.23281C8.66095 5.31716 8.70812 5.3947 8.77 5.46054L12.09 9.00005Z" fill="white" fill-opacity="0.6"/>
</svg>
