<svg width="38" height="38" viewBox="0 0 38 38" fill="none" xmlns="http://www.w3.org/2000/svg">
<g filter="url(#filter0_b_660_89136)">
<rect x="5" y="5" width="28" height="28" rx="4" fill="black"/>
<path d="M20.3999 26.5C20.676 26.5 20.8999 26.2761 20.8999 26C20.8999 25.7239 20.676 25.5 20.3999 25.5L20.3999 26.5ZM12.3535 17.2464C12.1582 17.0512 11.8416 17.0512 11.6464 17.2464L8.46437 20.4284C8.26911 20.6237 8.26911 20.9403 8.46437 21.1355C8.65963 21.3308 8.97621 21.3308 9.17148 21.1355L11.9999 18.3071L14.8283 21.1355C15.0236 21.3308 15.3402 21.3308 15.5354 21.1355C15.7307 20.9403 15.7307 20.6237 15.5354 20.4284L12.3535 17.2464ZM20.3999 25.5L12.9999 25.5L12.9999 26.5L20.3999 26.5L20.3999 25.5ZM12.4999 25L12.4999 17.6L11.4999 17.6L11.4999 25L12.4999 25ZM12.9999 25.5C12.7238 25.5 12.4999 25.2761 12.4999 25L11.4999 25C11.4999 25.8284 12.1715 26.5 12.9999 26.5L12.9999 25.5Z" fill="white"/>
<path d="M17.6001 11.5C17.324 11.5 17.1001 11.7239 17.1001 12C17.1001 12.2761 17.324 12.5 17.6001 12.5L17.6001 11.5ZM25.6465 20.7536C25.8418 20.9488 26.1584 20.9488 26.3537 20.7536L29.5356 17.5716C29.7309 17.3763 29.7309 17.0597 29.5356 16.8645C29.3404 16.6692 29.0238 16.6692 28.8285 16.8645L26.0001 19.6929L23.1717 16.8645C22.9764 16.6692 22.6598 16.6692 22.4646 16.8645C22.2693 17.0597 22.2693 17.3763 22.4646 17.5716L25.6465 20.7536ZM17.6001 12.5L25.0001 12.5L25.0001 11.5L17.6001 11.5L17.6001 12.5ZM25.5001 13L25.5001 20.4L26.5001 20.4L26.5001 13L25.5001 13ZM25.0001 12.5C25.2762 12.5 25.5001 12.7239 25.5001 13L26.5001 13C26.5001 12.1716 25.8285 11.5 25.0001 11.5L25.0001 12.5Z" fill="white"/>
<g filter="url(#filter1_d_660_89136)">
<rect x="27.3999" y="24.6" width="2.8" height="2.8" rx="1.4" transform="rotate(90 27.3999 24.6)" fill="#F9D667"/>
</g>
<g filter="url(#filter2_d_660_89136)">
<rect x="10.6001" y="10.6" width="2.8" height="2.8" rx="1.4" fill="#F9D667"/>
</g>
<rect x="2.5" y="2.5" width="33" height="33" rx="5.5" stroke="#F9D667" stroke-opacity="0.4"/>
<rect x="4.5" y="4.5" width="29" height="29" rx="4.5" stroke="white" stroke-opacity="0.2"/>
</g>
<defs>
<filter id="filter0_b_660_89136" x="-18" y="-18" width="74" height="74" filterUnits="userSpaceOnUse" color-interpolation-filters="sRGB">
<feFlood flood-opacity="0" result="BackgroundImageFix"/>
<feGaussianBlur in="BackgroundImageFix" stdDeviation="10"/>
<feComposite in2="SourceAlpha" operator="in" result="effect1_backgroundBlur_660_89136"/>
<feBlend mode="normal" in="SourceGraphic" in2="effect1_backgroundBlur_660_89136" result="shape"/>
</filter>
<filter id="filter1_d_660_89136" x="14.5999" y="14.6" width="22.8" height="22.8" filterUnits="userSpaceOnUse" color-interpolation-filters="sRGB">
<feFlood flood-opacity="0" result="BackgroundImageFix"/>
<feColorMatrix in="SourceAlpha" type="matrix" values="0 0 0 0 0 0 0 0 0 0 0 0 0 0 0 0 0 0 127 0" result="hardAlpha"/>
<feMorphology radius="2" operator="dilate" in="SourceAlpha" result="effect1_dropShadow_660_89136"/>
<feOffset/>
<feGaussianBlur stdDeviation="4"/>
<feComposite in2="hardAlpha" operator="out"/>
<feColorMatrix type="matrix" values="0 0 0 0 0.976471 0 0 0 0 0.839216 0 0 0 0 0.403922 0 0 0 1 0"/>
<feBlend mode="normal" in2="BackgroundImageFix" result="effect1_dropShadow_660_89136"/>
<feBlend mode="normal" in="SourceGraphic" in2="effect1_dropShadow_660_89136" result="shape"/>
</filter>
<filter id="filter2_d_660_89136" x="0.600098" y="0.599998" width="22.8" height="22.8" filterUnits="userSpaceOnUse" color-interpolation-filters="sRGB">
<feFlood flood-opacity="0" result="BackgroundImageFix"/>
<feColorMatrix in="SourceAlpha" type="matrix" values="0 0 0 0 0 0 0 0 0 0 0 0 0 0 0 0 0 0 127 0" result="hardAlpha"/>
<feMorphology radius="2" operator="dilate" in="SourceAlpha" result="effect1_dropShadow_660_89136"/>
<feOffset/>
<feGaussianBlur stdDeviation="4"/>
<feComposite in2="hardAlpha" operator="out"/>
<feColorMatrix type="matrix" values="0 0 0 0 0.976471 0 0 0 0 0.839216 0 0 0 0 0.403922 0 0 0 1 0"/>
<feBlend mode="normal" in2="BackgroundImageFix" result="effect1_dropShadow_660_89136"/>
<feBlend mode="normal" in="SourceGraphic" in2="effect1_dropShadow_660_89136" result="shape"/>
</filter>
</defs>
</svg>
