<svg width="16" height="16" viewBox="0 0 16 16" fill="none" xmlns="http://www.w3.org/2000/svg">
<path d="M14.6666 5.44144V5.49011C14.6666 6.06344 14.6666 6.35078 14.5286 6.58544C14.3906 6.82011 14.1393 6.95944 13.6379 7.23878L13.1093 7.53211C13.4733 6.30011 13.5953 4.97611 13.6399 3.84411L13.6466 3.69678L13.6479 3.66211C14.0819 3.81278 14.3259 3.92544 14.4779 4.13611C14.6666 4.39811 14.6666 4.74611 14.6666 5.44144ZM1.33325 5.44144V5.49011C1.33325 6.06344 1.33325 6.35078 1.47125 6.58544C1.60925 6.82011 1.86059 6.95944 2.36192 7.23878L2.89125 7.53211C2.52659 6.30011 2.40459 4.97611 2.35992 3.84411L2.35325 3.69678L2.35259 3.66211C1.91792 3.81278 1.67392 3.92544 1.52192 4.13611C1.33325 4.39811 1.33325 4.74678 1.33325 5.44144Z" fill="white"/>
<path fill-rule="evenodd" clip-rule="evenodd" d="M7.99982 1.33341C9.18915 1.33341 10.1685 1.43808 10.9178 1.56474C11.6772 1.69274 12.0565 1.75674 12.3738 2.14741C12.6912 2.53808 12.6738 2.96008 12.6405 3.80408C12.5258 6.70341 11.9005 10.3241 8.49982 10.6441V13.0001H9.45315C9.60721 13.0002 9.75649 13.0536 9.8756 13.1513C9.9947 13.249 10.0763 13.385 10.1065 13.5361L10.2332 14.1667H11.9998C12.1324 14.1667 12.2596 14.2194 12.3534 14.3132C12.4471 14.407 12.4998 14.5341 12.4998 14.6667C12.4998 14.7993 12.4471 14.9265 12.3534 15.0203C12.2596 15.1141 12.1324 15.1667 11.9998 15.1667H3.99982C3.86721 15.1667 3.74003 15.1141 3.64627 15.0203C3.5525 14.9265 3.49982 14.7993 3.49982 14.6667C3.49982 14.5341 3.5525 14.407 3.64627 14.3132C3.74003 14.2194 3.86721 14.1667 3.99982 14.1667H5.76649L5.89315 13.5361C5.92335 13.385 6.00494 13.249 6.12404 13.1513C6.24315 13.0536 6.39242 13.0002 6.54649 13.0001H7.49982V10.6441C4.09982 10.3241 3.47449 6.70274 3.35982 3.80408C3.32582 2.96008 3.30915 2.53741 3.62649 2.14741C3.94315 1.75674 4.32249 1.69274 5.08182 1.56474C6.04637 1.40666 7.02241 1.32928 7.99982 1.33341ZM8.63449 4.13274L8.56915 4.01541C8.31582 3.56008 8.18915 3.33341 7.99982 3.33341C7.81049 3.33341 7.68382 3.56008 7.43049 4.01541L7.36515 4.13274C7.29315 4.26208 7.25715 4.32608 7.20115 4.36874C7.14449 4.41141 7.07449 4.42741 6.93449 4.45874L6.80782 4.48808C6.31582 4.59941 6.06982 4.65474 6.01115 4.84274C5.95249 5.03141 6.12049 5.22741 6.45582 5.61941L6.54249 5.72074C6.63782 5.83208 6.68582 5.88741 6.70715 5.95674C6.72849 6.02608 6.72115 6.10008 6.70715 6.24874L6.69382 6.38408C6.64315 6.90741 6.61782 7.16941 6.77049 7.28541C6.92382 7.40141 7.15449 7.29541 7.61515 7.08341L7.73382 7.02874C7.86515 6.96874 7.93049 6.93874 7.99982 6.93874C8.06915 6.93874 8.13449 6.96874 8.26582 7.02874L8.38449 7.08341C8.84515 7.29608 9.07582 7.40141 9.22915 7.28541C9.38249 7.16941 9.35649 6.90741 9.30582 6.38408L9.29249 6.24874C9.27849 6.10008 9.27115 6.02608 9.29249 5.95674C9.31382 5.88808 9.36182 5.83208 9.45715 5.72074L9.54382 5.61941C9.87915 5.22741 10.0472 5.03141 9.98849 4.84274C9.92982 4.65474 9.68382 4.59941 9.19182 4.48808L9.06515 4.45874C8.92515 4.42741 8.85515 4.41208 8.79849 4.36874C8.74249 4.32608 8.70649 4.26208 8.63449 4.13274Z" fill="white"/>
</svg>
