<svg width="68" height="32" viewBox="0 0 68 32" fill="none" xmlns="http://www.w3.org/2000/svg">
<path d="M48.1432 17.6376C48.1432 27.3786 41.4724 26.1298 33.2436 26.1298C25.0148 26.1298 18.344 27.3786 18.344 17.6376C18.344 7.89663 25.0148 0 33.2436 0C41.4724 0 48.1432 7.89663 48.1432 17.6376Z" fill="#70D0B5"/>
<path d="M20.2666 19.5883C20.2666 12.7336 26.0766 13.6124 33.2436 13.6124C40.4107 13.6124 46.2207 12.7336 46.2207 19.5883C46.2207 26.4431 40.4107 32 33.2436 32C26.0766 32 20.2666 26.4431 20.2666 19.5883Z" fill="#70D0B5"/>
<path fill-rule="evenodd" clip-rule="evenodd" d="M24.2221 10.6422C23.7672 9.91084 21.9021 8.27254 18.0808 7.57041C14.2596 6.86829 4.81262 8.00924 0.566803 8.66749C-0.261429 8.79589 -0.0785197 9.20701 0.455882 9.652C8.54025 8.6414 14.1031 8.99889 17.919 10.0279C20.8567 10.8202 22.785 12.0197 24.0091 13.3136L24.2221 10.6422ZM23.8209 15.6727L23.4256 15.8801C22.7659 14.6225 21.1621 12.9743 17.4077 11.9618C14.6219 11.2106 10.6821 10.82 5.15227 11.2025C5.69822 11.3415 6.18015 11.5635 6.48063 11.9587C7.14254 12.8294 7.66118 13.6233 8.13762 14.3527C8.81697 15.3926 9.41053 16.3012 10.2113 17.1138L12.3565 16.1984L11.0644 17.8743C11.506 18.2191 12.0107 18.5462 12.6066 18.859L14.1686 16.2984V19.6265C16.3209 20.2188 21.0884 19.635 23.5397 19.1994L23.8209 15.6727Z" fill="#70D0B5"/>
<path fill-rule="evenodd" clip-rule="evenodd" d="M43.1463 10.6422C43.6012 9.91084 45.4664 8.27254 49.2876 7.57041C53.1088 6.86829 62.5558 8.00924 66.8016 8.66749C67.6298 8.79589 67.4469 9.20701 66.9125 9.652C58.8282 8.6414 53.2653 8.99889 49.4494 10.0279C46.5117 10.8202 44.5834 12.0197 43.3593 13.3136L43.1463 10.6422ZM43.5475 15.6727L43.9428 15.8801C44.6025 14.6225 46.2064 12.9743 49.9608 11.9618C52.7465 11.2106 56.6863 10.82 62.2161 11.2025C61.6702 11.3415 61.1883 11.5635 60.8878 11.9587C60.2259 12.8294 59.7072 13.6233 59.2308 14.3527C58.5514 15.3926 57.9579 16.3012 57.1571 17.1138L55.0119 16.1984L56.304 17.8743C55.8624 18.2191 55.3577 18.5462 54.7619 18.859L53.1998 16.2984V19.6265C51.0475 20.2188 46.28 19.635 43.8287 19.1994L43.5475 15.6727Z" fill="#70D0B5"/>
<path d="M37.5693 16.4849C37.5693 14.3613 39.2908 12.6061 41.4144 12.6061C43.538 12.6061 45.2595 14.3613 45.2595 16.4849H37.5693Z" fill="#1E1E1E"/>
<path d="M21.2278 16.4849C21.2278 14.3613 22.9493 12.6061 25.0728 12.6061C27.1964 12.6061 28.9179 14.3613 28.9179 16.4849H21.2278Z" fill="#1E1E1E"/>
<ellipse cx="35.5667" cy="20.3636" rx="0.961264" ry="0.969697" fill="#1E1E1E"/>
<ellipse cx="30.7606" cy="20.3636" rx="0.961265" ry="0.969697" fill="#1E1E1E"/>
<path fill-rule="evenodd" clip-rule="evenodd" d="M26.9433 24.7889C27.0713 24.4056 27.6043 24.17 28.1339 24.2626C30.1379 24.613 31.6573 24.7622 33.1558 24.7534C34.6602 24.7447 36.1875 24.5766 38.2166 24.2588C38.7491 24.1753 39.2742 24.4202 39.3894 24.8056C39.5047 25.191 39.1664 25.5711 38.6339 25.6545C36.5535 25.9803 34.874 26.1715 33.1717 26.1814C31.4634 26.1914 29.7761 26.0188 27.6706 25.6507C27.141 25.5581 26.8154 25.1723 26.9433 24.7889Z" fill="#1E1E1E"/>
<path fill-rule="evenodd" clip-rule="evenodd" d="M38.5305 9.21217C38.5305 9.47995 38.252 9.69702 37.9085 9.69702L28.5786 9.69702C28.2351 9.69702 27.9566 9.47995 27.9566 9.21217C27.9566 8.9444 28.2351 8.72732 28.5786 8.72732L37.9085 8.72733C38.252 8.72733 38.5305 8.9444 38.5305 9.21217Z" fill="#1E1E1E"/>
<path fill-rule="evenodd" clip-rule="evenodd" d="M35.6467 6.30299C35.6467 6.57077 35.3393 6.78784 34.9601 6.78784L31.527 6.78784C31.1478 6.78784 30.8404 6.57077 30.8404 6.30299C30.8404 6.03522 31.1478 5.81814 31.527 5.81814L34.9601 5.81815C35.3393 5.81815 35.6467 6.03522 35.6467 6.30299Z" fill="#1E1E1E"/>
<path fill-rule="evenodd" clip-rule="evenodd" d="M45.1009 18.6732C44.1073 19.1318 42.9521 19.3945 41.7195 19.3945C39.6296 19.3945 37.7623 18.6394 36.5281 17.4546C37.4031 19.1818 39.1841 20.3642 41.2388 20.3642C42.7627 20.3642 44.136 19.7139 45.1009 18.6732Z" fill="#1E1E1E"/>
<path fill-rule="evenodd" clip-rule="evenodd" d="M21.1477 18.6732C22.1412 19.1319 23.2964 19.3946 24.5291 19.3946C26.6189 19.3946 28.4863 18.6394 29.7205 17.4546C28.8455 19.1818 27.0645 20.3642 25.0097 20.3642C23.4858 20.3642 22.1125 19.7139 21.1477 18.6732Z" fill="#1E1E1E"/>
</svg>
