<svg width="326" height="421" viewBox="0 0 326 421" fill="none" xmlns="http://www.w3.org/2000/svg">
<path d="M54.1664 417.763C45.3774 408.077 44.6096 391.762 51.0261 370.332C57.4323 348.935 70.9528 322.61 90.4577 293.097C129.463 234.078 192.336 162.408 269.834 92.0892C347.333 21.7701 424.758 -33.8612 487.279 -66.9635C518.543 -83.5165 546.055 -94.4221 567.972 -98.7247C589.923 -103.034 606.086 -100.689 614.875 -91.0026C623.664 -81.3162 624.432 -65.0014 618.016 -43.5711C611.61 -22.1751 598.089 4.15044 578.584 33.6634C539.579 92.6827 476.706 164.352 399.208 234.671C321.709 304.99 244.284 360.622 181.763 393.724C150.498 410.277 122.987 421.183 101.07 425.485C79.1191 429.795 62.9555 427.449 54.1664 417.763Z" stroke="white" stroke-opacity="0.03"/>
<path d="M26.0052 359.815C19.1621 348.57 21.1163 332.552 30.7933 313.064C40.4572 293.602 57.7557 270.823 81.3199 246.185C128.443 196.914 200.541 140.294 286.447 88.0159C372.352 35.7377 455.77 -2.28191 521.184 -21.4961C553.895 -31.1042 582.075 -36.0015 603.802 -35.6421C625.557 -35.2823 640.682 -29.658 647.525 -18.4131C654.368 -7.16823 652.414 8.84915 642.737 28.3375C633.073 47.7995 615.774 70.5787 592.21 95.2167C545.087 144.487 472.989 201.107 387.083 253.386C301.177 305.664 217.76 343.684 152.346 362.898C119.635 372.506 91.4546 377.403 69.7283 377.044C47.9726 376.684 32.8484 371.06 26.0052 359.815Z" stroke="white" stroke-opacity="0.03"/>
<path d="M10.5555 295.991C6.07748 283.524 10.8048 268.293 23.4634 251.341C36.1079 234.408 56.5836 215.873 83.3332 196.868C136.826 158.862 215.313 119.042 306.113 86.4294C396.912 53.8169 482.799 34.5995 548.249 29.8845C580.978 27.5267 608.567 28.7977 629.096 33.8161C649.648 38.8402 662.986 47.5824 667.464 60.0501C671.942 72.5179 667.214 87.7485 654.556 104.701C641.911 121.634 621.435 140.168 594.686 159.173C541.193 197.179 462.706 237 371.906 269.612C281.107 302.225 195.22 321.442 129.77 326.157C97.0411 328.515 69.4519 327.244 48.9229 322.225C28.3711 317.201 15.0335 308.459 10.5555 295.991Z" stroke="white" stroke-opacity="0.03"/>
<path d="M10.0261 229.926C8.24766 216.713 15.6556 202.795 30.8298 188.913C45.9907 175.044 68.813 161.299 97.6168 148.45C155.218 122.756 236.632 100.694 328.201 88.3681C419.77 76.0425 504.12 75.7925 566.465 85.3416C597.641 90.1166 623.285 97.3377 641.574 106.705C659.879 116.08 670.703 127.544 672.482 140.757C674.26 153.97 666.852 167.888 651.678 181.77C636.517 195.639 613.695 209.384 584.891 222.233C527.29 247.927 445.876 269.989 354.307 282.315C262.738 294.641 178.388 294.891 116.043 285.341C84.8669 280.566 59.2224 273.345 40.9338 263.978C22.6291 254.603 11.8046 243.139 10.0261 229.926Z" stroke="white" stroke-opacity="0.03"/>
<path d="M25.1873 165.915C26.3107 152.546 36.157 140.452 53.2254 130.053C70.2825 119.661 94.4592 111.023 124.027 104.537C183.158 91.5683 263.734 87.2367 351.735 94.6311C439.736 102.026 518.46 119.743 574.597 142.397C602.669 153.726 625.065 166.278 640.149 179.371C655.242 192.472 662.932 206.039 661.809 219.408C660.686 232.777 650.839 244.871 633.771 255.27C616.714 265.662 592.537 274.301 562.969 280.786C503.839 293.755 423.262 298.086 335.261 290.692C247.26 283.298 168.536 265.58 112.399 242.926C84.3277 231.597 61.9316 219.045 46.8479 205.952C31.7541 192.851 24.0639 179.284 25.1873 165.915Z" stroke="white" stroke-opacity="0.03"/>
<path d="M55.2009 108.346C59.2619 95.47 71.1664 85.6503 89.4039 78.9773C107.633 72.3074 132.101 68.8174 161.109 68.545C219.118 68.0003 295.166 80.3238 375.492 105.659C455.819 130.994 525.176 164.531 572.376 198.258C595.978 215.124 614.016 232.02 625.12 247.941C636.229 263.87 640.345 278.743 636.284 291.619C632.223 304.494 620.319 314.314 602.081 320.987C583.852 327.657 559.384 331.147 530.377 331.419C472.367 331.964 396.32 319.641 315.993 294.306C235.667 268.971 166.31 235.434 119.11 201.706C95.5074 184.841 77.4695 167.945 66.3654 152.023C55.2565 136.094 51.1399 121.221 55.2009 108.346Z" stroke="white" stroke-opacity="0.03"/>
<path d="M97.7056 61.0759C104.559 49.3455 118.032 42.142 136.675 39.2429C155.314 36.3447 179.039 37.7641 206.255 43.2044C260.68 54.084 328.949 81.0213 398.147 121.45C467.345 161.879 524.334 208.123 560.536 250.193C578.639 271.23 591.526 291.201 598.153 308.861C604.782 326.526 605.123 341.8 598.269 353.53C591.416 365.26 577.943 372.464 559.299 375.363C540.661 378.261 516.936 376.842 489.72 371.402C435.295 360.522 367.026 333.585 297.828 293.156C228.63 252.727 171.641 206.483 135.439 164.413C117.336 143.376 104.449 123.405 97.8218 105.745C91.1927 88.0805 90.8521 72.8062 97.7056 61.0759Z" stroke="white" stroke-opacity="0.03"/>
<path d="M149.152 26.9033C158.48 16.9105 172.966 12.5291 191.281 13.2569C209.595 13.9846 231.669 19.8204 256.068 30.179C304.862 50.8943 362.848 89.6529 418.445 141.555C474.041 193.458 516.689 248.647 540.705 295.904C552.714 319.534 560.051 341.156 562.034 359.376C564.018 377.598 560.641 392.351 551.312 402.343C541.983 412.336 527.498 416.718 509.182 415.99C490.869 415.262 468.795 409.426 444.396 399.068C395.602 378.352 337.615 339.594 282.019 287.691C226.422 235.789 183.775 180.6 159.759 133.343C147.75 109.712 140.412 88.0905 138.429 69.8704C136.446 51.6483 139.823 36.8961 149.152 26.9033Z" stroke="white" stroke-opacity="0.03"/>
<path d="M205.321 7.22789C216.667 -0.548374 231.591 -2.0507 248.936 1.98611C266.281 6.02302 285.994 15.5895 306.842 29.8686C348.535 58.425 394.677 105.768 435.365 165.136C476.053 224.505 503.557 284.621 515.146 333.809C520.941 358.405 522.75 380.241 520.257 397.875C517.763 415.508 510.977 428.884 499.631 436.661C488.284 444.437 473.36 445.939 456.015 441.902C438.67 437.865 418.957 428.299 398.109 414.02C356.416 385.464 310.274 338.121 269.586 278.752C228.898 219.384 201.394 159.268 189.805 110.08C184.01 85.484 182.201 63.6471 184.695 46.0136C187.188 28.3805 193.974 15.0042 205.321 7.22789Z" stroke="white" stroke-opacity="0.03"/>
<path d="M261.918 1.95721C274.732 -3.27419 289.551 -1.98402 305.42 4.91641C321.292 11.8177 338.176 24.3158 355.067 41.4254C388.846 75.6428 422.581 128.23 448.242 191.082C473.902 253.933 486.611 315.105 486.432 363.187C486.342 387.229 483.03 407.972 476.523 424.01C470.017 440.046 460.336 451.339 447.522 456.57C434.708 461.802 419.889 460.512 404.02 453.611C388.148 446.71 371.264 434.212 354.373 417.102C320.594 382.885 286.859 330.297 261.198 267.446C235.538 204.594 222.829 143.422 223.008 95.3406C223.098 71.2984 226.41 50.555 232.917 34.5172C239.423 18.4815 249.104 7.18861 261.918 1.95721Z" stroke="white" stroke-opacity="0.03"/>
<path d="M315.118 9.67275C328.813 7.14727 343.056 11.0215 357.11 20.2657C371.166 29.5119 385.005 44.1143 397.857 62.9815C423.558 100.715 445.253 155.425 456.824 218.169C468.395 280.913 467.643 339.763 457.091 384.182C451.815 406.392 444.095 424.971 434.262 438.622C424.43 452.271 412.505 460.971 398.811 463.497C385.117 466.022 370.873 462.148 356.82 452.904C342.763 443.658 328.924 429.055 316.073 410.188C290.371 372.455 268.676 317.745 257.105 255.001C245.534 192.257 246.287 133.406 256.838 88.9877C262.114 66.7776 269.834 48.1992 279.668 34.5473C289.499 20.8983 301.424 12.1982 315.118 9.67275Z" stroke="white" stroke-opacity="0.03"/>
<path d="M361.968 27.9665C389.985 28.3244 415.193 52.6328 433.233 91.9947C451.256 131.318 462.036 185.498 461.273 245.209C460.51 304.92 448.35 358.806 429.328 397.657C410.288 436.545 384.467 460.201 356.451 459.843C328.434 459.485 303.226 435.177 285.186 395.815C267.163 356.491 256.383 302.312 257.146 242.601C257.909 182.89 270.069 129.004 289.091 90.1532C308.131 51.265 333.952 27.6085 361.968 27.9665Z" stroke="white" stroke-opacity="0.03"/>
<path d="M400.594 53.8955C428.24 59.379 449.044 86.2989 460.227 125.665C471.401 165.003 472.916 216.621 462.093 271.186C451.27 325.752 430.169 372.884 404.826 404.979C379.465 437.097 349.96 454.038 322.314 448.555C294.668 443.071 273.864 416.151 262.681 376.785C251.506 337.447 249.992 285.829 260.815 231.264C271.638 176.698 292.739 129.566 318.082 97.4714C343.443 65.3534 372.948 48.412 400.594 53.8955Z" stroke="white" stroke-opacity="0.03"/>
<path d="M430.206 84.4238C456.691 94.5399 473.37 123.103 478.81 161.309C484.246 199.496 478.428 247.196 460.038 295.343C441.647 343.491 414.185 382.924 384.675 407.762C355.15 432.614 323.676 442.784 297.191 432.668C270.706 422.552 254.027 393.989 248.587 355.783C243.151 317.596 248.969 269.896 267.359 221.749C285.75 173.601 313.212 134.168 342.722 109.329C372.247 84.4779 403.72 74.3076 430.206 84.4238Z" stroke="white" stroke-opacity="0.03"/>
<path d="M450.946 116.789C475.721 130.915 488.76 160.341 489.703 196.639C490.647 232.926 479.492 275.989 455.988 317.21C432.484 358.431 401.105 389.962 369.396 407.631C337.678 425.305 305.714 429.07 280.939 414.943C256.164 400.817 243.125 371.391 242.181 335.093C241.238 298.806 252.393 255.743 275.897 214.522C299.401 173.302 330.779 141.77 362.488 124.101C394.207 106.427 426.171 102.662 450.946 116.789Z" stroke="white" stroke-opacity="0.03"/>
<path d="M463.639 148.754C486.401 166.215 496.421 195.926 494.131 229.939C491.841 263.948 477.242 302.194 450.851 336.598C424.46 371.001 391.302 395.012 359.048 406.035C326.79 417.06 295.498 415.081 272.736 397.62C249.973 380.159 239.954 350.448 242.244 316.435C244.534 282.427 259.133 244.18 285.524 209.776C311.915 175.373 345.073 151.363 377.326 140.339C409.584 129.314 440.877 131.294 463.639 148.754Z" stroke="white" stroke-opacity="0.03"/>
<path d="M469.507 178.721C490.185 198.848 497.883 228.454 493.55 260.103C489.217 291.751 472.854 325.405 445.466 353.543C418.077 381.681 384.877 398.947 353.357 404.132C321.837 409.318 292.034 402.422 271.355 382.294C250.677 362.166 242.979 332.56 247.312 300.912C251.645 269.264 268.008 235.609 295.397 207.471C322.785 179.334 355.985 162.068 387.505 156.882C419.025 151.697 448.828 158.593 469.507 178.721Z" stroke="white" stroke-opacity="0.03"/>
<path d="M469.921 205.737C507.359 250.085 494.339 322.847 440.561 368.245C386.783 413.642 312.868 414.267 275.431 369.919C237.993 325.57 251.013 252.808 304.791 207.411C358.569 162.013 432.484 161.388 469.921 205.737Z" stroke="white" stroke-opacity="0.03"/>
<path d="M466.202 229.427C500.316 276.808 487.157 344.668 436.72 380.982C386.283 417.297 317.753 408.252 283.639 360.87C249.525 313.488 262.684 245.629 313.121 209.314C363.558 173 432.087 182.045 466.202 229.427Z" stroke="white" stroke-opacity="0.03"/>
<path d="M459.5 249.878C491.122 299.387 479.822 363.025 434.383 392.049C388.943 421.073 326.452 404.566 294.83 355.058C263.207 305.55 274.507 241.911 319.947 212.887C365.386 183.864 427.877 200.37 459.5 249.878Z" stroke="white" stroke-opacity="0.03"/>
<path d="M450.745 267.528C480.879 318.394 473.16 378.411 433.856 401.695C394.553 424.98 338.207 402.916 308.073 352.051C277.939 301.185 285.659 241.168 324.962 217.884C364.265 194.6 420.612 216.663 450.745 267.528Z" stroke="white" stroke-opacity="0.03"/>
<path d="M440.658 283.043C455.509 308.766 462.307 335.864 461.314 358.868C460.321 381.878 451.543 400.717 435.329 410.078C419.115 419.439 398.412 417.622 377.987 406.976C357.569 396.334 337.5 376.898 322.649 351.176C307.798 325.453 301.001 298.355 301.994 275.351C302.987 252.341 311.765 233.502 327.978 224.141C344.192 214.78 364.896 216.598 385.32 227.243C405.738 237.885 425.807 257.321 440.658 283.043Z" stroke="white" stroke-opacity="0.03"/>
</svg>
