<svg width="209" height="209" viewBox="0 0 209 209" fill="none" xmlns="http://www.w3.org/2000/svg">
<path d="M54.1666 399.763C45.3775 390.077 44.6098 373.762 51.0262 352.332C57.4325 330.935 70.9529 304.61 90.4578 275.097C129.463 216.078 192.336 144.408 269.834 74.0892C347.333 3.77013 424.758 -51.8612 487.279 -84.9635C518.544 -101.516 546.055 -112.422 567.972 -116.725C589.923 -121.034 606.086 -118.689 614.876 -109.003C623.665 -99.3162 624.432 -83.0014 618.016 -61.5711C611.61 -40.1751 598.089 -13.8496 578.584 15.6634C539.579 74.6827 476.706 146.352 399.208 216.671C321.709 286.99 244.284 342.622 181.763 375.724C150.498 392.277 122.987 403.183 101.07 407.485C79.1193 411.795 62.9556 409.449 54.1666 399.763Z" stroke="white" stroke-opacity="0.05"/>
<path d="M26.0051 341.815C19.162 330.57 21.1161 314.552 30.7931 295.064C40.4571 275.602 57.7556 252.823 81.3197 228.185C128.443 178.914 200.541 122.294 286.447 70.0159C372.352 17.7377 455.77 -20.2819 521.184 -39.4961C553.895 -49.1042 582.075 -54.0015 603.802 -53.6421C625.557 -53.2823 640.681 -47.658 647.525 -36.4131C654.368 -25.1682 652.414 -9.15085 642.737 10.3375C633.073 29.7995 615.774 52.5787 592.21 77.2167C545.087 126.487 472.989 183.107 387.083 235.386C301.177 287.664 217.76 325.684 152.346 344.898C119.635 354.506 91.4544 359.403 69.7281 359.044C47.9725 358.684 32.8482 353.06 26.0051 341.815Z" stroke="white" stroke-opacity="0.05"/>
<path d="M10.5555 277.991C6.07748 265.524 10.8048 250.293 23.4634 233.341C36.1079 216.408 56.5836 197.873 83.3332 178.868C136.826 140.862 215.313 101.042 306.113 68.4294C396.912 35.8169 482.799 16.5995 548.249 11.8845C580.978 9.52672 608.567 10.7977 629.096 15.8161C649.648 20.8402 662.986 29.5824 667.464 42.0501C671.942 54.5179 667.214 69.7485 654.556 86.7007C641.911 103.634 621.435 122.168 594.686 141.173C541.193 179.179 462.706 219 371.906 251.612C281.107 284.225 195.22 303.442 129.77 308.157C97.0411 310.515 69.4519 309.244 48.9229 304.225C28.3711 299.201 15.0335 290.459 10.5555 277.991Z" stroke="white" stroke-opacity="0.05"/>
<path d="M10.0261 211.926C8.24759 198.713 15.6555 184.795 30.8297 170.913C45.9906 157.044 68.813 143.299 97.6167 130.45C155.218 104.756 236.632 82.6937 328.201 70.3681C419.77 58.0425 504.12 57.7925 566.465 67.3416C597.641 72.1166 623.285 79.3377 641.574 88.7049C659.879 98.0802 670.703 109.544 672.482 122.757C674.26 135.97 666.852 149.888 651.678 163.77C636.517 177.639 613.695 191.384 584.891 204.233C527.29 229.927 445.876 251.989 354.307 264.315C262.738 276.641 178.388 276.891 116.043 267.341C84.8668 262.566 59.2224 255.345 40.9337 245.978C22.629 236.603 11.8045 225.139 10.0261 211.926Z" stroke="white" stroke-opacity="0.05"/>
<path d="M25.1874 147.915C26.3107 134.546 36.157 122.452 53.2255 112.053C70.2826 101.661 94.4592 93.0225 124.027 86.5373C183.158 73.5683 263.734 69.2367 351.735 76.6311C439.737 84.0256 518.461 101.743 574.597 124.397C602.669 135.726 625.065 148.278 640.149 161.371C655.242 174.472 662.932 188.039 661.809 201.408C660.686 214.777 650.839 226.871 633.771 237.27C616.714 247.662 592.537 256.301 562.969 262.786C503.839 275.755 423.262 280.086 335.261 272.692C247.26 265.298 168.536 247.58 112.399 224.926C84.3277 213.597 61.9317 201.045 46.8479 187.952C31.7542 174.851 24.064 161.284 25.1874 147.915Z" stroke="white" stroke-opacity="0.05"/>
<path d="M55.2009 90.3457C59.2619 77.47 71.1664 67.6503 89.4039 60.9773C107.633 54.3074 132.101 50.8174 161.109 50.545C219.118 50.0003 295.166 62.3238 375.492 87.6586C455.819 112.994 525.176 146.531 572.376 180.258C595.978 197.124 614.016 214.02 625.12 229.941C636.229 245.87 640.345 260.743 636.284 273.619C632.223 286.494 620.319 296.314 602.081 302.987C583.852 309.657 559.384 313.147 530.377 313.419C472.367 313.964 396.32 301.641 315.993 276.306C235.667 250.971 166.31 217.434 119.11 183.706C95.5074 166.841 77.4695 149.945 66.3654 134.023C55.2565 118.094 51.1399 103.221 55.2009 90.3457Z" stroke="white" stroke-opacity="0.05"/>
<path d="M97.7056 43.0759C104.559 31.3455 118.032 24.142 136.675 21.2429C155.314 18.3447 179.039 19.7641 206.255 25.2044C260.68 36.084 328.949 63.0213 398.147 103.45C467.345 143.879 524.334 190.123 560.536 232.193C578.639 253.23 591.526 273.201 598.153 290.861C604.782 308.526 605.123 323.8 598.269 335.53C591.416 347.26 577.943 354.464 559.299 357.363C540.661 360.261 516.936 358.842 489.72 353.402C435.295 342.522 367.026 315.585 297.828 275.156C228.63 234.727 171.641 188.483 135.439 146.413C117.336 125.376 104.449 105.405 97.8218 87.7449C91.1927 70.0805 90.8521 54.8062 97.7056 43.0759Z" stroke="white" stroke-opacity="0.05"/>
<path d="M149.151 8.90333C158.48 -1.08947 172.966 -5.47085 191.281 -4.7431C209.594 -4.01537 231.669 1.82045 256.068 12.179C304.862 32.8943 362.848 71.6529 418.445 123.555C474.041 175.458 516.689 230.647 540.705 277.904C552.714 301.534 560.051 323.156 562.034 341.376C564.017 359.598 560.641 374.351 551.312 384.343C541.983 394.336 527.497 398.718 509.182 397.99C490.869 397.262 468.794 391.426 444.395 381.068C395.602 360.352 337.615 321.594 282.019 269.691C226.422 217.789 183.774 162.6 159.759 115.343C147.75 91.7124 140.412 70.0905 138.429 51.8704C136.446 33.6483 139.823 18.8961 149.151 8.90333Z" stroke="white" stroke-opacity="0.05"/>
<path d="M205.321 -10.7721C216.667 -18.5484 231.591 -20.0507 248.936 -16.0139C266.281 -11.977 285.994 -2.41054 306.842 11.8686C348.535 40.425 394.677 87.7678 435.365 147.136C476.053 206.505 503.557 266.621 515.146 315.809C520.941 340.405 522.75 362.241 520.257 379.875C517.763 397.508 510.977 410.884 499.631 418.661C488.284 426.437 473.36 427.939 456.015 423.902C438.67 419.865 418.957 410.299 398.109 396.02C356.416 367.464 310.274 320.121 269.586 260.752C228.898 201.384 201.394 141.268 189.805 92.0797C184.01 67.484 182.201 45.6471 184.695 28.0136C187.188 10.3805 193.974 -2.99584 205.321 -10.7721Z" stroke="white" stroke-opacity="0.05"/>
<path d="M261.918 -16.0428C274.732 -21.2742 289.551 -19.984 305.42 -13.0836C321.292 -6.18225 338.176 6.31582 355.067 23.4254C388.846 57.6428 422.581 110.23 448.242 173.082C473.902 235.933 486.611 297.105 486.432 345.187C486.342 369.229 483.03 389.972 476.523 406.01C470.017 422.046 460.336 433.339 447.522 438.57C434.708 443.802 419.889 442.512 404.02 435.611C388.148 428.71 371.264 416.212 354.373 399.102C320.594 364.885 286.859 312.297 261.198 249.446C235.538 186.594 222.829 125.422 223.008 77.3406C223.098 53.2984 226.41 32.555 232.917 16.5172C239.423 0.481462 249.104 -10.8114 261.918 -16.0428Z" stroke="white" stroke-opacity="0.05"/>
<path d="M430.206 66.4238C456.691 76.5399 473.37 105.103 478.81 143.309C484.246 181.496 478.428 229.196 460.038 277.343C441.647 325.491 414.185 364.924 384.675 389.762C355.15 414.614 323.676 424.784 297.191 414.668C270.706 404.552 254.027 375.989 248.587 337.783C243.151 299.596 248.969 251.896 267.359 203.749C285.75 155.601 313.212 116.168 342.722 91.3294C372.247 66.4779 403.72 56.3076 430.206 66.4238Z" stroke="white" stroke-opacity="0.05"/>
<path d="M450.946 98.7888C475.72 112.915 488.759 142.341 489.703 178.639C490.647 214.926 479.492 257.989 455.988 299.21C432.484 340.431 401.105 371.962 369.396 389.631C337.678 407.305 305.713 411.07 280.939 396.943C256.164 382.817 243.125 353.391 242.181 317.093C241.238 280.806 252.393 237.743 275.896 196.522C299.4 155.302 330.779 123.77 362.488 106.101C394.207 88.4274 426.171 84.6623 450.946 98.7888Z" stroke="white" stroke-opacity="0.05"/>
<path d="M463.639 130.754C486.401 148.215 496.421 177.926 494.131 211.939C491.841 245.948 477.242 284.194 450.851 318.598C424.46 353.001 391.302 377.012 359.048 388.035C326.79 399.06 295.498 397.081 272.736 379.62C249.973 362.159 239.954 332.448 242.244 298.435C244.534 264.427 259.133 226.18 285.524 191.776C311.915 157.373 345.073 133.363 377.326 122.339C409.584 111.314 440.877 113.294 463.639 130.754Z" stroke="white" stroke-opacity="0.05"/>
<path d="M469.507 160.721C490.185 180.848 497.883 210.454 493.55 242.103C489.217 273.751 472.854 307.405 445.466 335.543C418.077 363.681 384.877 380.947 353.357 386.132C321.837 391.318 292.034 384.422 271.355 364.294C250.677 344.166 242.979 314.56 247.312 282.912C251.645 251.264 268.008 217.609 295.397 189.471C322.785 161.334 355.985 144.068 387.505 138.882C419.025 133.697 448.828 140.593 469.507 160.721Z" stroke="white" stroke-opacity="0.05"/>
<path d="M469.921 187.737C507.359 232.085 494.339 304.847 440.561 350.245C386.783 395.642 312.868 396.267 275.431 351.919C237.993 307.57 251.013 234.808 304.791 189.411C358.569 144.013 432.484 143.388 469.921 187.737Z" stroke="white" stroke-opacity="0.05"/>
</svg>
