<svg width="209" height="220" viewBox="0 0 209 220" fill="none" xmlns="http://www.w3.org/2000/svg">
<path d="M40.5762 272.541C34.247 265.565 33.6704 253.786 38.3261 238.237C42.9715 222.722 52.7792 203.622 66.9363 182.201C95.2462 139.365 140.883 87.3417 197.141 36.2956C253.399 -14.7505 309.6 -55.1312 354.978 -79.1566C377.67 -91.1712 397.63 -99.0819 413.522 -102.202C429.45 -105.329 441.118 -103.613 447.447 -96.638C453.776 -89.6627 454.353 -77.8836 449.697 -62.3342C445.051 -46.819 435.244 -27.7196 421.087 -6.29837C392.777 36.5375 347.14 88.5609 290.882 139.607C234.624 190.653 178.423 231.034 133.045 255.059C110.353 267.074 90.3927 274.985 74.5005 278.105C58.5731 281.231 46.9053 279.516 40.5762 272.541Z" stroke="white" stroke-opacity="0.05"/>
<path d="M20.1468 230.491C15.2172 222.39 16.6082 210.82 23.6286 196.682C30.6358 182.571 43.1841 166.044 60.2871 148.162C94.4879 112.402 146.821 71.3035 209.181 33.354C271.541 -4.59556 332.091 -32.1919 379.567 -46.1371C403.309 -53.1108 423.753 -56.6621 439.506 -56.4016C455.289 -56.1405 466.205 -52.0597 471.135 -43.9591C476.064 -35.8585 474.673 -24.2885 467.653 -10.1504C460.645 3.96137 448.097 20.4875 430.994 38.37C396.793 74.1295 344.461 115.228 282.1 153.178C219.74 191.128 159.19 218.724 111.714 232.669C87.9725 239.643 67.5285 243.194 51.7749 242.934C35.9919 242.672 25.0765 238.592 20.1468 230.491Z" stroke="white" stroke-opacity="0.05"/>
<path d="M8.94215 184.18C5.71507 175.196 9.11219 164.189 18.2941 151.893C27.4619 139.615 42.3145 126.169 61.729 112.375C100.552 84.792 157.521 55.8877 223.433 32.2141C289.346 8.54044 351.686 -5.40774 399.188 -8.8297C422.942 -10.5409 442.955 -9.61751 457.84 -5.97889C472.747 -2.3347 482.371 3.99531 485.598 12.9802C488.825 21.965 485.428 32.9718 476.246 45.2681C467.078 57.5455 452.226 70.9919 432.811 84.7855C393.988 112.369 337.019 141.273 271.107 164.947C205.195 188.62 142.854 202.568 95.3527 205.99C71.5986 207.702 51.5848 206.778 36.7004 203.139C21.7932 199.495 12.1692 193.165 8.94215 184.18Z" stroke="white" stroke-opacity="0.05"/>
<path d="M8.56463 136.245C7.2825 126.72 12.6199 116.657 23.6247 106.59C34.6163 96.5342 51.1704 86.5625 72.0753 77.2375C113.879 58.5901 172.971 42.5756 239.441 33.6285C305.911 24.6814 367.135 24.5008 412.382 31.4309C435.008 34.8965 453.61 40.136 466.869 46.9271C480.144 53.7264 487.952 62.0199 489.234 71.5452C490.517 81.0704 485.179 91.1334 474.174 101.201C463.183 111.256 446.629 121.228 425.724 130.553C383.92 149.2 324.828 165.215 258.358 174.162C191.888 183.109 130.664 183.29 85.4175 176.36C62.791 172.894 44.1893 167.654 30.9302 160.863C17.6551 154.064 9.84677 145.77 8.56463 136.245Z" stroke="white" stroke-opacity="0.05"/>
<path d="M19.5725 89.8029C20.3826 80.1613 27.4862 71.4135 39.8628 63.8731C52.2282 56.3395 69.764 50.0718 91.223 45.3652C134.135 35.9534 192.619 32.8085 256.498 38.176C320.377 43.5436 377.516 56.404 418.255 72.8447C438.628 81.0662 454.872 90.1723 465.807 99.6637C476.751 109.164 482.296 118.974 481.485 128.616C480.675 138.258 473.572 147.005 461.195 154.546C448.83 162.079 431.294 168.347 409.835 173.054C366.923 182.465 308.439 185.61 244.56 180.243C180.681 174.875 123.542 162.015 82.8028 145.574C62.4301 137.353 46.1861 128.247 35.2513 118.755C24.3065 109.255 18.7623 99.4446 19.5725 89.8029Z" stroke="white" stroke-opacity="0.05"/>
<path d="M41.3563 48.0376C44.2861 38.7484 52.8817 31.6416 66.1041 26.8036C79.3182 21.9687 97.0645 19.4358 118.116 19.2381C160.212 18.8429 215.408 27.7863 273.715 46.1762C332.022 64.5662 382.361 88.9084 416.614 113.384C433.742 125.624 446.824 137.88 454.873 149.421C462.927 160.97 465.89 171.722 462.96 181.011C460.031 190.3 451.435 197.407 438.213 202.245C424.999 207.08 407.252 209.613 386.201 209.81C344.104 210.206 288.908 201.262 230.601 182.872C172.294 164.482 121.955 140.14 87.7029 115.664C70.5744 103.425 57.4926 91.1689 49.4435 79.6276C41.3893 68.079 38.4265 57.3268 41.3563 48.0376Z" stroke="white" stroke-opacity="0.05"/>
<path d="M72.2022 13.7476C77.1485 5.28158 86.8825 0.0647509 100.397 -2.03679C113.907 -4.13753 131.114 -3.10977 150.863 0.838176C190.358 8.73307 239.907 28.2827 290.135 57.6284C340.363 86.9742 381.723 120.538 407.994 151.067C421.131 166.333 430.476 180.818 435.28 193.618C440.085 206.423 440.32 217.465 435.374 225.931C430.428 234.397 420.694 239.613 407.179 241.715C393.67 243.816 376.462 242.788 356.713 238.84C317.218 230.945 267.67 211.396 217.441 182.05C167.213 152.704 125.853 119.14 99.5819 88.6115C86.4449 73.3454 77.1002 58.8602 72.2966 46.06C67.4911 33.255 67.2559 22.2137 72.2022 13.7476Z" stroke="white" stroke-opacity="0.05"/>
<path d="M109.534 -11.0371C116.269 -18.2517 126.74 -21.4284 140.014 -20.9009C153.287 -20.3735 169.296 -16.143 187.001 -8.62635C222.407 6.40519 264.492 34.5336 304.847 72.2068C345.201 109.88 376.152 149.935 393.579 184.225C402.293 201.373 407.612 217.054 409.05 230.259C410.487 243.466 408.037 254.13 401.301 261.345C394.566 268.559 384.096 271.736 370.821 271.208C357.548 270.681 341.539 266.45 323.834 258.934C288.428 243.902 246.343 215.774 205.989 178.101C165.634 140.428 134.683 100.373 117.257 66.0821C108.542 48.9349 103.223 33.254 101.786 20.0486C100.348 6.84128 102.799 -3.82237 109.534 -11.0371Z" stroke="white" stroke-opacity="0.05"/>
<path d="M150.29 -25.3019C158.485 -30.9183 169.276 -32.0125 181.846 -29.087C194.416 -26.1614 208.712 -19.2258 223.839 -8.86476C254.091 11.8553 287.579 46.2126 317.111 89.3037C346.643 132.395 366.603 176.023 375.012 211.714C379.217 229.56 380.527 245.396 378.72 258.175C376.913 270.954 371.998 280.623 363.803 286.239C355.608 291.856 344.817 292.95 332.247 290.024C319.677 287.099 305.381 280.163 290.254 269.802C260.002 249.082 226.514 214.725 196.982 171.634C167.45 128.543 147.49 84.914 139.081 49.2238C134.876 31.3771 133.566 15.5418 135.373 2.76258C137.181 -10.0162 142.095 -19.6855 150.29 -25.3019Z" stroke="white" stroke-opacity="0.05"/>
<path d="M191.354 -29.1145C200.612 -32.8943 211.33 -31.9675 222.83 -26.9673C234.332 -21.9662 246.575 -12.9053 258.83 -0.491271C283.339 24.3349 307.822 62.4969 326.446 108.115C345.07 153.732 354.292 198.125 354.161 233.01C354.096 250.454 351.693 265.495 346.978 277.117C342.263 288.737 335.256 296.9 325.998 300.68C316.74 304.46 306.022 303.533 294.522 298.533C283.02 293.532 270.777 284.471 258.522 272.057C234.013 247.231 209.531 209.068 190.906 163.451C172.282 117.833 163.06 73.4406 163.191 38.5553C163.256 21.1113 165.659 6.07053 170.374 -5.55138C175.089 -17.1712 182.096 -25.3348 191.354 -29.1145Z" stroke="white" stroke-opacity="0.05"/>
<path d="M229.95 -23.5051C239.848 -25.3305 250.153 -22.5328 260.336 -15.8349C270.521 -9.13515 280.556 1.45117 289.88 15.1393C308.526 42.5144 324.271 82.2152 332.669 127.753C341.067 173.291 340.519 215.996 332.864 248.221C329.036 264.335 323.437 277.804 316.312 287.697C309.188 297.586 300.559 303.875 290.661 305.701C280.763 307.526 270.458 304.728 260.275 298.031C250.09 291.331 240.055 280.745 230.731 267.056C212.085 239.681 196.34 199.981 187.942 154.443C179.544 108.905 180.092 66.1997 187.747 33.9743C191.575 17.8608 197.174 4.39129 204.299 -5.50088C211.423 -15.3903 220.052 -21.6798 229.95 -23.5051Z" stroke="white" stroke-opacity="0.05"/>
<path d="M263.936 -10.2216C284.193 -9.96284 302.46 7.61788 315.552 36.1828C328.626 64.7095 336.45 104.023 335.896 147.357C335.342 190.691 326.517 229.792 312.718 257.975C298.901 286.197 280.19 303.305 259.934 303.046C239.678 302.787 221.41 285.207 208.319 256.642C195.244 228.115 187.421 188.801 187.975 145.467C188.528 102.133 197.353 63.0324 211.152 34.849C224.97 6.62786 243.68 -10.4804 263.936 -10.2216Z" stroke="white" stroke-opacity="0.05"/>
<path d="M291.953 8.60001C311.948 12.5658 327.028 32.0448 335.142 60.6079C343.248 89.142 344.348 126.594 336.494 166.192C328.64 205.789 313.328 239.986 294.945 263.266C276.544 286.57 255.17 298.819 235.176 294.853C215.182 290.887 200.101 271.408 191.988 242.845C183.882 214.311 182.782 176.859 190.636 137.261C198.49 97.6636 213.801 63.4668 232.184 40.1866C250.586 16.8827 271.959 4.63424 291.953 8.60001Z" stroke="white" stroke-opacity="0.05"/>
<path d="M313.43 30.757C332.59 38.0755 344.683 58.7509 348.629 86.4669C352.572 114.163 348.353 148.77 335.008 183.707C321.664 218.645 301.738 247.252 280.335 265.267C258.917 283.295 236.12 290.644 216.959 283.326C197.799 276.007 185.706 255.332 181.76 227.616C177.816 199.919 182.036 165.313 195.38 130.375C208.725 95.438 228.651 66.8307 250.054 48.8153C271.472 30.7874 294.269 23.4386 313.43 30.757Z" stroke="white" stroke-opacity="0.05"/>
<path d="M328.468 54.245C346.396 64.4679 355.852 85.7745 356.536 112.101C357.221 138.416 349.131 169.655 332.077 199.563C315.024 229.472 292.259 252.344 269.264 265.157C246.259 277.976 223.107 280.689 205.179 270.467C187.25 260.244 177.794 238.937 177.11 212.611C176.426 186.296 184.516 155.056 201.569 125.148C218.623 95.24 241.387 72.3679 264.382 59.5546C287.387 46.736 310.539 44.0221 328.468 54.245Z" stroke="white" stroke-opacity="0.05"/>
<path d="M337.668 77.4417C354.145 90.0815 361.412 111.6 359.751 136.264C358.091 160.923 347.504 188.665 328.358 213.624C309.213 238.582 285.161 255.996 261.774 263.989C238.383 271.983 215.716 270.54 199.239 257.9C182.761 245.26 175.495 223.742 177.155 199.078C178.816 174.419 189.403 146.677 208.549 121.718C227.694 96.7599 251.745 79.3464 275.133 71.3532C298.524 63.3587 321.19 64.8019 337.668 77.4417Z" stroke="white" stroke-opacity="0.05"/>
<path d="M341.915 99.1866C356.889 113.762 362.472 135.208 359.331 158.153C356.189 181.098 344.324 205.505 324.459 225.914C304.593 246.323 280.516 258.842 257.664 262.602C234.812 266.361 213.223 261.36 198.249 246.784C183.275 232.209 177.692 210.763 180.834 187.818C183.975 164.873 195.84 140.466 215.705 120.057C235.571 99.6478 259.648 87.1287 282.5 83.3692C305.352 79.6097 326.941 84.6113 341.915 99.1866Z" stroke="white" stroke-opacity="0.05"/>
<path d="M342.207 118.79C369.323 150.912 359.912 203.652 320.908 236.578C281.904 269.504 228.333 269.931 201.217 237.81C174.101 205.688 183.512 152.948 222.516 120.022C261.52 87.0961 315.091 86.6689 342.207 118.79Z" stroke="white" stroke-opacity="0.05"/>
<path d="M339.5 135.981C364.219 170.312 354.69 219.494 318.128 245.819C281.565 272.143 231.901 265.58 207.183 231.248C182.464 196.917 191.993 147.735 228.555 121.411C265.117 95.086 314.782 101.65 339.5 135.981Z" stroke="white" stroke-opacity="0.05"/>
<path d="M334.63 150.823C357.553 186.711 349.354 232.824 316.437 253.849C283.521 274.874 238.234 262.924 215.311 227.035C192.388 191.147 200.588 145.034 233.504 124.009C266.421 102.984 311.707 114.934 334.63 150.823Z" stroke="white" stroke-opacity="0.05"/>
<path d="M328.272 163.633C350.128 200.525 344.502 243.999 316.059 260.85C287.616 277.7 246.784 261.748 224.928 224.856C203.072 187.964 208.698 144.489 237.141 127.639C265.585 110.788 306.416 126.74 328.272 163.633Z" stroke="white" stroke-opacity="0.05"/>
<path d="M320.948 174.895C331.719 193.55 336.645 213.198 335.926 229.869C335.206 246.547 328.846 260.17 317.129 266.935C305.413 273.699 290.435 272.396 275.631 264.68C260.834 256.968 246.282 242.877 235.511 224.222C224.741 205.567 219.814 185.919 220.533 169.248C221.253 152.57 227.613 138.947 239.33 132.182C251.046 125.418 266.025 126.721 280.828 134.437C295.625 142.149 310.177 156.24 320.948 174.895Z" stroke="white" stroke-opacity="0.05"/>
</svg>
