<svg width="106" height="90" viewBox="0 0 106 90" fill="none" xmlns="http://www.w3.org/2000/svg">
<path d="M1.13879 45L25.111 1H80.1762L104.853 45L80.1762 89H25.111L1.13879 45Z" fill="url(#paint0_linear_506_106798)" stroke="#B9383D" stroke-width="2"/>
<path fill-rule="evenodd" clip-rule="evenodd" d="M19.2861 50.2034C18.2506 51.2401 16.5716 51.2401 15.5361 50.2034C14.5006 49.1667 14.5006 47.4859 15.5361 46.4492C16.5716 45.4125 18.2506 45.4125 19.2861 46.4492C20.3216 47.4859 20.3216 49.1667 19.2861 50.2034ZM18.9545 48.2745C18.5487 48.6807 17.8909 48.6807 17.4852 48.2745C17.0795 47.8683 17.0795 47.2097 17.4852 46.8036C17.8909 46.3974 18.5487 46.3974 18.9545 46.8036C19.3602 47.2097 19.3602 47.8683 18.9545 48.2745ZM17.2247 50.3007C17.4621 50.5384 17.8469 50.5384 18.0843 50.3007C18.3217 50.0631 18.3217 49.6778 18.0843 49.4401C17.8469 49.2024 17.4621 49.2024 17.2247 49.4401C16.9873 49.6778 16.9873 50.0631 17.2247 50.3007ZM16.132 48.6402C15.9991 48.7733 15.7837 48.7733 15.6508 48.6402C15.518 48.5072 15.518 48.2916 15.6508 48.1586C15.7837 48.0256 15.9991 48.0256 16.132 48.1586C16.2648 48.2916 16.2648 48.5072 16.132 48.6402Z" fill="white"/>
<path fill-rule="evenodd" clip-rule="evenodd" d="M55.5592 78.5214C54.4987 79.583 52.7794 79.583 51.7189 78.5214C50.6585 77.4597 50.6585 75.7385 51.7189 74.6768C52.7794 73.6152 54.4987 73.6152 55.5592 74.6768C56.6196 75.7385 56.6196 77.4597 55.5592 78.5214ZM55.2195 76.5458C54.8041 76.9618 54.1304 76.9618 53.7149 76.5458C53.2995 76.1299 53.2995 75.4555 53.7149 75.0395C54.1304 74.6236 54.8041 74.6236 55.2195 75.0395C55.635 75.4555 55.635 76.1299 55.2195 76.5458ZM53.4481 78.6209C53.6912 78.8643 54.0854 78.8643 54.3285 78.6209C54.5716 78.3775 54.5716 77.983 54.3285 77.7396C54.0854 77.4962 53.6912 77.4962 53.4481 77.7396C53.205 77.983 53.205 78.3775 53.4481 78.6209ZM52.3291 76.9205C52.1931 77.0568 51.9725 77.0568 51.8364 76.9205C51.7004 76.7843 51.7004 76.5635 51.8364 76.4273C51.9725 76.2911 52.1931 76.2911 52.3291 76.4273C52.4652 76.5635 52.4652 76.7843 52.3291 76.9205Z" fill="white"/>
<path fill-rule="evenodd" clip-rule="evenodd" d="M65.919 18.9781C64.3594 20.5394 61.8309 20.5394 60.2714 18.9781C58.7119 17.4168 58.7119 14.8854 60.2714 13.3241C61.8309 11.7629 64.3594 11.7629 65.919 13.3241C67.4785 14.8854 67.4785 17.4168 65.919 18.9781ZM65.4196 16.073C64.8085 16.6847 63.8179 16.6847 63.2068 16.073C62.5958 15.4613 62.5958 14.4695 63.2068 13.8578C63.8179 13.2461 64.8085 13.2461 65.4196 13.8578C66.0306 14.4695 66.0306 15.4613 65.4196 16.073ZM62.8148 19.1237C63.1721 19.4814 63.7515 19.4814 64.1088 19.1237C64.4661 18.766 64.4661 18.186 64.1088 17.8283C63.7515 17.4705 63.1721 17.4705 62.8148 17.8283C62.4575 18.186 62.4575 18.766 62.8148 19.1237ZM61.1688 16.624C60.9687 16.8243 60.6443 16.8243 60.4442 16.624C60.2441 16.4237 60.2441 16.0989 60.4442 15.8986C60.6443 15.6982 60.9687 15.6982 61.1688 15.8986C61.3689 16.0989 61.3689 16.4237 61.1688 16.624Z" fill="white"/>
<path fill-rule="evenodd" clip-rule="evenodd" d="M41.8983 67.5028C41.9675 67.438 42.0359 67.3718 42.1033 67.3043C45.333 64.071 45.3555 58.8515 42.1538 55.6461C38.952 52.4408 33.7383 52.4634 30.5087 55.6966C30.4412 55.7642 30.3752 55.8326 30.3105 55.9018L41.8983 67.5028Z" fill="white"/>
<path fill-rule="evenodd" clip-rule="evenodd" d="M28.8052 23.1901L25.9827 26.0157L26.8981 30.5977L37.5773 41.289L41.849 41.8999L44.6715 39.0743L28.8052 23.1901ZM30.9253 21.0676L46.7916 36.9518L48.5617 35.1797L47.9515 30.9032L37.2722 20.2119L32.6954 19.2955L30.9253 21.0676Z" fill="white"/>
<path fill-rule="evenodd" clip-rule="evenodd" d="M39.4079 48.0091L49.7821 58.3949L64.4279 43.7326L66.2586 39.4561L58.3255 31.514L54.0538 33.3467L39.4079 48.0091ZM60.7664 43.7326L54.0537 37.0124L43.6796 47.3982L50.3923 54.1184L60.7664 43.7326Z" fill="white"/>
<path fill-rule="evenodd" clip-rule="evenodd" d="M72.2835 55.2629L66.8689 49.8422L62.5972 49.2312L60.8271 51.0031L66.4155 56.598L72.2835 55.2629ZM63.1257 59.0035L57.9808 53.8527L55.8845 55.9512L56.4948 60.2277L64.2893 68.0313L63.1257 59.0035ZM70.056 76.332L68.9159 67.4869L76.5306 75.1101L74.4344 77.2086L70.056 76.332ZM68.6578 58.8428L74.5258 57.5077L77.5482 60.5334L78.4635 65.1152L76.6934 66.8874L68.6578 58.8428Z" fill="white"/>
<defs>
<linearGradient id="paint0_linear_506_106798" x1="77.8228" y1="90" x2="75.1279" y2="0.000340532" gradientUnits="userSpaceOnUse">
<stop stop-color="#9D2D2B"/>
<stop offset="1" stop-color="#1E1E1E"/>
</linearGradient>
</defs>
</svg>
