<svg width="106" height="90" viewBox="0 0 106 90" fill="none" xmlns="http://www.w3.org/2000/svg">
<path d="M1.13879 45L25.111 1H80.1762L104.853 45L80.1762 89H25.111L1.13879 45Z" fill="url(#paint0_linear_506_106794)" stroke="#8C62EE" stroke-width="2"/>
<path fill-rule="evenodd" clip-rule="evenodd" d="M31.359 67.2405C36.0874 71.9742 43.7537 71.9742 48.4821 67.2405C53.2104 62.5068 53.2104 54.8319 48.4821 50.0982C43.7537 45.3645 36.0874 45.3645 31.359 50.0982C26.6306 54.8319 26.6306 62.5068 31.359 67.2405ZM32.8733 58.4329C34.7259 60.2875 37.7296 60.2875 39.5822 58.4329C41.4348 56.5782 41.4348 53.5711 39.5822 51.7165C37.7296 49.8618 34.7259 49.8618 32.8733 51.7165C31.0207 53.5711 31.0207 56.5782 32.8733 58.4329ZM40.7707 67.6825C39.6874 68.7671 37.9309 68.7671 36.8475 67.6825C35.7642 66.5979 35.7642 64.8395 36.8475 63.7549C37.9309 62.6703 39.6874 62.6703 40.7707 63.7549C41.8541 64.8395 41.8541 66.5979 40.7707 67.6825ZM45.7619 60.1012C46.3682 60.7082 47.3513 60.7082 47.9576 60.1012C48.564 59.4942 48.564 58.51 47.9576 57.903C47.3513 57.296 46.3682 57.296 45.7619 57.903C45.1556 58.51 45.1556 59.4942 45.7619 60.1012Z" fill="white"/>
<path fill-rule="evenodd" clip-rule="evenodd" d="M28.6784 30.0541C27.6429 31.0908 25.964 31.0908 24.9285 30.0541C23.8929 29.0174 23.8929 27.3366 24.9285 26.2999C25.964 25.2632 27.6429 25.2632 28.6784 26.2999C29.714 27.3366 29.714 29.0174 28.6784 30.0541ZM28.3468 28.1252C27.9411 28.5314 27.2833 28.5314 26.8776 28.1252C26.4718 27.719 26.4718 27.0605 26.8776 26.6543C27.2833 26.2481 27.9411 26.2481 28.3468 26.6543C28.7525 27.0605 28.7525 27.719 28.3468 28.1252ZM26.617 30.1515C26.8544 30.3891 27.2393 30.3891 27.4767 30.1515C27.7141 29.9138 27.7141 29.5285 27.4767 29.2908C27.2393 29.0532 26.8544 29.0532 26.617 29.2908C26.3796 29.5285 26.3796 29.9138 26.617 30.1515ZM25.5243 28.491C25.3914 28.624 25.176 28.624 25.0432 28.491C24.9103 28.358 24.9103 28.1423 25.0432 28.0093C25.176 27.8763 25.3914 27.8763 25.5243 28.0093C25.6572 28.1423 25.6572 28.358 25.5243 28.491Z" fill="white"/>
<path fill-rule="evenodd" clip-rule="evenodd" d="M74.2988 74.3825C73.2633 75.4192 71.5843 75.4192 70.5488 74.3825C69.5133 73.3458 69.5133 71.665 70.5488 70.6283C71.5843 69.5916 73.2633 69.5916 74.2988 70.6283C75.3343 71.665 75.3343 73.3458 74.2988 74.3825ZM73.9672 72.4536C73.5614 72.8597 72.9036 72.8597 72.4979 72.4536C72.0922 72.0474 72.0922 71.3888 72.4979 70.9827C72.9036 70.5765 73.5614 70.5765 73.9672 70.9827C74.3729 71.3888 74.3729 72.0474 73.9672 72.4536ZM72.2374 74.4798C72.4747 74.7175 72.8596 74.7175 73.097 74.4798C73.3344 74.2422 73.3344 73.8569 73.097 73.6192C72.8596 73.3815 72.4747 73.3815 72.2374 73.6192C72 73.8569 72 74.2422 72.2374 74.4798ZM71.1447 72.8193C71.0118 72.9524 70.7964 72.9524 70.6635 72.8193C70.5307 72.6863 70.5307 72.4707 70.6635 72.3377C70.7964 72.2046 71.0118 72.2046 71.1447 72.3377C71.2775 72.4707 71.2775 72.6863 71.1447 72.8193Z" fill="white"/>
<path fill-rule="evenodd" clip-rule="evenodd" d="M66.75 17.1238C66.2135 17.6608 65.3438 17.6608 64.8073 17.1238C64.2709 16.5867 64.2709 15.716 64.8073 15.1789C65.3438 14.6419 66.2135 14.6419 66.75 15.1789C67.2865 15.716 67.2865 16.5867 66.75 17.1238ZM66.5784 16.1252C66.3681 16.3357 66.0271 16.3357 65.8168 16.1252C65.6065 15.9147 65.6065 15.5733 65.8168 15.3628C66.0271 15.1522 66.3681 15.1522 66.5784 15.3628C66.7887 15.5733 66.7887 15.9147 66.5784 16.1252ZM65.6821 17.1743C65.8051 17.2974 66.0045 17.2974 66.1274 17.1743C66.2504 17.0511 66.2504 16.8515 66.1274 16.7284C66.0045 16.6053 65.8051 16.6053 65.6821 16.7284C65.5591 16.8515 65.5591 17.0511 65.6821 17.1743ZM65.116 16.314C65.0472 16.3829 64.9356 16.3829 64.8667 16.314C64.7979 16.2451 64.7979 16.1334 64.8667 16.0645C64.9356 15.9956 65.0472 15.9956 65.116 16.0645C65.1848 16.1334 65.1848 16.2451 65.116 16.314Z" fill="white"/>
<g filter="url(#filter0_d_506_106794)">
<path fill-rule="evenodd" clip-rule="evenodd" d="M81.8695 16.5948L48.997 40.0482L57.6252 22.3975L56.8585 21.7916L28.6263 45.0966C28.6105 45.1097 28.5956 45.1235 28.5818 45.1381C21.5973 52.1396 19.9436 64.4314 27.3638 71.8599C34.8087 79.3133 46.4793 76.9855 53.4454 70.0115L53.0908 69.6566L53.4776 69.9759L76.7564 41.7119L76.1512 40.9443L58.5996 49.5434L82.5605 17.3008L81.8695 16.5948ZM52.7211 69.3216L74.5159 42.8594L57.1889 51.3485L56.5683 50.6005L79.862 19.2558L47.9716 42.0084L47.2328 41.3811L55.7123 24.0346L29.2817 45.8524C22.5923 52.5655 21.1369 64.211 28.0705 71.1524C34.9818 78.0715 45.9905 76.0441 52.7211 69.3216Z" fill="white"/>
</g>
<defs>
<filter id="filter0_d_506_106794" x="20.5178" y="14.5948" width="64.0427" height="63.8626" filterUnits="userSpaceOnUse" color-interpolation-filters="sRGB">
<feFlood flood-opacity="0" result="BackgroundImageFix"/>
<feColorMatrix in="SourceAlpha" type="matrix" values="0 0 0 0 0 0 0 0 0 0 0 0 0 0 0 0 0 0 127 0" result="hardAlpha"/>
<feOffset/>
<feGaussianBlur stdDeviation="1"/>
<feComposite in2="hardAlpha" operator="out"/>
<feColorMatrix type="matrix" values="0 0 0 0 0.733333 0 0 0 0 0.619608 0 0 0 0 1 0 0 0 1 0"/>
<feBlend mode="normal" in2="BackgroundImageFix" result="effect1_dropShadow_506_106794"/>
<feBlend mode="normal" in="SourceGraphic" in2="effect1_dropShadow_506_106794" result="shape"/>
</filter>
<linearGradient id="paint0_linear_506_106794" x1="53.6709" y1="126.269" x2="53.6624" y2="-16.1194" gradientUnits="userSpaceOnUse">
<stop stop-color="#6E3DE6"/>
<stop offset="1" stop-color="#1E1E1E"/>
</linearGradient>
</defs>
</svg>
