<svg width="30" height="30" viewBox="0 0 30 30" fill="none" xmlns="http://www.w3.org/2000/svg">
<path d="M4.91698 22.26C4.78631 22.1525 4.68112 22.0174 4.60901 21.8644C4.5369 21.7113 4.49966 21.5442 4.49998 21.375C4.49912 21.2278 4.5279 21.082 4.58459 20.9462C4.64129 20.8104 4.72474 20.6874 4.82998 20.5845L9.34198 16.0785C9.55292 15.8678 9.83886 15.7495 10.137 15.7495C10.4351 15.7495 10.721 15.8678 10.932 16.0785C11.0367 16.1827 11.1197 16.3066 11.1764 16.4431C11.2331 16.5795 11.2622 16.7258 11.2622 16.8735C11.2622 17.0212 11.2331 17.1675 11.1764 17.3039C11.1197 17.4403 11.0367 17.5642 10.932 17.6685L8.33398 20.25L24.375 20.25C24.6733 20.25 24.9595 20.3685 25.1705 20.5795C25.3815 20.7905 25.5 21.0766 25.5 21.375C25.5 21.6734 25.3815 21.9595 25.1705 22.1705C24.9595 22.3815 24.6733 22.5 24.375 22.5L8.34898 22.5L10.926 25.083C11.0304 25.1872 11.1133 25.311 11.1698 25.4473C11.2264 25.5836 11.2555 25.7297 11.2555 25.8772C11.2555 26.0248 11.2264 26.1709 11.1698 26.3072C11.1133 26.4435 11.0304 26.5673 10.926 26.6715C10.715 26.8822 10.4291 27.0005 10.131 27.0005C9.83286 27.0005 9.54692 26.8822 9.33598 26.6715L4.91698 22.2585L4.91698 22.26ZM25.083 9.50999C25.2137 9.40253 25.3188 9.2674 25.391 9.11436C25.4631 8.96131 25.5003 8.79417 25.5 8.62499C25.5008 8.47782 25.4721 8.33199 25.4154 8.19618C25.3587 8.06037 25.2752 7.93736 25.17 7.83449L20.658 3.32999C20.447 3.11931 20.1611 3.00098 19.863 3.00098C19.5649 3.00098 19.2789 3.11931 19.068 3.32999C18.9633 3.43423 18.8802 3.55813 18.8236 3.69455C18.7669 3.83098 18.7377 3.97726 18.7377 4.12499C18.7377 4.27272 18.7669 4.41899 18.8236 4.55542C18.8802 4.69185 18.9633 4.81574 19.068 4.91999L21.6645 7.49999L5.62498 7.49999C5.32661 7.49999 5.04047 7.61851 4.82949 7.82949C4.61851 8.04047 4.49998 8.32662 4.49998 8.62499C4.49998 8.92335 4.61851 9.2095 4.82949 9.42048C5.04047 9.63146 5.32661 9.74999 5.62498 9.74999L21.651 9.74999L19.074 12.333C18.9695 12.4372 18.8867 12.561 18.8301 12.6973C18.7736 12.8336 18.7445 12.9797 18.7445 13.1272C18.7445 13.2748 18.7736 13.4209 18.8301 13.5572C18.8867 13.6935 18.9695 13.8173 19.074 13.9215C19.2849 14.1322 19.5709 14.2505 19.869 14.2505C20.1671 14.2505 20.453 14.1322 20.664 13.9215L25.0845 9.50849L25.083 9.50999Z" fill="white"/>
</svg>
