<svg width="106" height="90" viewBox="0 0 106 90" fill="none" xmlns="http://www.w3.org/2000/svg">
<path d="M24.517 0H80.7619L106 45L80.7619 90H24.517L0 45L24.517 0Z" fill="url(#paint0_linear_617_100935)"/>
<path d="M0.569393 45L24.814 0.5H80.4691L105.427 45L80.4691 89.5H24.814L0.569393 45Z" stroke="white" stroke-opacity="0.2"/>
<path fill-rule="evenodd" clip-rule="evenodd" d="M68.5386 78.0189C66.9791 79.5802 64.4506 79.5802 62.891 78.0189C61.3315 76.4576 61.3315 73.9263 62.891 72.365C64.4506 70.8037 66.9791 70.8037 68.5386 72.365C70.0981 73.9263 70.0981 76.4576 68.5386 78.0189ZM68.0392 75.1139C67.4282 75.7256 66.4375 75.7256 65.8265 75.1139C65.2154 74.5022 65.2154 73.5104 65.8265 72.8987C66.4375 72.2869 67.4282 72.2869 68.0392 72.8987C68.6502 73.5104 68.6502 74.5022 68.0392 75.1139ZM65.4345 78.1645C65.7918 78.5222 66.3711 78.5222 66.7284 78.1645C67.0857 77.8068 67.0857 77.2268 66.7284 76.8691C66.3711 76.5114 65.7918 76.5114 65.4345 76.8691C65.0771 77.2268 65.0771 77.8068 65.4345 78.1645ZM63.7884 75.6648C63.5883 75.8652 63.2639 75.8652 63.0638 75.6648C62.8637 75.4645 62.8637 75.1397 63.0638 74.9394C63.2639 74.7391 63.5883 74.7391 63.7884 74.9394C63.9885 75.1397 63.9885 75.4645 63.7884 75.6648Z" fill="white"/>
<path fill-rule="evenodd" clip-rule="evenodd" d="M22.0147 46.219C20.9543 47.2806 19.2349 47.2806 18.1745 46.219C17.114 45.1573 17.114 43.4361 18.1745 42.3744C19.2349 41.3128 20.9543 41.3128 22.0147 42.3744C23.0752 43.4361 23.0752 45.1573 22.0147 46.219ZM21.6751 44.2436C21.2597 44.6596 20.586 44.6596 20.1705 44.2436C19.755 43.8277 19.755 43.1533 20.1705 42.7373C20.586 42.3213 21.2597 42.3213 21.6751 42.7373C22.0906 43.1533 22.0906 43.8277 21.6751 44.2436ZM19.9037 46.3188C20.1468 46.5621 20.541 46.5621 20.7841 46.3188C21.0272 46.0754 21.0272 45.6808 20.7841 45.4374C20.541 45.194 20.1468 45.194 19.9037 45.4374C19.6606 45.6808 19.6606 46.0754 19.9037 46.3188ZM18.7847 44.6182C18.6487 44.7544 18.4281 44.7544 18.292 44.6182C18.1559 44.482 18.1559 44.2611 18.292 44.1249C18.4281 43.9887 18.6487 43.9887 18.7847 44.1249C18.9208 44.2611 18.9208 44.482 18.7847 44.6182Z" fill="white"/>
<mask id="mask0_617_100935" style="mask-type:alpha" maskUnits="userSpaceOnUse" x="2" y="2" width="102" height="86">
<path d="M3.8249 45L26.5505 3.68658H78.7734L102.167 45L78.7734 86.3134H26.5505L3.8249 45Z" fill="url(#paint1_linear_617_100935)" stroke="#459AFD" stroke-width="2"/>
</mask>
<g mask="url(#mask0_617_100935)">
<path fill-rule="evenodd" clip-rule="evenodd" d="M70.4908 11.4656C67.8709 14.0886 63.623 14.0886 61.0031 11.4656C58.3831 8.84272 58.3831 4.59012 61.0031 1.96719C63.623 -0.655731 67.8709 -0.655731 70.4908 1.96719C73.1108 4.59012 73.1108 8.84272 70.4908 11.4656ZM69.6519 6.58541C68.6254 7.61307 66.9611 7.61307 65.9345 6.58541C64.908 5.55774 64.908 3.89156 65.9345 2.86389C66.9611 1.83622 68.6254 1.83622 69.6519 2.86389C70.6784 3.89156 70.6784 5.55774 69.6519 6.58541ZM65.2759 11.7101C65.8762 12.3111 66.8494 12.3111 67.4497 11.7101C68.05 11.1092 68.05 10.1348 67.4497 9.53387C66.8494 8.93291 65.8762 8.93291 65.2759 9.53387C64.6756 10.1348 64.6756 11.1092 65.2759 11.7101ZM62.5107 7.51079C62.1745 7.84732 61.6295 7.84732 61.2934 7.51079C60.9572 7.17426 60.9572 6.62863 61.2934 6.2921C61.6295 5.95557 62.1745 5.95557 62.5107 6.2921C62.8468 6.62863 62.8468 7.17426 62.5107 7.51079Z" fill="white"/>
</g>
<path d="M60.9542 57.4309L51.9674 58.9304L62.452 48.434L73.6855 50.6832L68.6304 55.744L60.9542 57.4309Z" fill="white"/>
<path d="M41.483 37.9375L39.9852 46.9344L50.4698 36.4381L48.2231 25.1919L43.168 30.2527L41.483 37.9375Z" fill="white"/>
<path fill-rule="evenodd" clip-rule="evenodd" d="M33.9942 64.928L43.7298 64.1782L65.4479 42.4357L56.4612 33.4388L34.7431 55.1813L33.9942 64.928ZM66.9457 40.9363L66.8613 41.0207L63.0324 37.1875L66.8612 33.3544L66.9457 33.4389L67.6945 34.1886L72.1879 38.687L66.9457 40.9363ZM65.4478 31.9394L61.619 35.7725L57.8746 32.0238L57.9589 31.9394L60.2056 26.6912L64.699 31.1896L65.4478 31.9394ZM38.4876 55.931L42.981 60.4294L52.7167 50.6828L48.2233 46.1843L38.4876 55.931Z" fill="white"/>
<defs>
<linearGradient id="paint0_linear_617_100935" x1="0" y1="0" x2="106.089" y2="0.105436" gradientUnits="userSpaceOnUse">
<stop stop-color="#454953" stop-opacity="0.2"/>
<stop offset="0.48366" stop-color="#7E7E7E" stop-opacity="0.5"/>
<stop offset="1" stop-color="#454953" stop-opacity="0.2"/>
</linearGradient>
<linearGradient id="paint1_linear_617_100935" x1="82.2982" y1="87.3134" x2="82.2933" y2="2.68659" gradientUnits="userSpaceOnUse">
<stop stop-color="#3369A9"/>
<stop offset="1" stop-color="#1E1E1E"/>
</linearGradient>
</defs>
</svg>
