<svg width="106" height="90" viewBox="0 0 106 90" fill="none" xmlns="http://www.w3.org/2000/svg">
<path d="M1.13879 45L25.111 1H80.1762L104.853 45L80.1762 89H25.111L1.13879 45Z" fill="url(#paint0_linear_506_106797)" stroke="#FFDF7A" stroke-width="2"/>
<path fill-rule="evenodd" clip-rule="evenodd" d="M36.0069 80.376C33.9234 82.4618 30.5454 82.4618 28.4619 80.376C26.3783 78.2901 26.3783 74.9082 28.4619 72.8224C30.5454 70.7365 33.9234 70.7365 36.0069 72.8224C38.0905 74.9082 38.0905 78.2901 36.0069 80.376ZM35.3397 76.4949C34.5234 77.3121 33.1999 77.3121 32.3836 76.4949C31.5672 75.6776 31.5672 74.3526 32.3836 73.5354C33.1999 72.7181 34.5234 72.7181 35.3397 73.5354C36.1561 74.3526 36.1561 75.6776 35.3397 76.4949ZM31.8598 80.5703C32.3372 81.0482 33.1111 81.0482 33.5885 80.5703C34.0659 80.0924 34.0659 79.3176 33.5885 78.8397C33.1111 78.3618 32.3372 78.3618 31.8598 78.8397C31.3824 79.3176 31.3824 80.0924 31.8598 80.5703ZM29.6607 77.2309C29.3934 77.4986 28.96 77.4986 28.6927 77.2309C28.4254 76.9633 28.4254 76.5294 28.6927 76.2618C28.96 75.9942 29.3934 75.9942 29.6607 76.2618C29.9281 76.5294 29.9281 76.9633 29.6607 77.2309Z" fill="white"/>
<path fill-rule="evenodd" clip-rule="evenodd" d="M51.1595 18.9784C49.5999 20.5397 47.0714 20.5397 45.5119 18.9784C43.9524 17.4171 43.9524 14.8858 45.5119 13.3245C47.0714 11.7632 49.5999 11.7632 51.1595 13.3245C52.719 14.8858 52.719 17.4171 51.1595 18.9784ZM50.66 16.0735C50.049 16.6852 49.0583 16.6852 48.4473 16.0735C47.8363 15.4618 47.8363 14.47 48.4473 13.8583C49.0583 13.2465 50.049 13.2465 50.66 13.8583C51.2711 14.47 51.2711 15.4618 50.66 16.0735ZM48.0553 19.1241C48.4126 19.4818 48.9919 19.4818 49.3492 19.1241C49.7066 18.7663 49.7066 18.1864 49.3492 17.8287C48.9919 17.4709 48.4126 17.4709 48.0553 17.8287C47.698 18.1864 47.698 18.7663 48.0553 19.1241ZM46.4093 16.6244C46.2092 16.8247 45.8848 16.8247 45.6847 16.6244C45.4846 16.4241 45.4846 16.0993 45.6847 15.899C45.8848 15.6987 46.2092 15.6987 46.4093 15.899C46.6094 16.0993 46.6094 16.4241 46.4093 16.6244Z" fill="white"/>
<path fill-rule="evenodd" clip-rule="evenodd" d="M89.1673 39.5662C88.1069 40.6278 86.3875 40.6278 85.3271 39.5662C84.2666 38.5045 84.2666 36.7833 85.3271 35.7216C86.3875 34.66 88.1069 34.66 89.1673 35.7216C90.2278 36.7833 90.2278 38.5045 89.1673 39.5662ZM88.8277 37.591C88.4122 38.007 87.7386 38.007 87.3231 37.591C86.9076 37.1751 86.9076 36.5007 87.3231 36.0847C87.7386 35.6688 88.4122 35.6688 88.8277 36.0847C89.2432 36.5007 89.2432 37.1751 88.8277 37.591ZM87.0563 39.666C87.2994 39.9094 87.6935 39.9094 87.9366 39.666C88.1798 39.4226 88.1798 39.028 87.9366 38.7847C87.6935 38.5413 87.2994 38.5413 87.0563 38.7847C86.8132 39.028 86.8132 39.4226 87.0563 39.666ZM85.9373 37.9655C85.8012 38.1017 85.5806 38.1017 85.4446 37.9655C85.3085 37.8293 85.3085 37.6085 85.4446 37.4722C85.5806 37.336 85.8012 37.336 85.9373 37.4722C86.0734 37.6085 86.0734 37.8293 85.9373 37.9655Z" fill="white"/>
<ellipse rx="10.995" ry="4.92881" transform="matrix(0.706709 0.707505 -0.706709 0.707505 44.6269 55.4026)" fill="white"/>
<rect width="6.06622" height="1.51656" transform="matrix(0.706709 0.707505 -0.706709 0.707505 45.1628 39.3083)" fill="white"/>
<rect width="6.06622" height="1.51656" transform="matrix(0.706709 0.707505 -0.706709 0.707505 56.4163 50.5742)" fill="white"/>
<rect width="3.03311" height="1.51656" transform="matrix(0.706709 0.707505 -0.706709 0.707505 35.5171 29.651)" fill="white"/>
<rect width="3.03311" height="1.51656" transform="matrix(0.706709 0.707505 -0.706709 0.707505 68.2056 62.3771)" fill="white"/>
<path fill-rule="evenodd" clip-rule="evenodd" d="M37.6603 25.3593L31.2297 18.9215L28.0143 22.1406L35.5166 29.6514L37.6603 27.5053L37.6603 25.3593ZM34.4448 30.7244L26.9425 23.2136L23.7274 26.4323L30.158 32.8701H32.3015L34.4448 30.7244Z" fill="white"/>
<path fill-rule="evenodd" clip-rule="evenodd" d="M47.3063 35.0162L40.8757 28.5784L37.6605 31.7973L45.1628 39.308L47.3063 37.1622L47.3063 35.0162ZM44.0911 40.381L36.5887 32.8702L33.3734 36.0892L39.804 42.527H41.9475L44.0911 40.381Z" fill="white"/>
<path fill-rule="evenodd" clip-rule="evenodd" d="M57.4881 60.2313L63.9187 66.6691L67.1341 63.4501L59.6318 55.9393L57.4881 58.0853L57.4881 60.2313ZM60.7035 54.8663L62.8469 52.7205H64.9905L71.421 59.1583L68.2059 62.3771L60.7035 54.8663Z" fill="white"/>
<path fill-rule="evenodd" clip-rule="evenodd" d="M67.1339 69.8877L73.5645 76.3255L76.7799 73.1065L69.2776 65.5957L67.1339 67.7418L67.1339 69.8877ZM70.3493 64.5227L72.4927 62.3769L74.6362 62.3769L81.0668 68.8147L77.8517 72.0335L70.3493 64.5227Z" fill="white"/>
<path fill-rule="evenodd" clip-rule="evenodd" d="M58.0239 35.0162L64.9904 41.9905L64.1393 44.3573L55.6598 35.8683L58.0239 35.0162ZM54.0837 36.4363L63.5719 45.9352L62.5789 48.6966L51.0574 60.231L39.8039 48.9648L51.3254 37.4304L54.0837 36.4363ZM60.1674 46.8187L53.2009 39.8444L45.6986 47.3552L52.6651 54.3295L60.1674 46.8187Z" fill="white"/>
<defs>
<linearGradient id="paint0_linear_506_106797" x1="75.1392" y1="90" x2="75.1339" y2="-3.66119e-06" gradientUnits="userSpaceOnUse">
<stop stop-color="#F9D667"/>
<stop offset="1" stop-color="#1E1E1E"/>
</linearGradient>
</defs>
</svg>
