<svg width="106" height="90" viewBox="0 0 106 90" fill="none" xmlns="http://www.w3.org/2000/svg">
<path d="M1.13879 45L25.111 1H80.1762L104.853 45L80.1762 89H25.111L1.13879 45Z" fill="url(#paint0_linear_506_106795)" stroke="#11D396" stroke-width="2"/>
<mask id="mask0_506_106795" style="mask-type:alpha" maskUnits="userSpaceOnUse" x="2" y="2" width="102" height="86">
<path d="M3.8249 45L26.5505 3.68655H78.7734L102.167 45L78.7734 86.3134H26.5505L3.8249 45Z" fill="url(#paint1_linear_506_106795)" stroke="#11D396" stroke-width="2"/>
</mask>
<g mask="url(#mask0_506_106795)">
<path fill-rule="evenodd" clip-rule="evenodd" d="M35.822 14.3696C31.6176 18.5788 24.8009 18.5788 20.5965 14.3696C16.3921 10.1605 16.3921 3.33613 20.5965 -0.873017C24.8009 -5.08216 31.6176 -5.08216 35.822 -0.873017C40.0264 3.33613 40.0264 10.1605 35.822 14.3696ZM34.4757 6.5376C32.8284 8.18676 30.1576 8.18676 28.5103 6.5376C26.863 4.88845 26.863 2.21464 28.5103 0.565482C30.1576 -1.08367 32.8284 -1.08367 34.4757 0.565482C36.123 2.21464 36.123 4.88845 34.4757 6.5376ZM27.4534 14.7624C28.4167 15.7268 29.9785 15.7268 30.9418 14.7624C31.9051 13.798 31.9051 12.2344 30.9418 11.2701C29.9785 10.3057 28.4167 10.3057 27.4534 11.2701C26.4901 12.2344 26.4901 13.798 27.4534 14.7624ZM23.0152 8.02165C22.4761 8.5614 21.602 8.5614 21.0629 8.02165C20.5237 7.48191 20.5237 6.60681 21.0629 6.06707C21.602 5.52732 22.4761 5.52732 23.0152 6.06707C23.5544 6.60681 23.5544 7.48191 23.0152 8.02165Z" fill="white"/>
</g>
<path fill-rule="evenodd" clip-rule="evenodd" d="M84.6399 40.407C83.0804 41.9683 80.5519 41.9683 78.9924 40.407C77.4328 38.8457 77.4328 36.3143 78.9924 34.7531C80.5519 33.1918 83.0804 33.1918 84.6399 34.7531C86.1995 36.3143 86.1995 38.8457 84.6399 40.407ZM84.1405 37.5019C83.5295 38.1137 82.5388 38.1137 81.9278 37.5019C81.3168 36.8902 81.3168 35.8984 81.9278 35.2867C82.5388 34.675 83.5295 34.675 84.1405 35.2867C84.7515 35.8984 84.7515 36.8902 84.1405 37.5019ZM81.5358 40.5526C81.8931 40.9103 82.4724 40.9103 82.8297 40.5526C83.1871 40.1949 83.1871 39.6149 82.8297 39.2572C82.4724 38.8995 81.8931 38.8995 81.5358 39.2572C81.1785 39.6149 81.1785 40.1949 81.5358 40.5526ZM79.8897 38.0529C79.6896 38.2532 79.3652 38.2532 79.1651 38.0529C78.965 37.8526 78.965 37.5278 79.1651 37.3275C79.3652 37.1272 79.6896 37.1272 79.8897 37.3275C80.0898 37.5278 80.0898 37.8526 79.8897 38.0529Z" fill="white"/>
<path fill-rule="evenodd" clip-rule="evenodd" d="M27.1948 63.494C25.8848 64.8055 23.7609 64.8055 22.4509 63.494C21.1409 62.1826 21.1409 60.0563 22.4509 58.7448C23.7609 57.4333 25.8848 57.4333 27.1948 58.7448C28.5047 60.0563 28.5047 62.1826 27.1948 63.494ZM26.7753 61.0539C26.262 61.5677 25.4299 61.5677 24.9166 61.0539C24.4034 60.54 24.4034 59.7069 24.9166 59.1931C25.4299 58.6793 26.262 58.6793 26.7753 59.1931C27.2886 59.7069 27.2886 60.54 26.7753 61.0539ZM24.587 63.6172C24.8873 63.9179 25.3742 63.9179 25.6745 63.6172C25.9748 63.3166 25.9748 62.8291 25.6745 62.5285C25.3742 62.2278 24.8873 62.2278 24.587 62.5285C24.2867 62.8291 24.2867 63.3166 24.587 63.6172ZM23.2047 61.5166C23.0366 61.6849 22.7641 61.6849 22.596 61.5166C22.4279 61.3484 22.4279 61.0756 22.596 60.9073C22.7641 60.739 23.0366 60.739 23.2047 60.9073C23.3727 61.0756 23.3727 61.3484 23.2047 61.5166Z" fill="white"/>
<path d="M40.9966 40.1037L45.2804 34.9574L43.9953 47.3944L37.5696 50.3964L40.9966 40.1037Z" fill="white"/>
<path d="M65.8427 40.1037L61.5589 34.9574L62.8441 47.3944L69.2698 50.3964L65.8427 40.1037Z" fill="white"/>
<path fill-rule="evenodd" clip-rule="evenodd" d="M47.9285 30.6687L58.911 30.6687L53.4198 25.5224L47.9285 30.6687ZM46.2285 47.8233L60.611 47.8233L59.4403 32.6687L47.3992 32.6687L46.2285 47.8233ZM59.8795 49.8233L46.9601 49.8233L49.2584 52.1118V52.1119L57.5812 52.1119V52.1118L59.8795 49.8233ZM49.2584 56.4005V55.1119L57.5812 55.1119V56.4005L53.4198 58.5448L49.2584 56.4005Z" fill="white"/>
<path fill-rule="evenodd" clip-rule="evenodd" d="M65.8174 68.4544C65.8174 69.0658 65.6643 69.645 65.3907 70.1624C67.565 70.9415 69.1461 72.8305 69.3304 75.0824H69.3484L69.3317 75.0989C69.3428 75.2393 69.3484 75.3812 69.3484 75.5243C69.3484 78.6968 66.5819 81.2686 63.1692 81.2686C63.1344 81.2686 63.0998 81.2684 63.0652 81.2678L63.0644 81.2686H42.6416L42.6385 81.264C42.5676 81.2671 42.4963 81.2687 42.4247 81.2687C39.7433 81.2687 37.5696 79.0925 37.5696 76.4081C37.5696 73.7237 39.7433 71.5475 42.4247 71.5475C43.2275 71.5475 43.9848 71.7426 44.6519 72.088C44.6384 71.9096 44.6315 71.7294 44.6315 71.5475C44.6315 67.6429 47.7933 64.4776 51.6935 64.4776C53.937 64.4776 55.9362 65.525 57.2298 67.158C57.8265 65.5982 59.4698 64.4776 61.4037 64.4776C63.8413 64.4776 65.8174 66.2581 65.8174 68.4544ZM40.6592 69.78C41.878 69.78 42.866 68.7908 42.866 67.5707C42.866 66.3505 41.878 65.3613 40.6592 65.3613C39.4404 65.3613 38.4523 66.3505 38.4523 67.5707C38.4523 68.7908 39.4404 69.78 40.6592 69.78Z" fill="white"/>
<defs>
<linearGradient id="paint0_linear_506_106795" x1="76.481" y1="90" x2="77.8205" y2="-3.3978e-05" gradientUnits="userSpaceOnUse">
<stop stop-color="#04966A"/>
<stop offset="1" stop-color="#1E1E1E"/>
</linearGradient>
<linearGradient id="paint1_linear_506_106795" x1="75.2921" y1="87.3134" x2="76.5396" y2="2.68617" gradientUnits="userSpaceOnUse">
<stop stop-color="#04966A"/>
<stop offset="1" stop-color="#1E1E1E"/>
</linearGradient>
</defs>
</svg>
