<svg width="40" height="40" viewBox="0 0 40 40" fill="none" xmlns="http://www.w3.org/2000/svg">
<path d="M9.31373 13.2225C15.2156 7.44406 24.7845 7.44406 30.6864 13.2225L31.3967 13.9179C31.6918 14.2069 31.6918 14.6753 31.3967 14.9642L28.9669 17.3432C28.8193 17.4877 28.5801 17.4877 28.4325 17.3432L27.4551 16.3862C23.3378 12.355 16.6623 12.355 12.545 16.3862L11.4982 17.4111C11.3507 17.5555 11.1115 17.5555 10.9639 17.4111L8.53411 15.0321C8.23901 14.7432 8.23901 14.2747 8.53411 13.9858L9.31373 13.2225ZM35.7114 18.1425L37.8739 20.2598C38.169 20.5487 38.169 21.0171 37.8739 21.3061L28.123 30.8532C27.8279 31.1422 27.3494 31.1422 27.0543 30.8532C27.0543 30.8532 27.0543 30.8532 27.0543 30.8532L20.1337 24.0773C20.0599 24.0051 19.9403 24.0051 19.8665 24.0773C19.8665 24.0773 19.8665 24.0773 19.8665 24.0773L12.946 30.8532C12.6509 31.1422 12.1725 31.1422 11.8774 30.8532C11.8774 30.8532 11.8774 30.8532 11.8774 30.8532L2.12611 21.3059C1.83101 21.017 1.83101 20.5486 2.12611 20.2597L4.28864 18.1424C4.58373 17.8534 5.06217 17.8534 5.35727 18.1424L12.278 24.9184C12.3518 24.9906 12.4714 24.9906 12.5452 24.9184C12.5452 24.9184 12.5452 24.9184 12.5452 24.9184L19.4656 18.1424C19.7607 17.8534 20.2391 17.8534 20.5342 18.1423C20.5342 18.1423 20.5342 18.1423 20.5342 18.1423L27.455 24.9184C27.5288 24.9906 27.6484 24.9906 27.7221 24.9184L34.6428 18.1425C34.9379 17.8536 35.4163 17.8536 35.7114 18.1425Z" fill="#3B99FC"/>
</svg>
