<svg width="24" height="24" viewBox="0 0 24 24" fill="none" xmlns="http://www.w3.org/2000/svg">
<path d="M15.2219 4.54877C16.5363 4.80145 17.7985 5.20465 18.9721 5.74305C21.1974 9.0659 22.3027 12.7834 21.9302 17.0587C20.3318 18.2065 18.7924 18.9351 17.2626 19.4335C17.0451 19.1129 16.8386 18.7825 16.6451 18.4424C17.0689 18.2622 17.4851 18.0591 17.8877 17.8204C18.0638 17.7288 18.1765 17.5535 18.188 17.3581C18.1993 17.1668 18.1128 16.9907 17.9723 16.8794C17.9133 16.8313 17.8553 16.7864 17.8029 16.746L17.8008 16.7443C17.7491 16.7044 17.7028 16.6685 17.6575 16.6318C17.4605 16.4572 17.2102 16.4723 17.0505 16.546C13.7843 18.0543 10.2266 18.0553 6.91772 16.5451C6.76181 16.474 6.52079 16.4586 6.32695 16.6196C6.27266 16.6595 6.21968 16.7005 6.17195 16.7374L6.16939 16.7393C6.11334 16.7827 6.06414 16.8206 6.01603 16.8556L5.98431 16.8787L5.95657 16.9064C5.82888 17.0341 5.78112 17.2017 5.78973 17.3481C5.79849 17.4971 5.87453 17.6977 6.0802 17.8087C6.48719 18.0388 6.90127 18.2469 7.33056 18.4326C7.13944 18.7737 6.93173 19.1052 6.70935 19.427C5.19415 18.9287 3.66165 18.2016 2.07054 17.0591C1.75612 13.3446 2.48488 9.59911 5.03386 5.73618C6.2142 5.19992 7.46584 4.7989 8.77473 4.54758C8.90972 4.80206 9.0423 5.07848 9.13778 5.31036L9.28705 5.67287L9.6747 5.61439C11.2163 5.38185 12.784 5.38185 14.3255 5.61439L14.709 5.67223L14.8604 5.31526C14.9568 5.08799 15.09 4.80705 15.2219 4.54877ZM6.13012 12.79C6.13012 14.1829 7.16364 15.41 8.52012 15.41C9.89911 15.41 10.9091 14.1806 10.9101 12.7921C10.921 11.4095 9.90862 10.17 8.52012 10.17C7.14042 10.17 6.13012 11.4006 6.13012 12.79ZM13.1001 12.79C13.1001 14.1829 14.1336 15.41 15.4901 15.41C16.8807 15.41 17.8791 14.1788 17.8801 12.7921C17.891 11.4095 16.8786 10.17 15.4901 10.17C14.1104 10.17 13.1001 11.4006 13.1001 12.79Z" fill="#AAB2CC" stroke="white"/>
</svg>
