<svg width="24" height="24" viewBox="0 0 24 24" fill="none" xmlns="http://www.w3.org/2000/svg">
<mask id="path-1-inside-1_978_136690" fill="white">
<path d="M10.8021 17.7698C10.8944 17.77 10.9858 17.7883 11.0711 17.8237C11.1563 17.8592 11.2337 17.9111 11.2989 17.9764C11.3641 18.0418 11.4158 18.1194 11.451 18.2047C11.4862 18.2901 11.5042 18.3815 11.5041 18.4738C11.504 18.5661 11.4857 18.6575 11.4502 18.7428C11.4148 18.828 11.3629 18.9054 11.2975 18.9706C11.2321 19.0358 11.1545 19.0875 11.0692 19.1227C10.9839 19.1579 10.8924 19.176 10.8001 19.1758C10.6137 19.1756 10.435 19.1012 10.3033 18.9692C10.1716 18.8372 10.0978 18.6583 10.0981 18.4718C10.0984 18.2854 10.1727 18.1067 10.3047 17.975C10.4367 17.8434 10.6157 17.7696 10.8021 17.7698ZM21.8261 13.4228C21.7338 13.4228 21.6424 13.4045 21.5571 13.3691C21.4718 13.3337 21.3944 13.2819 21.3292 13.2166C21.2639 13.1512 21.2122 13.0737 21.1769 12.9884C21.1417 12.9031 21.1235 12.8116 21.1236 12.7193C21.1237 12.627 21.1419 12.5356 21.1773 12.4503C21.2127 12.3651 21.2645 12.2876 21.3299 12.2224C21.3952 12.1571 21.4727 12.1054 21.558 12.0701C21.6434 12.0349 21.7348 12.0168 21.8271 12.0168C22.0135 12.017 22.1923 12.0911 22.3241 12.2231C22.4558 12.355 22.5297 12.5339 22.5296 12.7203C22.5295 12.9068 22.4553 13.0855 22.3233 13.2173C22.1914 13.349 22.0126 13.423 21.8261 13.4228ZM21.8261 10.5468C21.2497 10.5473 20.697 10.7766 20.2894 11.1842C19.8818 11.5917 19.6526 12.1444 19.6521 12.7208C19.6521 12.9538 19.6911 13.1858 19.7671 13.4118L12.5861 17.2348C12.387 16.9457 12.1206 16.7093 11.8098 16.5461C11.499 16.3829 11.1532 16.2977 10.8021 16.2978C9.9731 16.2978 9.2181 16.7728 8.8521 17.5138L2.4011 14.1118C1.7191 13.7538 1.2091 12.6318 1.2631 11.6098C1.2911 11.0768 1.4751 10.6628 1.7561 10.5028C1.9341 10.4028 2.1481 10.4108 2.3761 10.5298L2.4181 10.5528C4.1281 11.4528 9.7221 14.3998 9.9581 14.5088C10.3211 14.6778 10.5231 14.7458 11.1431 14.4518L22.7071 8.43782C22.8771 8.37382 23.0751 8.21082 23.0751 7.96382C23.0751 7.62182 22.7211 7.48682 22.7201 7.48682C22.0621 7.17182 21.0511 6.69882 20.0651 6.23682C17.9571 5.24982 15.5681 4.13182 14.5191 3.58182C13.6131 3.10782 12.8841 3.50782 12.7541 3.58782L12.5021 3.71282C7.7801 6.04782 1.4601 9.17782 1.1001 9.39682C0.457104 9.78882 0.0581037 10.5698 0.00610369 11.5388C-0.0738963 13.0758 0.709104 14.6788 1.8301 15.2658L8.6521 18.7838C8.72725 19.3006 8.98582 19.7731 9.38057 20.115C9.77532 20.4568 10.2799 20.6453 10.8021 20.6458C11.3724 20.6449 11.9196 20.4201 12.326 20.0199C12.7323 19.6197 12.9654 19.0761 12.9751 18.5058L20.4891 14.4328C20.8691 14.7308 21.3421 14.8938 21.8261 14.8938C22.4025 14.8933 22.9552 14.6641 23.3628 14.2565C23.7704 13.8489 23.9996 13.2962 24.0001 12.7198C23.9996 12.1434 23.7704 11.5907 23.3628 11.1832C22.9552 10.7756 22.4025 10.5463 21.8261 10.5458"/>
</mask>
<path d="M10.8021 17.7698C10.8944 17.77 10.9858 17.7883 11.0711 17.8237C11.1563 17.8592 11.2337 17.9111 11.2989 17.9764C11.3641 18.0418 11.4158 18.1194 11.451 18.2047C11.4862 18.2901 11.5042 18.3815 11.5041 18.4738C11.504 18.5661 11.4857 18.6575 11.4502 18.7428C11.4148 18.828 11.3629 18.9054 11.2975 18.9706C11.2321 19.0358 11.1545 19.0875 11.0692 19.1227C10.9839 19.1579 10.8924 19.176 10.8001 19.1758C10.6137 19.1756 10.435 19.1012 10.3033 18.9692C10.1716 18.8372 10.0978 18.6583 10.0981 18.4718C10.0984 18.2854 10.1727 18.1067 10.3047 17.975C10.4367 17.8434 10.6157 17.7696 10.8021 17.7698ZM21.8261 13.4228C21.7338 13.4228 21.6424 13.4045 21.5571 13.3691C21.4718 13.3337 21.3944 13.2819 21.3292 13.2166C21.2639 13.1512 21.2122 13.0737 21.1769 12.9884C21.1417 12.9031 21.1235 12.8116 21.1236 12.7193C21.1237 12.627 21.1419 12.5356 21.1773 12.4503C21.2127 12.3651 21.2645 12.2876 21.3299 12.2224C21.3952 12.1571 21.4727 12.1054 21.558 12.0701C21.6434 12.0349 21.7348 12.0168 21.8271 12.0168C22.0135 12.017 22.1923 12.0911 22.3241 12.2231C22.4558 12.355 22.5297 12.5339 22.5296 12.7203C22.5295 12.9068 22.4553 13.0855 22.3233 13.2173C22.1914 13.349 22.0126 13.423 21.8261 13.4228ZM21.8261 10.5468C21.2497 10.5473 20.697 10.7766 20.2894 11.1842C19.8818 11.5917 19.6526 12.1444 19.6521 12.7208C19.6521 12.9538 19.6911 13.1858 19.7671 13.4118L12.5861 17.2348C12.387 16.9457 12.1206 16.7093 11.8098 16.5461C11.499 16.3829 11.1532 16.2977 10.8021 16.2978C9.9731 16.2978 9.2181 16.7728 8.8521 17.5138L2.4011 14.1118C1.7191 13.7538 1.2091 12.6318 1.2631 11.6098C1.2911 11.0768 1.4751 10.6628 1.7561 10.5028C1.9341 10.4028 2.1481 10.4108 2.3761 10.5298L2.4181 10.5528C4.1281 11.4528 9.7221 14.3998 9.9581 14.5088C10.3211 14.6778 10.5231 14.7458 11.1431 14.4518L22.7071 8.43782C22.8771 8.37382 23.0751 8.21082 23.0751 7.96382C23.0751 7.62182 22.7211 7.48682 22.7201 7.48682C22.0621 7.17182 21.0511 6.69882 20.0651 6.23682C17.9571 5.24982 15.5681 4.13182 14.5191 3.58182C13.6131 3.10782 12.8841 3.50782 12.7541 3.58782L12.5021 3.71282C7.7801 6.04782 1.4601 9.17782 1.1001 9.39682C0.457104 9.78882 0.0581037 10.5698 0.00610369 11.5388C-0.0738963 13.0758 0.709104 14.6788 1.8301 15.2658L8.6521 18.7838C8.72725 19.3006 8.98582 19.7731 9.38057 20.115C9.77532 20.4568 10.2799 20.6453 10.8021 20.6458C11.3724 20.6449 11.9196 20.4201 12.326 20.0199C12.7323 19.6197 12.9654 19.0761 12.9751 18.5058L20.4891 14.4328C20.8691 14.7308 21.3421 14.8938 21.8261 14.8938C22.4025 14.8933 22.9552 14.6641 23.3628 14.2565C23.7704 13.8489 23.9996 13.2962 24.0001 12.7198C23.9996 12.1434 23.7704 11.5907 23.3628 11.1832C22.9552 10.7756 22.4025 10.5463 21.8261 10.5458" fill="#AAB2CC"/>
<path d="M10.8021 17.7698L10.8007 18.7698L10.8021 17.7698ZM10.8001 19.1758L10.7987 20.1758L10.8001 19.1758ZM21.8261 13.4228L21.8254 14.4228L21.8261 13.4228ZM21.8271 12.0168L21.8264 13.0168L21.8271 12.0168ZM19.6521 12.7208L18.6521 12.7199V12.7208H19.6521ZM19.7671 13.4118L20.237 14.2945L20.9851 13.8963L20.7149 13.0931L19.7671 13.4118ZM12.5861 17.2348L11.7625 17.802L12.2685 18.5368L13.056 18.1175L12.5861 17.2348ZM10.8021 16.2978V17.2978H10.8025L10.8021 16.2978ZM8.8521 17.5138L8.38563 18.3984L9.29394 18.8774L9.7487 17.9567L8.8521 17.5138ZM2.4011 14.1118L2.86757 13.2273L2.86589 13.2264L2.4011 14.1118ZM1.2631 11.6098L2.26171 11.6626L2.26173 11.6623L1.2631 11.6098ZM1.7561 10.5028L1.2663 9.63097L1.2613 9.63382L1.7561 10.5028ZM2.3761 10.5298L2.85643 9.65273L2.84766 9.64793L2.8388 9.6433L2.3761 10.5298ZM2.4181 10.5528L1.93778 11.4299L1.94504 11.4339L1.95236 11.4377L2.4181 10.5528ZM9.9581 14.5088L10.3802 13.6023L10.3774 13.601L9.9581 14.5088ZM11.1431 14.4518L11.5716 15.3554L11.5882 15.3475L11.6045 15.339L11.1431 14.4518ZM22.7071 8.43782L22.3548 7.50194L22.2988 7.52302L22.2457 7.55063L22.7071 8.43782ZM22.7201 7.48682L22.2883 8.38879L22.4931 8.48682H22.7201V7.48682ZM20.0651 6.23682L20.4894 5.3313L20.4891 5.33118L20.0651 6.23682ZM14.5191 3.58182L14.9835 2.69617L14.9827 2.69576L14.5191 3.58182ZM12.7541 3.58782L13.1985 4.48366L13.2393 4.46339L13.2782 4.43948L12.7541 3.58782ZM12.5021 3.71282L12.9454 4.60921L12.9465 4.60866L12.5021 3.71282ZM1.1001 9.39682L0.580382 8.54248L0.579567 8.54298L1.1001 9.39682ZM0.00610369 11.5388L-0.992461 11.4852L-0.992544 11.4868L0.00610369 11.5388ZM1.8301 15.2658L1.36621 16.1517L1.37177 16.1546L1.8301 15.2658ZM8.6521 18.7838L9.6417 18.6399L9.56766 18.1308L9.11044 17.895L8.6521 18.7838ZM10.8021 20.6458L10.801 21.6458L10.8038 21.6458L10.8021 20.6458ZM12.9751 18.5058L12.4986 17.6267L11.9852 17.905L11.9752 18.4888L12.9751 18.5058ZM20.4891 14.4328L21.1062 13.6459L20.5897 13.2409L20.0126 13.5537L20.4891 14.4328ZM21.8261 14.8938V15.8938H21.827L21.8261 14.8938ZM24.0001 12.7198L25.0001 12.7207L25.0001 12.7189L24.0001 12.7198ZM10.8007 18.7698C10.7617 18.7698 10.7231 18.762 10.6871 18.747L11.4551 16.9004C11.2485 16.8145 11.0272 16.7701 10.8035 16.7698L10.8007 18.7698ZM10.6871 18.747C10.651 18.7321 10.6183 18.7101 10.5908 18.6825L12.007 17.2703C11.8491 17.112 11.6615 16.9863 11.4551 16.9004L10.6871 18.747ZM10.5908 18.6825C10.5633 18.6549 10.5414 18.6221 10.5266 18.5861L12.3754 17.8233C12.2901 17.6166 12.1649 17.4287 12.007 17.2703L10.5908 18.6825ZM10.5266 18.5861C10.5117 18.55 10.504 18.5114 10.5041 18.4724L12.5041 18.4752C12.5044 18.2516 12.4607 18.0301 12.3754 17.8233L10.5266 18.5861ZM10.5041 18.4724C10.5042 18.4334 10.5119 18.3948 10.5269 18.3588L12.3735 19.1268C12.4594 18.9203 12.5038 18.6989 12.5041 18.4752L10.5041 18.4724ZM10.5269 18.3588C10.5419 18.3228 10.5638 18.29 10.5914 18.2625L12.0036 19.6787C12.162 19.5208 12.2877 19.3333 12.3735 19.1268L10.5269 18.3588ZM10.5914 18.2625C10.619 18.235 10.6518 18.2131 10.6878 18.1983L11.4506 20.0471C11.6573 19.9618 11.8452 19.8366 12.0036 19.6787L10.5914 18.2625ZM10.6878 18.1983C10.7239 18.1834 10.7625 18.1758 10.8015 18.1758L10.7987 20.1758C11.0223 20.1761 11.2438 20.1324 11.4506 20.0471L10.6878 18.1983ZM10.8015 18.1758C10.8803 18.1759 10.9558 18.2073 11.0114 18.2631L9.59519 19.6753C9.91411 19.9951 10.347 20.1752 10.7987 20.1758L10.8015 18.1758ZM11.0114 18.2631C11.067 18.3189 11.0982 18.3945 11.0981 18.4732L9.0981 18.4704C9.09746 18.9221 9.27627 19.3555 9.59519 19.6753L11.0114 18.2631ZM11.0981 18.4732C11.098 18.552 11.0666 18.6275 11.0108 18.6831L9.59861 17.2669C9.27879 17.5858 9.09875 18.0187 9.0981 18.4704L11.0981 18.4732ZM11.0108 18.6831C10.955 18.7387 10.8794 18.7699 10.8007 18.7698L10.8035 16.7698C10.3519 16.7692 9.91844 16.948 9.59861 17.2669L11.0108 18.6831ZM21.8268 12.4228C21.8658 12.4228 21.9044 12.4306 21.9405 12.4455L21.1738 14.2927C21.3803 14.3785 21.6017 14.4227 21.8254 14.4228L21.8268 12.4228ZM21.9405 12.4455C21.9765 12.4605 22.0092 12.4824 22.0368 12.51L20.6215 13.9232C20.7796 14.0814 20.9672 14.207 21.1738 14.2927L21.9405 12.4455ZM22.0368 12.51C22.0643 12.5376 22.0862 12.5703 22.1011 12.6064L20.2528 13.3704C20.3382 13.5771 20.4635 13.7649 20.6215 13.9232L22.0368 12.51ZM22.1011 12.6064C22.116 12.6424 22.1236 12.681 22.1236 12.72L20.1236 12.7186C20.1234 12.9422 20.1673 13.1637 20.2528 13.3704L22.1011 12.6064ZM22.1236 12.72C22.1236 12.759 22.1159 12.7976 22.1009 12.8337L20.2537 12.067C20.168 12.2736 20.1238 12.495 20.1236 12.7186L22.1236 12.72ZM22.1009 12.8337C22.086 12.8697 22.0641 12.9024 22.0365 12.93L20.6233 11.5148C20.465 11.6728 20.3394 11.8604 20.2537 12.067L22.1009 12.8337ZM22.0365 12.93C22.0089 12.9575 21.9761 12.9794 21.9401 12.9943L21.176 11.146C20.9693 11.2314 20.7815 11.3567 20.6233 11.5148L22.0365 12.93ZM21.9401 12.9943C21.904 13.0092 21.8654 13.0168 21.8264 13.0168L21.8278 11.0168C21.6042 11.0167 21.3827 11.0606 21.176 11.146L21.9401 12.9943ZM21.8264 13.0168C21.7476 13.0168 21.6721 12.9854 21.6164 12.9297L23.0317 11.5165C22.7125 11.1969 22.2795 11.0171 21.8278 11.0168L21.8264 13.0168ZM21.6164 12.9297C21.5608 12.8739 21.5295 12.7984 21.5296 12.7196L23.5296 12.721C23.5299 12.2694 23.3508 11.8361 23.0317 11.5165L21.6164 12.9297ZM21.5296 12.7196C21.5297 12.6408 21.561 12.5653 21.6167 12.5097L23.0299 13.9249C23.3496 13.6057 23.5293 13.1727 23.5296 12.721L21.5296 12.7196ZM21.6167 12.5097C21.6725 12.454 21.748 12.4228 21.8268 12.4228L21.8254 14.4228C22.2771 14.4231 22.7104 14.244 23.0299 13.9249L21.6167 12.5097ZM21.8252 9.54682C20.9839 9.54759 20.1772 9.88215 19.5823 10.477L20.9965 11.8913C21.2168 11.671 21.5155 11.5471 21.827 11.5468L21.8252 9.54682ZM19.5823 10.477C18.9874 11.0719 18.6529 11.8786 18.6521 12.7199L20.6521 12.7217C20.6524 12.4102 20.7763 12.1115 20.9965 11.8913L19.5823 10.477ZM18.6521 12.7208C18.6521 13.0664 18.7101 13.4059 18.8193 13.7306L20.7149 13.0931C20.6721 12.9658 20.6521 12.8413 20.6521 12.7208H18.6521ZM19.2972 12.5291L12.1162 16.3521L13.056 18.1175L20.237 14.2945L19.2972 12.5291ZM13.4097 16.6676C13.1186 16.245 12.7291 15.8994 12.2748 15.6608L11.3448 17.4314C11.512 17.5193 11.6554 17.6465 11.7625 17.802L13.4097 16.6676ZM12.2748 15.6608C11.8204 15.4222 11.3149 15.2976 10.8017 15.2978L10.8025 17.2978C10.9915 17.2977 11.1775 17.3436 11.3448 17.4314L12.2748 15.6608ZM10.8021 15.2978C9.58836 15.2978 8.48815 15.9926 7.95551 17.071L9.7487 17.9567C9.94806 17.5531 10.3578 17.2978 10.8021 17.2978V15.2978ZM9.31857 16.6293L2.86757 13.2273L1.93463 14.9964L8.38563 18.3984L9.31857 16.6293ZM2.86589 13.2264C2.7925 13.1879 2.62018 13.034 2.4664 12.6959C2.32092 12.3759 2.24392 11.9994 2.26171 11.6626L0.264497 11.5571C0.228291 12.2423 0.379287 12.9377 0.645806 13.5238C0.904028 14.0916 1.3277 14.6778 1.93632 14.9972L2.86589 13.2264ZM2.26173 11.6623C2.27073 11.4909 2.30346 11.3789 2.32832 11.3231C2.35581 11.2613 2.35031 11.3152 2.25091 11.3718L1.2613 9.63382C0.529391 10.0506 0.298391 10.9119 0.264481 11.5574L2.26173 11.6623ZM2.2459 11.3747C2.16839 11.4182 2.08153 11.4365 2.00543 11.4333C1.93584 11.4304 1.90338 11.4111 1.9134 11.4163L2.8388 9.6433C2.39235 9.41029 1.8107 9.32515 1.26631 9.63098L2.2459 11.3747ZM1.89578 11.4069L1.93778 11.4299L2.89843 9.67573L2.85643 9.65273L1.89578 11.4069ZM1.95236 11.4377C3.63314 12.3224 9.27145 15.2932 9.5388 15.4167L10.3774 13.601C10.3849 13.6044 10.3695 13.5971 10.3086 13.566C10.2567 13.5395 10.1857 13.5028 10.0969 13.4567C9.91957 13.3648 9.67625 13.2379 9.3844 13.0852C8.80095 12.78 8.02683 12.3736 7.20609 11.9423C5.56468 11.0796 3.73925 10.1181 2.88385 9.6679L1.95236 11.4377ZM9.53604 15.4154C9.71575 15.4991 10.0338 15.6506 10.4463 15.6539C10.8459 15.6571 11.2154 15.5243 11.5716 15.3554L10.7146 13.5483C10.4508 13.6734 10.4093 13.6536 10.4622 13.654C10.5279 13.6545 10.5635 13.6876 10.3802 13.6023L9.53604 15.4154ZM11.6045 15.339L23.1685 9.32501L22.2457 7.55063L10.6817 13.5646L11.6045 15.339ZM23.0594 9.3737C23.4198 9.23804 24.0751 8.80589 24.0751 7.96382H22.0751C22.0751 7.80015 22.1459 7.67431 22.2073 7.60523C22.2593 7.54672 22.3106 7.51859 22.3548 7.50194L23.0594 9.3737ZM24.0751 7.96382C24.0751 7.40634 23.7754 7.03346 23.5514 6.84008C23.4393 6.74336 23.3311 6.67656 23.2512 6.63338C23.2102 6.61124 23.1734 6.59359 23.1429 6.57999C23.1277 6.57319 23.1132 6.56704 23.0996 6.56154C23.0931 6.55889 23.0853 6.5558 23.0767 6.55252C23.0729 6.55109 23.0657 6.54839 23.0568 6.5452C23.0533 6.54393 23.0434 6.54041 23.0306 6.53625C23.0253 6.53452 23.0105 6.52971 22.9913 6.52431C22.9808 6.52141 22.9536 6.51447 22.9369 6.5106C22.9057 6.50419 22.7974 6.48981 22.7201 6.48682V8.48682C22.6428 8.48383 22.5345 8.46945 22.5033 8.46305C22.4866 8.45917 22.4594 8.45224 22.4489 8.44935C22.4298 8.44395 22.415 8.43915 22.4097 8.43744C22.3971 8.43331 22.3874 8.42984 22.384 8.42863C22.3754 8.42558 22.3688 8.42308 22.3658 8.42191C22.3585 8.41917 22.3528 8.41688 22.3489 8.4153C22.3406 8.41194 22.3338 8.40903 22.3284 8.40659C22.3174 8.4017 22.3085 8.39728 22.3008 8.39313C22.2875 8.38596 22.268 8.37428 22.2446 8.35406C22.1978 8.31368 22.0751 8.1793 22.0751 7.96382H24.0751ZM23.1519 6.58485C22.4891 6.26755 21.473 5.79218 20.4894 5.3313L19.6408 7.14235C20.6292 7.60546 21.6351 8.07609 22.2883 8.38879L23.1519 6.58485ZM20.4891 5.33118C18.3674 4.33773 16.0068 3.23272 14.9835 2.69617L14.0548 4.46747C15.1294 5.03092 17.5468 6.16191 19.6411 7.14247L20.4891 5.33118ZM14.9827 2.69576C13.612 1.97865 12.4769 2.58421 12.23 2.73616L13.2782 4.43948C13.2731 4.4426 13.3637 4.38729 13.5063 4.36408C13.6333 4.3434 13.8186 4.3439 14.0555 4.46788L14.9827 2.69576ZM12.3097 2.69198L12.0577 2.81698L12.9465 4.60866L13.1985 4.48366L12.3097 2.69198ZM12.0588 2.81643C9.6978 3.98395 6.93641 5.35064 4.72004 6.45295C3.61203 7.00401 2.63906 7.48959 1.92004 7.85137C1.23292 8.1971 0.715266 8.46043 0.580383 8.54248L1.61982 10.2512C1.61224 10.2558 1.63116 10.2446 1.70287 10.2067C1.76498 10.1738 1.84962 10.1299 1.95631 10.0752C2.16927 9.96586 2.46135 9.81791 2.81898 9.63796C3.53377 9.27831 4.50342 8.79438 5.61067 8.2437C7.8248 7.1425 10.5844 5.77669 12.9454 4.60921L12.0588 2.81643ZM0.579567 8.54298C-0.424768 9.15527 -0.928472 10.2928 -0.99246 11.4852L1.00467 11.5924C1.04468 10.8468 1.33898 10.4224 1.62064 10.2507L0.579567 8.54298ZM-0.992544 11.4868C-1.04191 12.4353 -0.82644 13.3886 -0.430574 14.1979C-0.0385264 14.9995 0.568446 15.734 1.36621 16.1517L2.29399 14.3799C1.97076 14.2107 1.62573 13.8502 1.36603 13.3192C1.11015 12.796 0.974116 12.1794 1.00475 11.5908L-0.992544 11.4868ZM1.37177 16.1546L8.19377 19.6726L9.11044 17.895L2.28843 14.377L1.37177 16.1546ZM7.66251 18.9277C7.77221 19.6821 8.14967 20.3718 8.72591 20.8709L10.0352 19.359C9.82198 19.1743 9.68229 18.9191 9.6417 18.6399L7.66251 18.9277ZM8.72591 20.8709C9.30215 21.3699 10.0387 21.645 10.801 21.6458L10.8032 19.6458C10.5211 19.6455 10.2485 19.5437 10.0352 19.359L8.72591 20.8709ZM10.8038 21.6458C11.6361 21.6444 12.4346 21.3164 13.0276 20.7324L11.6243 19.3074C11.4046 19.5238 11.1088 19.6453 10.8004 19.6458L10.8038 21.6458ZM13.0276 20.7324C13.6207 20.1484 13.9608 19.355 13.975 18.5228L11.9752 18.4888C11.97 18.7971 11.844 19.0911 11.6243 19.3074L13.0276 20.7324ZM13.4517 19.385L20.9657 15.312L20.0126 13.5537L12.4986 17.6267L13.4517 19.385ZM19.872 15.2197C20.4287 15.6562 21.1191 15.8938 21.8261 15.8938V13.8938C21.5651 13.8938 21.3095 13.8054 21.1062 13.6459L19.872 15.2197ZM21.827 15.8938C22.6683 15.893 23.475 15.5585 24.0699 14.9636L22.6557 13.5494C22.4354 13.7697 22.1367 13.8935 21.8252 13.8938L21.827 15.8938ZM24.0699 14.9636C24.6648 14.3687 24.9993 13.5621 25.0001 12.7207L23.0001 12.7189C22.9998 13.0304 22.8759 13.3291 22.6557 13.5494L24.0699 14.9636ZM25.0001 12.7189C24.9993 11.8776 24.6648 11.0709 24.0699 10.476L22.6557 11.8903C22.8759 12.1105 22.9998 12.4092 23.0001 12.7207L25.0001 12.7189ZM24.0699 10.476C23.475 9.88115 22.6683 9.54659 21.827 9.54582L21.8252 11.5458C22.1367 11.5461 22.4354 11.67 22.6557 11.8903L24.0699 10.476Z" fill="white" mask="url(#path-1-inside-1_978_136690)"/>
</svg>
