<svg width="24" height="24" viewBox="0 0 24 24" fill="none" xmlns="http://www.w3.org/2000/svg">
<path d="M6.48714 16.1882C7.27829 16.8712 8.24965 17.2133 9.20399 17.3974C9.10429 17.6074 9.02354 17.8443 8.96737 18.1069C8.72347 18.1927 8.46705 18.2396 8.20754 18.2453C7.74888 18.2441 7.22054 18.0715 6.79207 17.3236L6.79142 17.3225L6.78343 17.3084C6.77696 17.2971 6.76818 17.2821 6.75708 17.264C6.73493 17.2277 6.70338 17.1784 6.66247 17.1202C6.58109 17.0043 6.46017 16.8496 6.29947 16.6906C5.98186 16.3765 5.47726 16.0159 4.79271 15.9551L4.77062 15.9531H4.74844H4.74375C4.71165 15.9531 4.61583 15.9549 4.50314 15.9713C4.40968 15.985 4.21819 16.0194 4.05586 16.1326C3.9653 16.1957 3.85268 16.3053 3.80037 16.477C3.74642 16.6541 3.77981 16.8205 3.83832 16.9482C3.94001 17.1701 4.153 17.3562 4.39069 17.5232L4.424 17.5466L4.45364 17.5609C4.45448 17.5614 4.45557 17.562 4.45688 17.5628C4.46497 17.5675 4.48185 17.5778 4.50592 17.5947C4.55397 17.6284 4.63101 17.6888 4.72406 17.7844C4.9075 17.973 5.15995 18.3054 5.37367 18.8557L5.37692 18.8657C5.38295 18.8837 5.39131 18.9074 5.4023 18.936C5.42423 18.993 5.45686 19.0701 5.50269 19.1605C5.59403 19.3407 5.74012 19.5783 5.96246 19.8159C6.41755 20.3022 7.16679 20.7594 8.325 20.7594L8.32877 20.7594C8.51587 20.7579 8.70262 20.7466 8.88824 20.7255C8.89023 20.9814 8.89236 21.2073 8.89416 21.3978C8.89661 21.6573 8.89844 21.8512 8.89844 21.9656C8.89844 21.9777 8.89659 21.989 8.89405 21.9974C8.88687 21.9987 8.87561 22 8.85938 22L8.8573 22C8.84134 22.0001 8.82539 21.999 8.80961 21.9967C4.85722 20.6307 2 16.7983 2 12.2672C2 6.58759 6.48954 2 12 2C17.5105 2 22 6.58759 22 12.2672C22 16.7933 19.148 20.6295 15.1924 21.996C15.1729 21.9987 15.1532 22.0001 15.1334 22H15.1312C15.1181 22 15.1084 21.9991 15.1015 21.9981C15.0989 21.9886 15.0969 21.9757 15.0969 21.9609C15.0969 21.8466 15.0984 21.6449 15.1004 21.3726C15.1015 21.2317 15.1027 21.072 15.1039 20.8956C15.1074 20.3806 15.1109 19.7289 15.1109 19.0078C15.1109 18.3617 14.9841 17.8188 14.7787 17.3893C15.7343 17.2077 16.7067 16.8693 17.4988 16.1899C18.5434 15.2938 19.1937 13.8772 19.1937 11.7047C19.1937 10.5194 18.8141 9.51744 18.1779 8.71022C18.3301 8.17092 18.49 7.1109 17.9789 5.7871L17.8843 5.54205L17.6289 5.48091C17.5113 5.45277 17.3905 5.44029 17.2696 5.44377C16.7798 5.44584 15.8878 5.62757 14.5329 6.53124C12.8679 6.10624 11.1227 6.10624 9.45777 6.53124C8.10278 5.62757 7.2108 5.44584 6.72101 5.44377C6.60016 5.44029 6.47937 5.45277 6.36177 5.48092L6.10629 5.54205L6.01168 5.7871C5.50086 7.11022 5.66037 8.16983 5.8125 8.70939C5.17581 9.51372 4.79688 10.5162 4.79688 11.7047C4.79688 13.8726 5.44602 15.2895 6.48714 16.1882ZM15.1312 22.5C15.1942 22.5003 15.2571 22.494 15.3187 22.4812L14.2594 17.474C14.4655 17.8402 14.6109 18.3493 14.6109 19.0078C14.6109 19.9709 14.6046 20.8101 14.6005 21.3652C14.5984 21.6396 14.5969 21.8446 14.5969 21.9609C14.5969 22.2141 14.7422 22.5 15.1312 22.5Z" fill="#AAB2CC" stroke="white"/>
</svg>
