<svg width="22" height="20" viewBox="0 0 22 20" fill="none" xmlns="http://www.w3.org/2000/svg">
<path d="M12.2433 11.4418C12.2431 11.7072 12.2952 11.9701 12.3967 12.2153C12.4981 12.4606 12.6469 12.6835 12.8345 12.8712C13.0221 13.059 13.2449 13.2079 13.4901 13.3095C13.7352 13.411 13.9979 13.4633 14.2632 13.4633H14.2633C14.663 13.4635 15.0538 13.3451 15.3862 13.1232C15.7187 12.9013 15.9778 12.5857 16.1309 12.2165C16.2841 11.8473 16.3242 11.4409 16.2464 11.0489C16.1686 10.6568 15.9762 10.2966 15.6936 10.0139C15.4111 9.73116 15.051 9.53857 14.659 9.46048C14.267 9.3824 13.8606 9.42231 13.4913 9.57519C13.122 9.72807 12.8063 9.98704 12.5841 10.3194C12.362 10.6516 12.2435 11.0422 12.2433 11.4418ZM12.2433 11.4418L12.7433 11.4422L12.2433 11.4421C12.2433 11.442 12.2433 11.4419 12.2433 11.4418ZM17.9394 8.30329L17.9716 8.28349L18.0003 8.25909C18.3617 7.95276 18.8016 7.78323 19.2672 7.78323C20.3557 7.78323 21.2428 8.66976 21.2428 9.75858C21.2428 10.4399 20.8862 11.0721 20.3054 11.4333L20.0187 11.6116L20.077 11.9442C20.1142 12.1566 20.1335 12.3718 20.1348 12.5875C20.1343 14.1552 19.1838 15.6375 17.5254 16.7505C15.8702 17.8615 13.5566 18.5655 10.981 18.5655C8.40586 18.5655 6.09263 17.8615 4.43755 16.7505C2.77958 15.6376 1.82913 14.1556 1.82844 12.588C1.83007 12.3661 1.85088 12.1447 1.89066 11.9264L1.95064 11.5972L1.66928 11.4162C1.10352 11.0523 0.757324 10.4291 0.757324 9.75834C0.757324 8.66935 1.64324 7.78299 2.73172 7.78299C3.20671 7.78299 3.65272 7.95739 4.01638 8.2729L4.2982 8.5174L4.61282 8.31684C6.19571 7.30777 8.33489 6.66298 10.7166 6.61818L11.0636 6.61165L11.0641 6.61019L11.5093 6.62703C13.7929 6.71338 15.8386 7.34931 17.3641 8.32528L17.6345 8.49826L17.9042 8.32454C17.9042 8.32454 17.9042 8.32454 17.9042 8.32453C17.9044 8.32438 17.9062 8.32329 17.9114 8.32019L17.9229 8.31336L17.9394 8.30329ZM16.9549 2.95953L16.9542 2.66615L17.0684 2.3848C17.295 1.82678 17.8406 1.43427 18.4757 1.43427C19.3137 1.43427 19.997 2.11696 19.997 2.95579C19.997 3.79405 19.3138 4.47682 18.4757 4.47682C17.6384 4.47682 16.9571 3.79618 16.9549 2.95953ZM7.0706 15.8641L7.07156 15.8652C7.18778 16.0009 8.30946 17.2138 10.964 17.2138C13.6 17.2138 14.8118 16.0205 14.9233 15.9066L14.5661 15.5568L14.9341 15.8953C15.0911 15.7246 15.1752 15.4993 15.1684 15.2674C15.1616 15.0356 15.0645 14.8156 14.8977 14.6544C14.7309 14.4932 14.5077 14.4036 14.2758 14.4047C14.0452 14.4058 13.8241 14.4965 13.6592 14.6575C13.6403 14.6747 13.6006 14.7091 13.5328 14.7576C13.4354 14.8274 13.2801 14.9258 13.0629 15.0261C12.6304 15.2257 11.9434 15.4369 10.964 15.4369C9.12769 15.4369 8.41239 14.6953 8.41144 14.6962C8.4114 14.6962 8.41268 14.6977 8.41526 14.7006C8.26101 14.5258 8.04441 14.4184 7.81189 14.4015C7.57896 14.3845 7.34868 14.4597 7.17059 14.6107L7.17058 14.6107L7.16816 14.6128C6.98978 14.7661 6.87937 14.9838 6.86109 15.2183C6.84281 15.4528 6.91814 15.685 7.0706 15.8641ZM6.03795 10.6666C5.93843 10.9159 5.88956 11.1825 5.8942 11.4508C5.90336 11.9805 6.12013 12.4854 6.49786 12.8568C6.87559 13.2283 7.38406 13.4365 7.91382 13.4368C8.44358 13.437 8.95225 13.2292 9.33033 12.8582C9.70841 12.4871 9.92566 11.9824 9.93532 11.4527C9.94022 11.1844 9.8916 10.9177 9.79232 10.6684C9.69303 10.419 9.54507 10.1919 9.35706 10.0003C9.16905 9.80879 8.94477 9.6566 8.6973 9.55267C8.44983 9.44874 8.18414 9.39514 7.91573 9.39502C7.64733 9.39489 7.38158 9.44823 7.13402 9.55193C6.88646 9.65563 6.66203 9.8076 6.47384 9.99898C6.28565 10.1904 6.13747 10.4173 6.03795 10.6666Z" fill="#AAB2CC" stroke="white"/>
</svg>
