<svg width="24" height="24" viewBox="0 0 24 24" fill="none" xmlns="http://www.w3.org/2000/svg">
<path d="M18.6284 6.58586L18.9593 7.50715C19.1387 7.48206 19.3171 7.45135 19.4943 7.4151C19.2943 7.60064 19.0836 7.77509 18.8633 7.93753L18.66 8.08741V8.33997V8.80797V8.80826C18.661 10.4296 18.278 12.0282 17.5424 13.4731L17.5424 13.4731L17.5405 13.4771C16.8044 14.9549 15.6545 16.2207 14.075 17.2558L14.0739 17.2565C12.5175 18.2821 10.7249 18.8 8.67502 18.8C7.36017 18.8 6.1335 18.5741 4.98859 18.121C6.38502 17.9422 7.65313 17.4104 8.78765 16.5204L9.89849 15.6489L8.48676 15.627C7.81512 15.6166 7.16437 15.392 6.62939 14.9858L6.62692 14.9839C6.30217 14.7405 6.03888 14.4546 5.83718 14.1241C6.16559 14.1149 6.48988 14.0726 6.80321 13.9923L6.77788 13.0178C6.05827 12.8727 5.41279 12.4787 4.95477 11.905L4.95429 11.9044C4.64042 11.5125 4.43069 11.0884 4.32487 10.6086C4.64645 10.7042 4.98799 10.7668 5.34678 10.7972L7.22015 10.956L5.67318 9.88757C4.7085 9.22127 4.24402 8.3421 4.24402 7.20997C4.24402 6.89863 4.29197 6.59076 4.3908 6.28327C6.40192 8.45596 8.90368 9.5996 11.865 9.70068L12.5838 9.72522L12.3564 9.04286C12.2992 8.87151 12.265 8.65109 12.265 8.38197H12.2651L12.265 8.37433C12.2586 7.9578 12.3373 7.54436 12.4964 7.15934C12.6554 6.77432 12.8914 6.42582 13.1898 6.1352L13.1899 6.13521L13.1928 6.13225C13.8175 5.51365 14.5718 5.19897 15.484 5.19897C16.416 5.19897 17.1721 5.52802 17.7779 6.17946L17.9701 6.38621L18.2465 6.32837C18.6103 6.25222 18.9687 6.15414 19.3197 6.03483C19.1243 6.23917 18.8944 6.42262 18.6284 6.58586Z" fill="#AAB2CC" stroke="white"/>
</svg>
